<?xml version="1.0" encoding="UTF-8" standalone="no"?>
<svg width="1188px" height="548px" viewBox="0 0 1188 548" version="1.1" xmlns="http://www.w3.org/2000/svg" xmlns:xlink="http://www.w3.org/1999/xlink">
    <!-- Generator: Sketch 3.6.1 (26313) - http://www.bohemiancoding.com/sketch -->
    <title>logo</title>
    <desc>Created with Sketch.</desc>
    <defs></defs>
    <g id="Page-1" stroke="none" stroke-width="1" fill="none" fill-rule="evenodd">
        <g id="logo">
            <path d="M75.1591754,134.863738 C73.6617721,130.221788 72.2018257,126.10399 70.7792926,122.510222 C69.3567594,118.916454 68.1214202,115.846824 67.0732379,113.301238 C61.2333649,115.247862 54.8694963,116.595505 47.981441,117.344207 C47.981441,126.927588 48.2060481,135.088314 48.6552691,141.826629 C48.8050095,146.019358 48.9921821,149.575637 49.2167926,152.495574 C49.4414031,155.41551 49.6660102,157.923623 49.8906207,160.019988 C50.1152312,162.116353 50.3772728,164.025513 50.6767535,165.747527 C50.9762342,167.469541 51.4254484,169.154094 52.0244098,170.801238 C49.0296031,173.047343 46.147145,174.694462 43.3769488,175.742644 C40.6067527,176.790826 38.1735088,177.539517 36.0771441,177.988738 C33.5315585,178.587699 31.2854872,178.737437 29.3388629,178.437957 C28.5901612,176.341592 27.9163398,174.132955 27.3173785,171.81198 C26.7184172,169.491005 26.3066374,166.346505 26.0820269,162.378386 C25.8574164,158.410268 25.7451129,153.356607 25.7451129,147.217254 C25.7451129,141.0779 25.96972,133.21665 26.418941,123.633269 C26.5686813,122.585087 26.6435504,121.53692 26.6435504,120.488738 C26.6435504,119.440556 26.7184194,118.392389 26.8681598,117.344207 C25.5204968,117.194466 24.1354195,117.044728 22.7128863,116.894988 C21.2903532,116.745248 19.9052759,116.595509 18.5576129,116.445769 C17.6591709,114.049924 17.0602185,111.916156 16.7607379,110.044402 C16.4612572,108.172648 16.3115191,106.637832 16.3115191,105.43991 C16.3115191,103.942506 16.4612572,102.744602 16.7607379,101.84616 C19.1565832,102.295381 21.5523926,102.519988 23.9482379,102.519988 L27.3173785,102.519988 C27.6168592,96.230894 27.9163353,89.8295908 28.215816,83.3158863 C28.5152967,76.8021819 28.7773383,70.4383132 29.0019488,64.2240895 C29.2265593,58.0098657 29.4137319,52.0952113 29.5634723,46.4799488 C29.7132126,40.8646864 29.8629507,35.7361569 30.012691,31.0942067 C25.520481,34.0890133 21.6272908,37.9822035 18.3330035,42.7738942 C15.0387162,47.5655848 12.7926449,53.105894 11.5947223,59.3949879 C9.64809794,59.0955072 8.00097899,58.1596442 6.65331601,56.5873707 C5.30565302,55.0150972 4.18261737,53.4054128 3.28417538,51.7582692 C2.23599306,49.8116448 1.33756454,47.6404426 0.588862881,45.2445973 C-0.159838779,42.399531 -0.159838779,39.5170728 0.588862881,36.5971363 C1.33756454,33.6771999 2.46060019,30.9070453 3.95800351,28.2865895 C5.45540683,25.6661337 7.17739481,23.3451933 9.12401913,21.3236988 C11.0706434,19.3022044 12.9423695,17.6925199 14.7392535,16.4945973 C17.8838005,14.547973 21.1406038,12.7885505 24.5097613,11.216277 C27.8789188,9.64400348 31.6598055,8.33379523 35.8525348,7.2856129 C37.4996784,5.63846925 39.33397,4.14108839 41.3554644,2.7934254 C43.3769589,1.44576241 45.2861195,0.622202942 47.0830035,0.322722278 C49.6285892,-0.27623905 51.051101,1.29601085 51.3505816,5.03951915 C52.6982446,4.88977882 54.1207564,4.77747526 55.6181598,4.70260509 C57.1155631,4.62773492 58.687813,4.5903004 60.3349566,4.5903004 C66.0250892,4.5903004 71.9397436,5.48872892 78.0790973,7.2856129 C84.2184509,9.08249689 89.8710636,11.964955 95.0371051,15.9330738 C100.203147,19.9011926 104.433247,25.0671566 107.727535,31.4311207 C111.021822,37.7950848 112.668941,45.5440308 112.668941,54.678191 C112.668941,65.0102739 110.235697,74.5186424 105.369136,83.2035817 C100.502576,91.8885209 93.5771891,99.075949 84.5927691,104.766082 C85.6409515,107.461408 86.9885942,110.830515 88.6357379,114.873504 C90.2828815,118.916492 91.9300005,123.483504 93.5771441,128.574675 C95.9729894,134.863769 98.5559714,140.740989 101.326168,146.206511 C104.096364,151.672033 106.978822,156.426218 109.973629,160.469207 C112.968435,164.512196 116.112935,167.768999 119.407222,170.239714 C122.70151,172.71043 125.995747,174.170376 129.290035,174.619597 C127.34341,177.614404 125.097339,179.710737 122.551754,180.90866 C120.006168,182.106582 117.46062,182.855273 114.915035,183.154754 C112.069968,183.603975 109.075207,183.603975 105.93066,183.154754 C101.58819,182.256312 97.844738,180.159978 94.700191,176.865691 C91.555644,173.571404 88.822924,169.603344 86.5019488,164.961394 C84.1809737,160.319444 82.0846405,155.340653 80.2128863,150.024871 C78.3411322,144.709089 76.6565787,139.655429 75.1591754,134.863738 L75.1591754,134.863738 Z M49.1044879,39.1801442 C49.1044879,42.4744315 49.0296188,46.4424907 48.8798785,51.084441 C48.7301382,55.7263913 48.6178346,60.7426172 48.5429644,66.1332692 C48.4680943,71.5239211 48.3557907,77.1765339 48.2060504,83.091277 C48.05631,89.0060201 47.981441,94.88324 47.981441,100.723113 C52.02443,100.124152 56.479138,99.150854 61.3456988,97.803191 C66.2122596,96.455528 70.7418367,94.2094568 74.934566,91.0649098 C79.1272953,87.9203628 82.6461403,83.7276964 85.4912066,78.4867848 C88.3362729,73.2458732 89.7587848,66.5076593 89.7587848,58.271941 C89.7587848,51.9828471 88.6731836,46.6297105 86.5019488,42.2123707 C84.330714,37.7950309 81.5231249,34.2013169 78.0790973,31.4311207 C74.6350696,28.6609246 70.8541829,26.6394604 66.7363238,25.3666676 C62.6184647,24.0938748 58.5381018,23.4574879 54.4951129,23.4574879 L52.2490191,23.4574879 C51.5003175,23.4574879 50.676758,23.5323569 49.778316,23.6820973 C49.329095,28.4737879 49.1044879,33.6397519 49.1044879,39.1801442 L49.1044879,39.1801442 Z M155.093502,160.469207 C144.611679,160.469207 136.525822,156.950362 130.83569,149.912566 C125.145557,142.87477 122.300533,133.665878 122.300533,122.285613 C122.300533,114.349375 123.461004,106.899906 125.781979,99.9369801 C128.102954,92.9740547 131.210019,86.9470967 135.103268,81.8559254 C138.996516,76.7647541 143.526093,72.7592603 148.692135,69.8393238 C153.858176,66.9193874 159.286182,65.459441 164.976315,65.459441 C170.516707,65.459441 175.233457,67.4434707 179.126705,71.4115895 C183.019954,75.3797083 184.966549,81.032321 184.966549,88.3695973 C184.966549,93.1612879 183.918382,97.9154721 181.822018,102.632293 C179.725653,107.349113 176.992933,111.541779 173.623776,115.210418 C170.254618,118.879056 166.5486,121.836383 162.505611,124.082488 C158.462623,126.328593 154.569432,127.451629 150.825924,127.451629 C148.430079,127.451629 146.408614,127.152152 144.761471,126.553191 C143.114327,125.95423 141.616946,125.055801 140.269283,123.857879 C140.718504,132.393077 142.59023,138.345166 145.884518,141.714324 C149.178805,145.083481 153.44634,146.768035 158.687252,146.768035 C162.28102,146.768035 165.462954,146.019344 168.233151,144.521941 C171.003347,143.024538 173.361722,141.30255 175.308346,139.355925 C177.25497,137.409301 178.82722,135.425271 180.025143,133.403777 C181.223065,131.382282 182.046625,129.847467 182.495846,128.799285 C182.945067,127.900843 183.731192,127.451629 184.854244,127.451629 C185.977297,127.451629 186.538815,128.350057 186.538815,130.146941 C186.538815,131.794085 185.977297,134.302198 184.854244,137.671355 C183.731192,141.040513 181.8969,144.409619 179.351315,147.778777 C176.805729,151.147934 173.548926,154.105262 169.580807,156.650847 C165.612688,159.196433 160.783635,160.469207 155.093502,160.469207 L155.093502,160.469207 Z M165.425533,75.1176442 C164.527091,75.1176442 162.842538,76.0535072 160.371822,77.9252613 C157.901107,79.7970155 155.28069,82.5297356 152.510494,86.1235035 C149.740298,89.7172715 147.194751,94.0222415 144.873776,99.0385426 C142.5528,104.054844 141.092854,109.707456 140.493893,115.99655 C149.478313,113.900186 156.590872,110.605948 161.831783,106.113738 C167.072695,101.621528 169.693111,95.0330522 169.693111,86.3481129 C169.693111,82.0056433 169.169028,79.0483161 168.120846,77.4760426 C167.072664,75.9037691 166.174235,75.1176442 165.425533,75.1176442 L165.425533,75.1176442 Z M228.738766,12.4516285 C228.439286,17.8422805 227.915202,24.056411 227.166501,31.0942067 C226.417799,38.1320023 225.631674,45.6937756 224.808102,53.7797535 C223.98453,61.8657315 223.160971,70.3259333 222.337399,79.1606129 C221.513827,87.9952925 220.802571,96.9047086 220.20361,105.889129 C219.604649,114.873548 219.342607,122.17328 219.417477,127.788543 C219.492347,133.403805 219.829258,138.008251 220.428219,141.602019 C221.027181,145.195787 221.85074,148.040811 222.898923,150.137175 C223.947105,152.23354 225.294748,154.255004 226.941891,156.201629 C224.995267,157.399551 223.19841,158.29798 221.551266,158.896941 C219.904123,159.495902 218.481611,159.945117 217.283688,160.244597 C215.786285,160.693818 214.438642,160.918425 213.240719,160.918425 C210.994614,160.918425 209.048019,159.832824 207.400876,157.661589 C205.753732,155.490355 204.443524,152.682766 203.470212,149.238738 C202.496899,145.79471 201.748209,141.938955 201.224118,137.671355 C200.700027,133.403756 200.437985,129.173655 200.437985,124.980925 C200.437985,120.488715 200.587723,115.285317 200.887204,109.370574 C201.186684,103.455831 201.523595,97.1668311 201.897946,90.5033863 C202.272297,83.8399416 202.684077,76.8771206 203.133298,69.6147145 C203.582519,62.3523084 203.956864,55.1274457 204.256344,47.9399098 C204.555825,42.3995175 204.855301,37.3832916 205.154782,32.8910817 C205.454263,28.997833 205.67887,25.4415535 205.82861,22.2221363 C205.97835,19.0027192 205.903481,17.0935586 205.604001,16.4945973 C206.502443,15.2966746 207.625478,14.3982461 208.973141,13.7992848 C210.320804,13.2003234 211.593578,12.6762401 212.791501,12.2270192 C214.288904,11.7777982 215.786285,11.4034529 217.283688,11.1039723 L221.551266,11.1039723 C222.749189,11.1039723 224.021963,11.2162758 225.369626,11.4408863 C226.717289,11.6654968 227.840324,12.0024075 228.738766,12.4516285 L228.738766,12.4516285 Z M240.616452,78.4867848 C240.616452,77.5883428 241.814357,76.6150452 244.210202,75.5668629 C246.606048,74.5186806 249.263899,73.6576866 252.183835,72.9838551 C255.103772,72.3100236 257.799057,71.9356784 260.269773,71.8608082 C262.740488,71.785938 263.975827,72.3474559 263.975827,73.5453785 C263.975827,75.7914835 263.826089,78.9734178 263.526609,83.091277 C263.227128,87.2091361 262.852783,91.5515406 262.403562,96.1186207 C261.954341,100.685701 261.505127,105.252712 261.055906,109.819793 C260.606685,114.386873 260.307208,118.242628 260.157468,121.387175 C259.857987,124.681463 259.558511,128.275177 259.259031,132.168425 C258.95955,135.462713 258.734943,139.131296 258.585202,143.174285 C258.435462,147.217274 258.435462,151.335071 258.585202,155.5278 C258.585202,156.276502 257.836512,157.025192 256.339109,157.773894 C254.841705,158.522596 253.194586,159.084114 251.397702,159.458464 C249.600818,159.832815 247.87883,160.019988 246.231687,160.019988 C244.584543,160.019988 243.686115,159.720512 243.536374,159.12155 C243.236894,158.522589 242.937417,157.474422 242.637937,155.977019 C242.338456,154.479616 242.03898,152.345848 241.739499,149.575652 C241.440019,146.805456 241.215411,143.211742 241.065671,138.794402 C240.915931,134.377062 240.9908,129.023926 241.290281,122.734832 C241.889242,110.306384 241.964111,100.685712 241.51489,93.872527 C241.065669,87.0593419 240.766193,81.9308124 240.616452,78.4867848 L240.616452,78.4867848 Z M256.339109,33.7895192 C259.333915,33.7895192 262.178939,34.6879477 264.874265,36.4848317 C267.569591,38.2817156 268.917234,40.677525 268.917234,43.6723317 C268.917234,45.9184366 268.355716,48.0896389 267.232663,50.1860035 C266.109611,52.2823682 264.724534,54.1540943 263.07739,55.8012379 C261.430246,57.4483816 259.55852,58.7585898 257.462156,59.731902 C255.365791,60.7052141 253.419196,61.1918629 251.622312,61.1918629 C249.226466,61.1918629 247.279871,60.7800832 245.782468,59.9565113 C244.285065,59.1329395 243.124595,58.159642 242.301023,57.0365895 C241.477451,55.913537 240.915933,54.6781978 240.616452,53.3305348 C240.316972,51.9828718 240.167234,50.7100981 240.167234,49.5121754 C240.167234,48.0147721 240.391841,46.3302186 240.841062,44.4584645 C241.290283,42.5867103 242.113842,40.8647223 243.311765,39.2924488 C244.509688,37.7201754 246.156806,36.4099671 248.253171,35.3617848 C250.349536,34.3136025 253.044821,33.7895192 256.339109,33.7895192 L256.339109,33.7895192 Z M250.723874,54.678191 C251.622316,54.678191 252.633048,54.3412803 253.756101,53.6674488 C254.879153,52.9936173 255.92732,52.2074924 256.900632,51.3090504 C257.873944,50.4106084 258.697504,49.4373109 259.371335,48.3891285 C260.045167,47.3409462 260.382077,46.4425177 260.382077,45.693816 C260.382077,44.4958934 259.783125,43.896941 258.585202,43.896941 C257.836501,43.896941 256.900638,44.1964172 255.777585,44.7953785 C254.654533,45.3943399 253.568932,46.1055958 252.520749,46.9291676 C251.472567,47.7527394 250.611573,48.6511679 249.937741,49.6244801 C249.26391,50.5977922 248.926999,51.5336553 248.926999,52.4320973 C248.926999,53.9295006 249.525952,54.678191 250.723874,54.678191 L250.723874,54.678191 Z M344.359373,146.543425 C344.658854,147.591608 345.108068,148.564905 345.707029,149.463347 C346.15625,150.212049 346.792637,150.923305 347.616209,151.597136 C348.439781,152.270968 349.450513,152.682748 350.648435,152.832488 C349.600253,154.928853 348.552086,156.351364 347.503904,157.100066 C346.904943,157.549287 346.380859,157.848763 345.931638,157.998504 C344.583975,158.447725 342.562511,158.672332 339.867185,158.672332 C337.171859,158.672332 334.551443,157.848772 332.005857,156.201629 C331.107415,155.452927 330.283856,154.329891 329.535154,152.832488 C328.786452,151.634565 328.150066,149.950012 327.625974,147.778777 C327.101883,145.607542 326.690104,142.799953 326.390623,139.355925 C324.294258,143.848135 321.935883,147.404415 319.315428,150.024871 C316.694972,152.645327 314.11199,154.554487 311.566404,155.75241 C308.721338,157.399553 305.801445,158.372851 302.806638,158.672332 C299.06313,158.971812 295.506851,158.335425 292.137693,156.763152 C288.768536,155.190878 285.923512,152.795069 283.602537,149.575652 C281.281562,146.356235 279.522139,142.42561 278.324217,137.78366 C277.126294,133.141709 276.751949,127.900876 277.20117,122.061004 C277.650391,115.92165 278.848295,110.45621 280.79492,105.664519 C282.741544,100.872829 285.062484,96.6052931 287.75781,92.8617848 C290.453136,89.1182765 293.29816,85.9363422 296.292967,83.3158863 C299.287773,80.6954305 302.170231,78.5242283 304.940428,76.8022145 C307.710624,75.0802006 310.106433,73.8074269 312.127928,72.9838551 C314.149422,72.1602833 315.45963,71.6736345 316.058592,71.5238942 C317.705735,71.0746732 319.128247,70.9249351 320.32617,71.0746754 C321.524092,71.2244157 322.572259,71.8982371 323.470701,73.0961598 C323.770182,73.5453808 324.144527,74.0694641 324.593748,74.6684254 C324.893229,75.2673867 325.267574,76.0535117 325.716795,77.0268238 C326.166016,78.000136 326.540361,79.0857371 326.839842,80.2836598 C323.246074,81.9308034 319.876967,83.765095 316.73242,85.7865895 C313.587873,87.8080839 310.705415,90.2413278 308.084959,93.0863942 C305.464503,95.9314605 303.180997,99.3754364 301.234373,103.418425 C299.287749,107.461414 297.790368,112.402771 296.742185,118.242644 C295.244782,125.57992 295.656562,131.494575 297.977537,135.986785 C300.298512,140.478995 303.480446,142.350721 307.523435,141.602019 C309.919281,140.853317 312.240221,139.430806 314.486326,137.334441 C316.43295,135.537557 318.491849,132.842271 320.663084,129.248504 C322.834319,125.654736 324.893217,120.713379 326.839842,114.424285 C327.588543,105.439865 328.22493,98.3647403 328.749021,93.1986988 C329.273112,88.0326574 329.759761,84.1020326 330.208982,81.4067067 C330.807944,78.2621597 331.257158,76.1658265 331.556638,75.1176442 C332.005859,74.3689425 332.904288,73.6576866 334.251951,72.9838551 C335.599614,72.3100236 337.096995,71.7485058 338.744138,71.2992848 C340.391282,70.8500638 341.888663,70.5880221 343.236326,70.513152 C344.583989,70.4382818 345.482417,70.4757163 345.931638,70.6254567 C346.231119,70.775197 346.380857,72.6094885 346.380857,76.1283863 C346.380857,79.6472841 346.268554,84.0645577 346.043943,89.3803395 C345.819333,94.6961213 345.557291,100.461038 345.25781,106.675261 C344.95833,112.889485 344.696288,118.766705 344.471678,124.307097 C344.247067,129.84749 344.097329,134.676543 344.022459,138.794402 C343.947589,142.912261 344.059892,145.495243 344.359373,146.543425 L344.359373,146.543425 Z M366.56909,18.0668629 C367.767013,16.4197193 369.077221,14.9972074 370.499754,13.7992848 C371.922287,12.6013621 373.382234,11.6280646 374.879637,10.8793629 C376.526781,10.1306612 378.248769,9.5317089 380.045653,9.0824879 C381.393316,8.78300724 382.666089,8.63326915 383.864012,8.63326915 C384.912194,8.63326915 385.922926,8.7081382 386.896239,8.85787853 C387.869551,9.00761886 388.655676,9.38196407 389.254637,9.9809254 C388.955156,17.1684613 388.693115,23.2702883 388.468504,28.2865895 C388.243894,33.3028906 388.019287,37.6827296 387.794676,41.4262379 C387.570066,45.1697462 387.382893,48.5014186 387.233153,51.4213551 C387.083412,54.3412916 386.89624,57.2986188 386.671629,60.2934254 C386.447019,63.288232 386.184977,66.5450354 385.885496,70.0639332 C385.586016,73.582831 385.28654,77.8129319 384.987059,82.7543629 C384.687578,85.8989099 384.462971,89.0808442 384.313231,92.3002613 C384.16349,95.5196785 384.013752,98.7764818 383.864012,102.070769 C385.211675,98.3272609 386.896229,94.4340706 388.917723,90.3910817 C390.939217,86.3480927 393.297592,82.6795096 395.992918,79.3852223 C398.688244,76.090935 401.757875,73.3582149 405.201903,71.1869801 C408.64593,69.0157453 412.389382,67.9301442 416.432371,67.9301442 C422.122504,67.9301442 426.689516,69.5772631 430.133543,72.8715504 C433.577571,76.1658377 436.197987,80.1713315 437.994871,84.888152 C439.791755,89.6049724 440.952226,94.5837638 441.476317,99.8246754 C442.000408,105.065587 442.26245,109.707468 442.26245,113.750457 C442.26245,117.643705 441.775801,122.248151 440.802489,127.563933 C439.829176,132.879715 438.107188,137.97081 435.636473,142.837371 C433.165758,147.703932 429.908954,151.859163 425.865965,155.303191 C421.822976,158.747219 416.731881,160.469207 410.592528,160.469207 C406.250058,160.469207 402.581475,159.570778 399.586668,157.773894 C396.591862,155.97701 394.121183,153.880677 392.174559,151.484832 C390.227935,149.088986 388.842857,146.693177 388.019285,144.297332 C387.195714,141.901486 386.783934,140.179498 386.783934,139.131316 C386.783934,138.083134 387.158279,136.847794 387.906981,135.425261 C388.655682,134.002728 389.554111,132.655085 390.602293,131.382293 C391.650476,130.1095 392.773511,129.061333 393.971434,128.237761 C395.169357,127.41419 396.142654,127.077279 396.891356,127.227019 C396.591875,132.16845 396.928786,135.949337 397.902098,138.569793 C398.87541,141.190248 400.03588,143.099409 401.383543,144.297332 C403.030687,145.794735 404.827544,146.618294 406.774168,146.768035 C409.619235,146.768035 412.127348,145.420392 414.298582,142.725066 C416.469817,140.02974 418.304109,136.735502 419.801512,132.842254 C421.298915,128.949005 422.459386,124.718904 423.282957,120.151824 C424.106529,115.584744 424.518309,111.504381 424.518309,107.910613 C424.518309,105.215287 424.331136,102.332829 423.956785,99.263152 C423.582435,96.1934752 423.020917,93.3484515 422.272215,90.7279957 C421.523514,88.1075399 420.475347,85.9737722 419.127684,84.3266285 C417.780021,82.6794849 416.132902,81.8559254 414.186278,81.8559254 C410.89199,81.8559254 407.448014,83.7276515 403.854246,87.4711598 C400.260478,91.2146681 396.966241,96.1185904 393.971434,102.183074 C390.976627,108.247557 388.505949,115.098075 386.559325,122.734832 C384.6127,130.371589 383.714272,138.157969 383.864012,146.094207 C383.864012,148.190571 383.976316,150.024863 384.200926,151.597136 C384.425537,153.16941 384.687578,154.554487 384.987059,155.75241 C381.393291,157.249813 378.548267,158.148242 376.451903,158.447722 C375.25398,158.747203 374.280682,158.822072 373.531981,158.672332 C371.435616,158.672332 369.713628,158.073379 368.365965,156.875457 C367.018302,155.677534 366.194743,153.131987 365.895262,149.238738 C365.745522,147.891075 365.670653,144.185057 365.670653,138.120574 L365.670653,116.108855 C365.670653,107.498786 365.708087,98.1775901 365.782957,88.1449879 C365.857828,78.1123857 365.932697,68.4542791 366.007567,59.1703785 C366.082437,49.8864779 366.157306,41.5385797 366.232176,34.1264332 C366.307046,26.7142868 366.41935,21.3611502 366.56909,18.0668629 L366.56909,18.0668629 Z M484.462401,12.4516285 C484.162921,17.8422805 483.638837,24.056411 482.890136,31.0942067 C482.141434,38.1320023 481.355309,45.6937756 480.531737,53.7797535 C479.708165,61.8657315 478.884606,70.3259333 478.061034,79.1606129 C477.237462,87.9952925 476.526206,96.9047086 475.927245,105.889129 C475.328284,114.873548 475.066242,122.17328 475.141112,127.788543 C475.215982,133.403805 475.552893,138.008251 476.151854,141.602019 C476.750816,145.195787 477.574375,148.040811 478.622558,150.137175 C479.67074,152.23354 481.018383,154.255004 482.665526,156.201629 C480.718902,157.399551 478.922045,158.29798 477.274901,158.896941 C475.627758,159.495902 474.205246,159.945117 473.007323,160.244597 C471.50992,160.693818 470.162277,160.918425 468.964354,160.918425 C466.718249,160.918425 464.771654,159.832824 463.124511,157.661589 C461.477367,155.490355 460.167159,152.682766 459.193847,149.238738 C458.220534,145.79471 457.471844,141.938955 456.947753,137.671355 C456.423662,133.403756 456.16162,129.173655 456.16162,124.980925 C456.16162,120.488715 456.311358,115.285317 456.610839,109.370574 C456.910319,103.455831 457.24723,97.1668311 457.621581,90.5033863 C457.995932,83.8399416 458.407712,76.8771206 458.856933,69.6147145 C459.306154,62.3523084 459.680499,55.1274457 459.979979,47.9399098 C460.27946,42.3995175 460.578936,37.3832916 460.878417,32.8910817 C461.177898,28.997833 461.402505,25.4415535 461.552245,22.2221363 C461.701985,19.0027192 461.627116,17.0935586 461.327636,16.4945973 C462.226078,15.2966746 463.349113,14.3982461 464.696776,13.7992848 C466.044439,13.2003234 467.317213,12.6762401 468.515136,12.2270192 C470.012539,11.7777982 471.50992,11.4034529 473.007323,11.1039723 L477.274901,11.1039723 C478.472824,11.1039723 479.745598,11.2162758 481.093261,11.4408863 C482.440924,11.6654968 483.563959,12.0024075 484.462401,12.4516285 L484.462401,12.4516285 Z M525.090087,160.469207 C514.608264,160.469207 506.522407,156.950362 500.832275,149.912566 C495.142142,142.87477 492.297119,133.665878 492.297119,122.285613 C492.297119,114.349375 493.457589,106.899906 495.778564,99.9369801 C498.099539,92.9740547 501.206604,86.9470967 505.099853,81.8559254 C508.993102,76.7647541 513.522679,72.7592603 518.68872,69.8393238 C523.854762,66.9193874 529.282767,65.459441 534.9729,65.459441 C540.513292,65.459441 545.230042,67.4434707 549.12329,71.4115895 C553.016539,75.3797083 554.963134,81.032321 554.963134,88.3695973 C554.963134,93.1612879 553.914968,97.9154721 551.818603,102.632293 C549.722238,107.349113 546.989518,111.541779 543.620361,115.210418 C540.251203,118.879056 536.545186,121.836383 532.502197,124.082488 C528.459208,126.328593 524.566018,127.451629 520.822509,127.451629 C518.426664,127.451629 516.4052,127.152152 514.758056,126.553191 C513.110912,125.95423 511.613532,125.055801 510.265869,123.857879 C510.71509,132.393077 512.586816,138.345166 515.881103,141.714324 C519.17539,145.083481 523.442926,146.768035 528.683837,146.768035 C532.277605,146.768035 535.45954,146.019344 538.229736,144.521941 C540.999932,143.024538 543.358307,141.30255 545.304931,139.355925 C547.251555,137.409301 548.823805,135.425271 550.021728,133.403777 C551.219651,131.382282 552.04321,129.847467 552.492431,128.799285 C552.941652,127.900843 553.727777,127.451629 554.85083,127.451629 C555.973882,127.451629 556.5354,128.350057 556.5354,130.146941 C556.5354,131.794085 555.973882,134.302198 554.85083,137.671355 C553.727777,141.040513 551.893485,144.409619 549.3479,147.778777 C546.802314,151.147934 543.545511,154.105262 539.577392,156.650847 C535.609273,159.196433 530.78022,160.469207 525.090087,160.469207 L525.090087,160.469207 Z M535.422119,75.1176442 C534.523677,75.1176442 532.839123,76.0535072 530.368408,77.9252613 C527.897692,79.7970155 525.277276,82.5297356 522.50708,86.1235035 C519.736883,89.7172715 517.191336,94.0222415 514.870361,99.0385426 C512.549386,104.054844 511.089439,109.707456 510.490478,115.99655 C519.474898,113.900186 526.587457,110.605948 531.828369,106.113738 C537.06928,101.621528 539.689697,95.0330522 539.689697,86.3481129 C539.689697,82.0056433 539.165613,79.0483161 538.117431,77.4760426 C537.069249,75.9037691 536.17082,75.1176442 535.422119,75.1176442 L535.422119,75.1176442 Z M743.806397,177.0903 C739.314187,176.94056 736.244556,175.555483 734.597413,172.935027 C732.950269,170.314571 731.976971,166.683423 731.677491,162.041472 C731.37801,157.399522 731.527748,151.896647 732.12671,145.532683 C732.725671,139.168719 733.025147,132.243333 733.025147,124.756316 C733.174887,109.932023 733.736405,96.4181609 734.709717,84.2143238 C735.683029,72.0104868 735.945071,60.1437435 735.49585,48.6137379 L735.49585,46.1430348 C735.49585,45.3943331 735.420981,44.6456427 735.271241,43.896941 C734.522539,46.4425267 733.661545,49.3249848 732.688233,52.544402 C731.714921,55.7638191 730.554451,59.3200986 729.206788,63.2133473 C726.511462,71.5988059 723.853611,80.2087458 721.233155,89.0434254 C718.612699,97.878105 716.067152,106.45061 713.596436,114.761199 C711.125721,123.071787 708.80478,130.783299 706.633545,137.895964 C704.462311,145.00863 702.55315,150.960719 700.906006,155.75241 C699.258863,160.5441 697.649178,164.10038 696.076905,166.421355 C694.504631,168.74233 692.932381,170.352015 691.360108,171.250457 C689.787834,172.148899 688.215585,172.523244 686.643311,172.373504 C685.071038,172.223763 683.536222,172.074025 682.038819,171.924285 C681.439858,166.833113 680.316822,160.84359 678.669678,153.955535 C677.022535,147.06748 675.300547,140.479004 673.503663,134.18991 C671.407298,126.852634 669.086358,119.365729 666.540772,111.728972 C663.096744,98.5518231 659.50303,86.4979071 655.759522,75.5668629 C652.016014,64.6358187 649.096121,55.6515335 646.999756,48.6137379 C646.101314,56.2504948 645.427493,65.0101729 644.978272,74.8930348 C644.529051,84.7758967 644.229575,94.6586104 644.079835,104.541472 C643.930094,114.424334 644.004963,123.74553 644.304444,132.505339 C644.603925,141.265149 645.053139,148.340273 645.6521,153.730925 C645.80184,155.97703 646.101317,158.223102 646.550538,160.469207 C646.850018,162.415831 647.261798,164.399861 647.785889,166.421355 C648.30998,168.44285 648.946367,170.277141 649.695069,171.924285 C648.946367,172.523246 648.047939,173.047329 646.999756,173.49655 C645.951574,173.945771 644.828538,174.320117 643.630616,174.619597 C642.282953,175.068818 640.860441,175.443163 639.363038,175.742644 C633.523165,176.940567 629.293064,176.790829 626.672608,175.293425 C624.052152,173.796022 622.442468,170.80126 621.843506,166.30905 C621.544026,164.062945 621.319419,159.870279 621.169678,153.730925 C621.019938,147.591572 620.982503,140.516447 621.057374,132.505339 C621.132244,124.494232 621.319416,116.071464 621.618897,107.236785 C621.918378,98.4021052 622.367592,90.1665105 622.966553,82.5297535 C623.565515,76.3903999 624.164467,69.7270551 624.763428,62.5395192 C625.36239,56.2504252 625.961342,48.988128 626.560303,40.7524098 C627.159265,32.5166915 627.833086,23.6072754 628.581788,14.0238942 C629.031009,13.1254522 629.779699,12.3393272 630.827881,11.6654957 C631.876064,10.9916642 632.999099,10.4301464 634.197022,9.9809254 C635.544685,9.38196407 637.042066,8.93274982 638.68921,8.63326915 C641.234795,8.18404816 643.480866,7.80970294 645.427491,7.51022228 C647.074634,7.21074161 648.60945,6.98613449 650.031983,6.83639415 C651.454516,6.68665382 652.016034,6.68665382 651.716553,6.83639415 C653.663178,10.8793831 655.160558,14.2110555 656.208741,16.8315113 C657.256923,19.4519672 658.342524,22.5590324 659.465577,26.1528004 C660.588629,29.7465684 662.011141,34.4633181 663.733155,40.303191 C665.455169,46.143064 667.963282,54.3037897 671.257569,64.7856129 C675.749779,79.3104251 679.605535,91.9632934 682.824952,102.744597 C686.044369,113.525901 688.477613,121.761496 690.124756,127.451629 C691.172939,125.505004 692.221105,123.371236 693.269288,121.050261 C694.31747,118.729286 695.403071,115.921697 696.526124,112.62741 C697.649176,109.333122 698.847081,105.477367 700.119874,101.060027 C701.392666,96.6426872 702.852613,91.3644196 704.499756,85.225066 C706.596121,78.4867511 708.767323,71.2244539 711.013428,63.4379567 C712.810312,56.849382 714.794342,49.3250432 716.965577,40.8647145 C719.136812,32.4043857 721.19571,23.6072732 723.142335,14.4731129 C727.934025,12.5264886 731.827215,11.0665422 734.822022,10.0932301 C737.816829,9.11991793 740.137769,8.33379298 741.784913,7.73483165 C743.731537,7.13587032 745.154049,6.76152511 746.052491,6.61178478 C746.950933,6.76152511 747.849361,7.21073937 748.747803,7.95944103 C749.496505,8.70814269 750.394933,9.75630929 751.443116,11.1039723 C752.491298,12.4516353 753.614334,14.4730994 754.812256,17.1684254 L754.812256,27.2758473 L754.812256,43.3354176 C754.812256,49.399901 754.737387,55.9509423 754.587647,62.9887379 C754.437907,70.0265335 754.325603,77.1016581 754.250733,84.2143238 C754.175863,91.3269896 754.100994,98.2523761 754.026124,104.990691 C753.951253,111.729006 753.83895,117.718529 753.68921,122.959441 C753.389729,130.895679 753.352294,137.633892 753.576905,143.174285 C753.801515,148.714677 754.25073,153.319123 754.924561,156.987761 C755.598393,160.656399 756.496821,163.613727 757.619874,165.859832 C758.742926,168.105937 760.128003,169.902794 761.775147,171.250457 C761.325926,171.549937 760.464932,172.036586 759.192139,172.710418 C757.919346,173.384249 756.384531,174.05807 754.587647,174.731902 C752.790763,175.405733 750.919037,175.967251 748.972413,176.416472 C747.025788,176.865693 745.3038,177.0903 743.806397,177.0903 L743.806397,177.0903 Z M837.666505,119.365691 C837.367024,125.205564 836.356292,130.596135 834.634278,135.537566 C832.912265,140.478997 830.55389,144.783967 827.559083,148.452605 C824.564276,152.121243 821.007997,155.003701 816.890138,157.100066 C812.772279,159.196431 808.242702,160.319466 803.301271,160.469207 C798.958801,160.618947 794.878438,159.57078 791.06006,157.324675 C787.241681,155.07857 783.910009,151.934071 781.064942,147.891082 C778.219876,143.848093 776.086108,139.019039 774.663575,133.403777 C773.241042,127.788515 772.829262,121.686688 773.428224,115.098113 C773.877445,107.461356 775.299957,100.910315 777.695802,95.4447926 C780.091647,89.9792705 782.637195,85.4496934 785.332521,81.8559254 C788.027847,78.2621574 790.53596,75.6043064 792.856935,73.8822926 C795.17791,72.1602788 796.637856,71.1495467 797.236817,70.850066 C798.285,70.400845 799.258297,70.2885415 800.156739,70.513152 C801.055181,70.7377625 802.028479,70.9998041 803.076661,71.2992848 C803.376142,71.4490251 803.675618,71.8233703 803.975099,72.4223317 C804.57406,73.470514 804.948405,75.4171091 805.098146,78.2621754 C805.846847,76.6150318 806.820145,75.267389 808.018067,74.2192067 C809.21599,73.1710243 810.413895,72.4223339 811.611817,71.9731129 C813.109221,71.3741516 814.606602,70.9998064 816.104005,70.850066 C817.152187,70.7003257 818.986479,71.5238852 821.606935,73.3207692 C824.22739,75.1176531 826.772938,77.9626768 829.243653,81.8559254 C831.714369,85.749174 833.848137,90.8028344 835.645021,97.0170582 C837.441905,103.231282 838.115726,110.680752 837.666505,119.365691 L837.666505,119.365691 Z M822.393067,116.670379 C822.542808,113.076611 822.430504,109.445462 822.056153,105.776824 C821.681803,102.108186 821.08285,98.7390788 820.259278,95.669402 C819.435707,92.5997252 818.424975,90.1290467 817.227052,88.2572926 C816.029129,86.3855384 814.831225,85.4496754 813.633302,85.4496754 C812.285639,85.7491561 810.788258,86.4229775 809.141114,87.4711598 C807.793451,88.3696018 806.296071,89.7921136 804.648927,91.7387379 C803.001783,93.6853622 801.429533,96.4555168 799.93213,100.049285 C799.78239,99.6000638 799.632652,98.7765043 799.482911,97.5785817 C799.333171,96.5303993 799.220867,95.145322 799.145997,93.4233082 C799.071127,91.7012944 799.183431,89.3429195 799.482911,86.3481129 C797.386547,88.8936985 795.776862,91.8884603 794.65381,95.3324879 C793.530757,98.7765155 792.669763,102.070753 792.070802,105.2153 C791.471841,108.958809 791.022626,112.702261 790.723146,116.445769 C790.573405,120.488758 790.760578,124.456817 791.284669,128.350066 C791.80876,132.243315 792.707189,135.687291 793.979982,138.682097 C795.252774,141.676904 796.78759,144.072713 798.584474,145.869597 C800.381358,147.666481 802.55256,148.490041 805.098146,148.3403 C807.643731,148.19056 809.889803,147.142393 811.836427,145.195769 C813.783051,143.249145 815.505039,140.778466 817.002442,137.78366 C818.499846,134.788853 819.69775,131.419746 820.596192,127.676238 C821.494634,123.93273 822.093587,120.264146 822.393067,116.670379 L822.393067,116.670379 Z M873.128175,151.93405 C872.978435,152.832492 872.19231,153.768355 870.769777,154.741668 C869.347244,155.71498 867.700125,156.575974 865.828371,157.324675 C863.956617,158.073377 862.197194,158.560026 860.55005,158.784636 C858.902907,159.009247 857.779871,158.822074 857.18091,158.223113 C856.581948,157.624152 855.608651,156.501116 854.260988,154.853972 C852.913325,153.206829 852.089765,150.511543 851.790285,146.768035 C851.490804,142.874786 851.341066,137.970864 851.341066,132.056121 C851.341066,126.141378 851.266197,119.590336 851.116457,112.4028 L851.116457,103.418425 C851.116457,100.723099 851.079022,97.5785996 851.004152,93.9848317 C850.929282,90.3910637 850.816978,86.6476115 850.667238,82.7543629 C852.014901,82.0056612 853.399978,81.2944053 854.822511,80.6205738 C856.245045,79.9467423 857.555253,79.3852245 858.753175,78.9360035 C860.100838,78.3370422 861.373612,77.8878279 862.571535,77.5883473 C865.716082,76.6899053 868.111891,76.165822 869.759035,76.0160817 C871.406178,75.8663413 872.379476,76.3904246 872.678957,77.5883473 C872.828697,78.4867893 872.753828,80.6579915 872.454347,84.1020192 C872.154867,87.0968258 871.780521,91.6264029 871.3313,97.6908863 C870.882079,103.75537 870.133389,112.178137 869.085207,122.959441 C871.031831,118.16775 872.641515,114.049953 873.914308,110.605925 C875.187101,107.161898 876.272702,104.391743 877.171144,102.295379 C878.069586,99.7497929 878.893146,97.7283287 879.641847,96.2309254 C880.390549,94.2843011 881.363847,92.1130988 882.561769,89.7172535 C883.759692,87.3214082 884.995031,85.0753369 886.267824,82.9789723 C887.540617,80.8826076 888.738521,79.0108816 889.861574,77.3637379 C890.984626,75.7165943 891.84562,74.7432967 892.444582,74.443816 C892.893803,74.1443354 894.241445,74.1443354 896.48755,74.443816 C898.733655,74.7432967 901.129465,75.4545526 903.67505,76.5776051 C906.220636,77.7006576 908.691315,79.2729075 911.08716,81.294402 C913.483005,83.3158964 915.055255,85.7491403 915.803957,88.5942067 C916.702399,91.888494 917.039309,96.2308984 916.814699,101.62155 C916.590088,107.012202 916.215743,112.552512 915.691652,118.242644 C915.167561,123.932777 914.755781,129.323348 914.4563,134.414519 C914.15682,139.50569 914.456296,143.398881 915.354738,146.094207 C915.654219,147.59161 916.103433,148.939253 916.702394,150.137175 C917.001875,151.335098 917.413655,152.420699 917.937746,153.394011 C918.461837,154.367323 919.023355,155.078579 919.622316,155.5278 C916.028548,157.174944 913.108655,158.372849 910.86255,159.12155 C908.616445,159.870252 906.894457,160.394335 905.696535,160.693816 C904.199131,161.143037 903.150965,161.292775 902.552004,161.143035 C901.204341,160.693814 900.04387,159.570778 899.070558,157.773894 C898.097246,155.97701 897.236252,153.131987 896.48755,149.238738 C896.18807,148.040815 896.075766,146.056786 896.150636,143.286589 C896.225507,140.516393 896.412679,137.371894 896.71216,133.852996 C897.01164,130.334098 897.348551,126.665515 897.722902,122.847136 C898.097253,119.028758 898.396729,115.435044 898.62134,112.065886 C898.84595,108.696729 899.033123,105.776836 899.182863,103.306121 C899.332603,100.835405 899.332603,99.1508518 899.182863,98.2524098 C898.434161,95.5570838 897.385995,93.6479232 896.038332,92.5248707 C894.690669,91.4018182 893.642502,91.2895147 892.8938,92.1879567 C890.947176,94.4340616 888.888277,98.0652102 886.717043,103.081511 C884.545808,108.097812 882.486909,113.563253 880.540285,119.477996 C878.593661,125.392739 876.946542,131.269959 875.598879,137.109832 C874.251216,142.949705 873.427656,147.891061 873.128175,151.93405 L873.128175,151.93405 Z M968.11133,115.322722 C971.405618,116.520645 974.550117,117.643681 977.544924,118.691863 C980.539731,119.740045 983.160147,121.012819 985.406252,122.510222 C987.652357,124.007626 989.449214,125.767048 990.796877,127.788543 C992.14454,129.810037 992.818362,132.31815 992.818362,135.312957 C992.818362,138.906725 992.032237,142.275832 990.459963,145.420379 C988.88769,148.564926 986.604184,151.33508 983.609377,153.730925 C980.614571,156.126771 976.983422,158.035931 972.715822,159.458464 C968.448223,160.880998 963.694039,161.592254 958.453127,161.592254 C952.613254,161.592254 947.896504,161.030736 944.302737,159.907683 C940.708969,158.784631 937.938814,157.474422 935.99219,155.977019 C934.045565,154.479616 932.772792,152.982235 932.17383,151.484832 C931.574869,149.987428 931.275393,148.789524 931.275393,147.891082 C931.275393,146.094198 931.649738,144.110168 932.39844,141.938933 C933.147141,139.767698 934.569653,137.409324 936.666018,134.863738 C937.56446,133.815556 938.537757,132.842258 939.58594,131.943816 C941.682304,130.146932 943.778638,129.023896 945.875002,128.574675 C945.575521,132.018703 945.987301,134.826292 947.110354,136.997527 C948.233406,139.168762 949.730787,140.853315 951.602541,142.051238 C953.474295,143.249161 955.570629,144.07272 957.891604,144.521941 C960.212579,144.971162 962.421216,145.195769 964.51758,145.195769 C966.613945,145.195769 968.747713,144.896293 970.918947,144.297332 C973.090182,143.69837 975.074212,142.912245 976.871096,141.938933 C978.66798,140.965621 980.127926,139.842585 981.250979,138.569793 C982.374031,137.297 982.935549,135.911922 982.935549,134.414519 C982.935549,132.767376 982.261728,131.419733 980.914065,130.37155 C979.566402,129.323368 977.881848,128.462374 975.860354,127.788543 C973.838859,127.114711 971.667657,126.590628 969.346682,126.216277 C967.025707,125.841926 964.81707,125.430146 962.720705,124.980925 C960.624341,124.531704 957.816752,123.895318 954.297854,123.071746 C950.778956,122.248174 947.33498,120.937966 943.965822,119.141082 C940.596665,117.344198 937.676772,114.948388 935.206057,111.953582 C932.735341,108.958775 931.500002,104.990716 931.500002,100.049285 C931.500002,94.3591522 932.959948,89.3803608 935.879885,85.1127613 C938.799821,80.8451619 942.393536,77.2514478 946.661135,74.3315113 C950.928734,71.4115749 955.458312,69.2029381 960.250002,67.7055348 C965.041693,66.2081315 969.309228,65.459441 973.052737,65.459441 C974.999361,65.459441 977.095694,65.7214827 979.341799,66.2455738 C981.587904,66.769665 983.684237,67.6680935 985.630862,68.9408863 C987.577486,70.2136792 989.18717,71.8982326 990.459963,73.9945973 C991.732756,76.0909619 992.369143,78.7862475 992.369143,82.0805348 C992.369143,85.3748221 992.107101,88.0326731 991.58301,90.0541676 C991.058919,92.0756621 990.310228,93.647912 989.336916,94.7709645 C988.363604,95.894017 987.203134,96.6052729 985.855471,96.9047535 C984.507808,97.2042342 982.935558,97.3539723 981.138674,97.3539723 C979.940751,97.3539723 978.817716,97.2042342 977.769533,96.9047535 C976.871091,96.6052729 975.897794,96.3057967 974.849612,96.006316 C973.801429,95.7068354 972.828132,95.1827521 971.92969,94.4340504 C973.427093,92.6371664 974.587563,90.9151784 975.411135,89.2680348 C976.234707,87.6208911 976.646487,85.599427 976.646487,83.2035817 C976.646487,81.107217 976.084969,79.2354909 974.961916,77.5883473 C973.838864,75.9412036 972.004572,75.1176442 969.458987,75.1176442 C966.763661,75.1176442 964.180679,75.6417275 961.709963,76.6899098 C959.239248,77.7380921 957.068045,79.1606039 955.196291,80.9574879 C953.324537,82.7543719 951.827156,84.8132706 950.704104,87.1342457 C949.581051,89.4552209 949.019533,91.9633338 949.019533,94.6586598 C949.019533,98.7016487 950.554349,102.51997 953.624026,106.113738 C956.693702,109.707506 961.522756,112.777137 968.11133,115.322722 L968.11133,115.322722 Z M1090.27222,58.0473317 C1088.62508,57.747851 1086.41644,57.4483748 1083.64624,57.1488942 C1080.87605,56.8494135 1078.06846,56.6248064 1075.22339,56.475066 C1071.9291,56.3253257 1068.41026,56.2504567 1064.66675,56.2504567 C1060.92324,55.950976 1056.24393,55.9135415 1050.62866,56.138152 C1045.0134,56.3627625 1039.13618,56.475066 1032.99683,56.475066 C1032.84709,60.3683147 1032.58505,64.3363739 1032.2107,68.3793629 C1031.83635,72.4223519 1031.49943,76.3904111 1031.19995,80.2836598 C1030.45125,87.4711957 1029.81487,94.8083619 1029.29077,102.295379 C1028.76668,109.782395 1028.50464,116.894954 1028.50464,123.633269 C1028.50464,130.371584 1028.91642,136.473411 1029.73999,141.938933 C1030.56356,147.404455 1032.09838,151.709425 1034.34449,154.853972 C1032.5476,156.201635 1030.60101,157.212367 1028.50464,157.886199 C1026.40828,158.56003 1024.53655,159.046679 1022.88941,159.34616 C1020.94278,159.795381 1018.99619,160.019988 1017.04956,160.019988 C1015.25268,160.019988 1013.7553,159.421036 1012.55738,158.223113 C1011.35945,157.02519 1010.68563,154.928857 1010.53589,151.93405 C1010.23641,146.842879 1010.19898,141.71435 1010.42359,136.548308 C1010.6482,131.382267 1010.94767,125.954261 1011.32202,120.264129 C1011.69638,114.573996 1012.10815,108.472169 1012.55738,101.958464 C1013.0066,95.44476 1013.45581,88.2947664 1013.90503,80.5082692 C1014.35425,72.4222912 1014.57886,64.5610417 1014.57886,56.9242848 C1008.88873,57.0740251 1004.09711,57.1488942 1000.20386,57.1488942 C996.310611,57.1488942 994.139409,57.0740251 993.690188,56.9242848 C993.240967,56.6248041 992.716884,55.9509827 992.117923,54.9028004 C991.518961,54.0043584 990.732836,52.6567156 989.759524,50.8598317 C988.786212,49.0629477 987.550873,46.5174002 986.053469,43.2231129 L995.374759,43.2231129 C998.743916,43.2231129 1001.85098,43.1482439 1004.69605,42.9985035 C1007.99033,42.8487632 1011.28457,42.6990251 1014.57886,42.5492848 C1014.42912,40.1534395 1014.35425,37.607892 1014.35425,34.912566 C1014.20451,32.8162014 1014.12964,30.4578265 1014.12964,27.8373707 C1014.12964,25.2169149 1014.05477,22.783671 1013.90503,20.537566 C1013.90503,19.639124 1014.99063,18.5535229 1017.16187,17.2807301 C1019.3331,16.0079373 1021.69148,14.8474671 1024.23706,13.7992848 C1026.78265,12.7511025 1029.14102,12.0772811 1031.31226,11.7778004 C1033.48349,11.4783197 1034.56909,12.002403 1034.56909,13.350066 C1034.56909,14.697729 1034.53166,17.9545324 1034.45679,23.1205738 C1034.38192,28.2866153 1034.19475,34.5381804 1033.89527,41.8754567 C1035.39267,41.8754567 1036.51571,41.8005876 1037.26441,41.6508473 C1045.20064,41.3513666 1051.60195,41.0144559 1056.46851,40.6401051 C1061.33507,40.2657543 1065.34056,40.2283197 1068.48511,40.5278004 C1071.62966,40.8272811 1074.39981,41.5759715 1076.79566,42.7738942 C1079.1915,43.9718168 1081.88679,45.9184119 1084.88159,48.6137379 C1085.92978,49.5121799 1086.82821,50.4854775 1087.57691,51.5336598 C1088.32561,52.4321018 1088.962,53.4428339 1089.48609,54.5658863 C1090.01018,55.6889388 1090.27222,56.849409 1090.27222,58.0473317 L1090.27222,58.0473317 Z M1082.60889,160.469207 C1072.12707,160.469207 1064.04121,156.950362 1058.35108,149.912566 C1052.66094,142.87477 1049.81592,133.665878 1049.81592,122.285613 C1049.81592,114.349375 1050.97639,106.899906 1053.29737,99.9369801 C1055.61834,92.9740547 1058.72541,86.9470967 1062.61866,81.8559254 C1066.5119,76.7647541 1071.04148,72.7592603 1076.20752,69.8393238 C1081.37356,66.9193874 1086.80157,65.459441 1092.4917,65.459441 C1098.03209,65.459441 1102.74884,67.4434707 1106.64209,71.4115895 C1110.53534,75.3797083 1112.48194,81.032321 1112.48194,88.3695973 C1112.48194,93.1612879 1111.43377,97.9154721 1109.33741,102.632293 C1107.24104,107.349113 1104.50832,111.541779 1101.13916,115.210418 C1097.77001,118.879056 1094.06399,121.836383 1090.021,124.082488 C1085.97801,126.328593 1082.08482,127.451629 1078.34131,127.451629 C1075.94547,127.451629 1073.924,127.152152 1072.27686,126.553191 C1070.62972,125.95423 1069.13233,125.055801 1067.78467,123.857879 C1068.23389,132.393077 1070.10562,138.345166 1073.39991,141.714324 C1076.69419,145.083481 1080.96173,146.768035 1086.20264,146.768035 C1089.79641,146.768035 1092.97834,146.019344 1095.74854,144.521941 C1098.51873,143.024538 1100.87711,141.30255 1102.82373,139.355925 C1104.77036,137.409301 1106.34261,135.425271 1107.54053,133.403777 C1108.73845,131.382282 1109.56201,129.847467 1110.01123,128.799285 C1110.46045,127.900843 1111.24658,127.451629 1112.36963,127.451629 C1113.49268,127.451629 1114.0542,128.350057 1114.0542,130.146941 C1114.0542,131.794085 1113.49268,134.302198 1112.36963,137.671355 C1111.24658,141.040513 1109.41229,144.409619 1106.8667,147.778777 C1104.32112,151.147934 1101.06431,154.105262 1097.09619,156.650847 C1093.12808,159.196433 1088.29902,160.469207 1082.60889,160.469207 L1082.60889,160.469207 Z M1092.94092,75.1176442 C1092.04248,75.1176442 1090.35793,76.0535072 1087.88721,77.9252613 C1085.41649,79.7970155 1082.79608,82.5297356 1080.02588,86.1235035 C1077.25569,89.7172715 1074.71014,94.0222415 1072.38916,99.0385426 C1070.06819,104.054844 1068.60824,109.707456 1068.00928,115.99655 C1076.9937,113.900186 1084.10626,110.605948 1089.34717,106.113738 C1094.58808,101.621528 1097.2085,95.0330522 1097.2085,86.3481129 C1097.2085,82.0056433 1096.68442,79.0483161 1095.63623,77.4760426 C1094.58805,75.9037691 1093.68962,75.1176442 1092.94092,75.1176442 L1092.94092,75.1176442 Z M1187.92408,89.0434254 C1187.92408,91.1397901 1187.36256,93.2735578 1186.23951,95.4447926 C1185.11645,97.6160274 1183.73138,99.6749261 1182.08423,101.62155 C1180.43709,103.568175 1178.6028,105.252728 1176.5813,106.675261 C1174.55981,108.097794 1172.65065,108.958788 1170.85376,109.258269 C1172.05169,104.616319 1172.42603,101.022605 1171.97681,98.4770192 C1171.52759,95.9314335 1170.7789,94.0597074 1169.73072,92.8617848 C1168.53279,91.5141218 1167.03541,90.7654314 1165.23853,90.615691 C1162.5432,90.615691 1159.96022,92.1505064 1157.48951,95.2201832 C1155.01879,98.28986 1152.88502,102.033312 1151.08814,106.450652 C1149.29125,110.867992 1147.86874,115.584741 1146.82056,120.601043 C1145.77238,125.617344 1145.24829,130.146921 1145.24829,134.18991 C1145.09855,137.034976 1145.17342,139.805131 1145.4729,142.500457 C1145.62264,144.746562 1145.88469,147.067502 1146.25904,149.463347 C1146.63339,151.859193 1147.19491,153.730919 1147.94361,155.078582 C1147.04517,155.827283 1145.58522,156.725712 1143.56372,157.773894 C1141.54223,158.822076 1139.4459,159.495898 1137.27466,159.795379 C1135.10343,160.094859 1133.15683,159.720514 1131.43482,158.672332 C1129.7128,157.624149 1128.77694,155.378078 1128.6272,151.93405 C1128.32772,148.639763 1128.14055,144.933745 1128.06568,140.815886 C1127.99081,136.698027 1127.99081,132.58023 1128.06568,128.462371 C1128.14055,124.344512 1128.25285,120.264149 1128.40259,116.22116 C1128.55233,112.178171 1128.77694,108.434719 1129.07642,104.990691 C1129.3759,98.4021164 1129.52564,93.3110215 1129.52564,89.7172535 C1129.52564,86.1234856 1129.45077,82.6795096 1129.30103,79.3852223 C1129.30103,78.7862609 1130.31176,77.925267 1132.33326,76.8022145 C1134.35475,75.679162 1136.60082,74.6684299 1139.07154,73.7699879 C1141.54225,72.8715459 1143.82576,72.3474626 1145.92212,72.1977223 C1148.01849,72.0479819 1149.06665,72.4971962 1149.06665,73.5453785 C1149.06665,75.1925222 1148.87948,78.4493255 1148.50513,83.3158863 C1148.13078,88.1824471 1147.64413,93.2361075 1147.04517,98.4770192 C1148.09335,95.6319528 1149.47843,92.5623221 1151.20044,89.2680348 C1152.92246,85.9737475 1154.90649,82.9041167 1157.15259,80.0590504 C1159.3987,77.2139841 1161.94424,74.8556092 1164.78931,72.9838551 C1167.63438,71.1121009 1170.77888,70.1762379 1174.2229,70.1762379 C1176.91823,70.1762379 1179.12687,70.9997974 1180.84888,72.646941 C1182.57089,74.2940847 1183.95597,76.1658108 1185.00415,78.2621754 C1186.05234,80.3585401 1186.80103,82.4548733 1187.25025,84.5512379 C1187.69947,86.6476026 1187.92408,88.1449834 1187.92408,89.0434254 L1187.92408,89.0434254 Z" id="Reliable-Monster" fill="#333333"></path>
            <path d="M487.091491,219.326643 C498.026647,145.008549 536.720493,127 578.591519,127 C620.462545,127 679.58637,138.743075 674.717524,218.86236 C669.848678,298.981645 663.621391,522.972355 663.621391,522.972355 L651.392769,524.590311 C651.392769,524.590311 660.925122,451.334809 651.392768,447.260987 C620.186251,433.924323 528.468763,431.649678 507.219768,455.391994 C488.989612,475.761245 499.855765,541.701199 499.855765,541.701199 L486.238594,545 C486.238594,545 476.156336,293.644736 487.091491,219.326643 Z" id="Path-1" fill="#00AFF3"></path>
            <path d="M541,252.542969 C551,250 550.927734,247.220245 553.927734,232.936295 C556.927734,218.652344 546.522847,213 541,213 C535.477153,213 531,217.616562 531,230.042969 C531,242.469376 531,255.085938 541,252.542969 Z" id="Oval-1" fill="#333333"></path>
            <path d="M614.916928,250.950435 C606.49693,247.15437 606.992711,244.715174 606.568384,231.657175 C606.144058,218.599176 616.194829,215.233787 621.063368,216.092242 C625.931907,216.950697 629.161053,221.716236 627.22953,232.670448 C625.298007,243.624661 623.336927,254.746501 614.916928,250.950435 Z" id="Oval-1" fill="#333333"></path>
            <path d="M536.102539,221.356088 C537.462158,217.623779 539.205078,215 539.205078,215 C539.205078,215 533,217.226562 533,226.49707 C533,230.997349 534.74292,225.088397 536.102539,221.356088 Z" id="Path-2" fill="#FFFFFF"></path>
            <path d="M539.923114,217.182157 C540.633383,215.847227 540.947528,214.280302 540.947528,214.280302 C540.947528,214.280302 538.553176,216.84543 538.06203,220.340117 C537.823608,222.036579 539.212845,218.517087 539.923114,217.182157 Z" id="Path-2" fill="#FFFFFF"></path>
            <path d="M611.91949,223.299859 C613.76088,220.112516 615.773691,217.998504 615.773691,217.998504 C615.773691,217.998504 609.752604,219.031976 608.26082,227.492302 C607.536648,231.599286 610.0781,226.487203 611.91949,223.299859 Z" id="Path-2" fill="#FFFFFF"></path>
            <path id="Path-5" stroke="#979797" d=""></path>
            <path id="Path-6" stroke="#979797" d=""></path>
            <path d="M605.757583,309.863194 C615.841567,312.996007 589.320083,374.328037 571.779067,362.439366 C554.289153,350.585329 552.789131,316.571672 560.236099,313.132726 C567.757583,309.863194 595.673599,306.730382 605.757583,309.863194 Z" id="Path-7" stroke="#333333" stroke-width="3" fill="#7F7F7F"></path>
            <path d="M595.523682,348.081787 L591.605225,346.644287 L587.167725,345.706787 L583.855225,345.206787 L580.917725,344.769287 L579.203125,345 L578.015625,346.125 L577.282227,346.1875 L576.05127,345.625 L574.61377,344.8125 L571.73877,344.125 L569.423584,344 L567.043457,344.4375 L564.8125,344.793457 L562.4375,345.543457 L560,346.733643 L560.6875,350.236328 C560.6875,350.236328 562.644043,353.798828 562.9375,354.236328 C563.230957,354.673828 566.293457,359.048828 566.293457,359.048828 L569.418457,362.798828 L572.986084,364.513184 L577.075684,364.219727 C577.075684,364.219727 579.931641,363.719727 580.181641,363.719727 C580.431641,363.719727 583.931641,361.532227 583.931641,361.532227 L586.662354,359.173828 L590.162354,355.298828 L592.768311,351.630371 L595.523682,348.081787 Z" id="Path-22" fill="#ACF000"></path>
            <path d="M558,315.997314 C558,315.997314 571.4375,328.8125 571.4375,311" id="Path-8" stroke="#333333" stroke-width="2" fill="#F2F2F2"></path>
            <path d="M577,310.065186 C577,310.065186 578.127686,320.8125 583.728271,319.709229 C589.328857,318.605957 590.641357,309.6875 590.141357,309" id="Path-9" stroke="#333333" stroke-width="2" fill="#F2F2F2"></path>
            <path d="M596.873283,309 C594.94812,310.045985 596.315666,318.885254 599.897453,319.200195 C603.47924,319.515137 607.373283,316.279785 607.998283,314.798828 C608.623283,313.317871 605.786369,309.5 605.786369,309.5" id="Path-10" stroke="#333333" stroke-width="2" fill="#F2F2F2"></path>
            <path d="M643.105469,443.736328 C643.105469,443.736328 646.603516,490.060547 642.5625,497.929688 L631,500.736328 C631,500.736328 640.111328,485.105469 633.5,441" id="Path-23" stroke="#333333" stroke-width="2" fill="#00AFF3"></path>
            <path d="M563,352.739987 C563,352.739987 565.668457,350.875485 567.168457,353.065671 C568.668457,355.255856 566.1875,357.32861 566.1875,357.32861" id="Path-11" stroke="#333333" stroke-width="2" fill="#F2F2F2"></path>
            <path d="M573,363.334612 C573,363.334612 573.696045,360.541155 576.0625,361.065569 C578.428955,361.589983 579.133057,363.744524 579.133057,363.744524" id="Path-12" stroke="#333333" stroke-width="2" fill="#F2F2F2"></path>
            <path d="M586.528421,358.495525 C586.528421,358.495525 585.115091,355.405437 586.911234,354.318523 C588.707376,353.231609 589.628275,355.275066 589.628275,355.275066" id="Path-13" stroke="#333333" stroke-width="2" fill="#F2F2F2"></path>
            <path id="Path-14" stroke="#333333" d=""></path>
            <path id="Path-15" stroke="#333333" d=""></path>
            <path d="M577.587655,349.999837 C577.587655,349.999837 576.265431,347.41039 577.587655,345.68221 C579.029319,343.797921 582.030639,342.601728 596.272958,347.126058" id="Path-16" stroke="#333333" stroke-width="2"></path>
            <path d="M577.9375,345.903367 C577.9375,345.903367 572.293457,341.416306 560,346.220994" id="Path-17" stroke="#333333" stroke-width="2"></path>
            <path d="M686.770182,298.433701 C692.742811,316.069026 713.146483,323.279555 737.5,319.538356 C766.5625,315.07376 783.65918,310.390165 790,287.038356 C796.34082,263.686547 765.677734,257.579123 737.5,254.538356 C709.322266,251.497588 685,261.205596 685,287.038356 C685,291.224026 685.615318,295.023744 686.770182,298.433701 Z" id="Oval-3" stroke="#333333" stroke-width="3" fill="#FFFFFF"></path>
            <path d="M605.757583,309.863194 C615.841567,312.996007 589.320083,374.328037 571.779067,362.439366 C554.289153,350.585329 552.789131,316.571672 560.236099,313.132726 C567.757583,309.863194 595.673599,306.730382 605.757583,309.863194 Z" id="Path-7-Copy" stroke="#333333" stroke-width="3"></path>
            <path id="Path-18" stroke="#333333" d=""></path>
            <path d="M685.279297,293 C685.279297,293 689.076969,310.93457 683.449042,314.978027 C681.723047,316.218091 681,317.399414 681,317.399414 C681,317.399414 709.227361,318.35248 717.074463,320.149414" id="Path-19" stroke="#333333" stroke-width="3" fill="#FFFFFF"></path>
            <path d="M514.20509,450.534924 C514.20509,450.534924 511.657738,498.770006 513.970228,511.929688 L526.4375,511.760755 C526.4375,511.760755 519.798125,496.439112 523.117812,445" id="Path-24" stroke="#333333" stroke-width="2" fill="#00AFF3"></path>
            <path d="M666.389141,443.926251 C667.242918,443.926251 666.48445,443.63449 666.389141,443.176251 C666.235078,442.435529 666.299996,441.184485 666.389141,439.464337 C666.754571,432.412943 666.844447,416.954344 667.599687,401.735336 C668.442384,384.753978 668.725567,363.844711 668.725567,363.844711 C668.725567,363.844711 668.902884,362.059228 668.725567,359.795882 C668.651329,358.848272 669.644217,355.826789 668.725567,356.007797 C646.915604,360.30516 633.996269,361.166488 637.599687,399.504867 C641.203105,437.843246 649.820598,443.926251 666.389141,443.926251 Z" id="Oval-4" fill="#FF2E8B"></path>
            <path d="M633.071289,171.141168 C646.269166,176.72912 658.690121,174.626895 663.071289,162.611383 C663.4677,161.524212 662.429598,161.561239 662.293457,161.094293 C661.975599,160.00408 661.686058,159.413566 661.010254,158.627496 C659.68419,157.085068 658.385343,153.689653 648.597168,146.002496 C637.189799,137.043704 637.09294,139.176205 635.211914,137.594293 C634.304045,136.830791 625.120117,133.403375 619.277832,131.974664 C603.530482,128.123703 603,129.114317 603,129.114317 C603,129.114317 610.42041,161.550836 633.071289,171.141168 Z" id="Oval-4" fill="#FF2E8B"></path>
            <path d="M491.692741,365.455798 C503.576431,350.825424 526.527603,358.068103 521.692741,321.955798 C516.857879,285.843493 506.748502,275.583239 491.692741,278.455798 C487.64006,279.229028 484.61968,278.104505 483.288346,281.335681 C481.945548,284.59468 482.840558,297.698442 482.727799,302.773668 C482.537031,311.360103 482.196062,316.594116 482.196062,327.629139 C482.196062,351.653526 479.809051,380.086172 491.692741,365.455798 Z" id="Oval-4" fill="#FF2E8B"></path>
            <path d="M518.163737,333.760742 C522.582015,333.760742 523.773112,305.334961 524.413737,297.506836 C525.054362,289.678711 509.821273,286 505.402995,286 C500.984717,286 508.413737,290.879419 508.413737,297.506836 C508.413737,304.134253 513.745459,333.760742 518.163737,333.760742 Z" id="Oval-4" fill="#FF2E8B"></path>
            <path d="M629.970552,432.407725 C634.614443,434.840586 636.989746,430.268631 636.989746,423.974864 C636.989746,417.681096 634.576357,412.272715 629.970552,409.615977 C625.364746,406.959239 624,413.377385 624,419.671153 C624,425.96492 625.32666,429.974864 629.970552,432.407725 Z" id="Oval-4" fill="#FF2E8B"></path>
            <path d="M487.091491,219.326643 C498.026647,145.008549 536.720493,127 578.591519,127 C620.462545,127 679.58637,138.743075 674.717524,218.86236 C669.848678,298.981645 663.621391,522.972355 663.621391,522.972355 L651.392769,524.590311 C651.392769,524.590311 660.925122,451.334809 651.392768,447.260987 C620.186251,433.924323 528.468763,431.649678 507.219768,455.391994 C488.989612,475.761245 499.855765,541.701199 499.855765,541.701199 L486.238594,545 C486.238594,545 476.156336,293.644736 487.091491,219.326643 Z" id="Path-1" stroke="#333333" stroke-width="4"></path>
            <path d="M708.519309,293.26722 C708.258891,292.459924 708.004987,291.743785 707.75759,291.118782 C707.510193,290.493779 707.295352,289.95993 707.113059,289.51722 C706.097429,289.855763 704.990669,290.090136 703.792747,290.220345 C703.792747,291.88702 703.831809,293.306276 703.909934,294.478157 C703.935976,295.207327 703.968528,295.825811 704.00759,296.333626 C704.046653,296.841441 704.085715,297.277634 704.124778,297.64222 C704.163841,298.006805 704.209413,298.338833 704.261497,298.638313 C704.31358,298.937794 704.391704,299.23076 704.495872,299.51722 C703.975036,299.907846 703.473739,300.194302 702.991965,300.376595 C702.510192,300.558887 702.087019,300.689094 701.722434,300.76722 C701.279724,300.871387 700.889103,300.897428 700.550559,300.845345 C700.42035,300.480759 700.303164,300.096649 700.198997,299.693001 C700.094829,299.289353 700.023216,298.742483 699.984153,298.052376 C699.94509,297.362268 699.925559,296.483371 699.925559,295.415657 C699.925559,294.347943 699.964621,292.98077 700.042747,291.314095 C700.068788,291.131802 700.081809,290.949512 700.081809,290.76722 C700.081809,290.584927 700.09483,290.402637 700.120872,290.220345 C699.886495,290.194303 699.645612,290.168261 699.398215,290.14222 C699.150818,290.116178 698.909935,290.090136 698.675559,290.064095 C698.519308,289.647426 698.415143,289.276336 698.363059,288.950813 C698.310976,288.625291 698.284934,288.358366 698.284934,288.150032 C698.284934,287.889614 698.310976,287.681283 698.363059,287.525032 C698.779728,287.603157 699.19639,287.64222 699.613059,287.64222 L700.198997,287.64222 C700.25108,286.548464 700.303163,285.435194 700.355247,284.302376 C700.40733,283.169558 700.452903,282.062798 700.491965,280.982063 C700.531028,279.901329 700.56358,278.872693 700.589622,277.896126 C700.615663,276.919558 700.641705,276.02764 700.667747,275.220345 C699.886493,275.74118 699.209416,276.418257 698.636497,277.251595 C698.063577,278.084932 697.672956,279.048464 697.464622,280.14222 C697.126078,280.090136 696.839623,279.927377 696.605247,279.653938 C696.37087,279.380499 696.17556,279.100554 696.019309,278.814095 C695.837017,278.475551 695.680768,278.097951 695.550559,277.681282 C695.42035,277.186488 695.42035,276.685191 695.550559,276.177376 C695.680768,275.669561 695.876079,275.187795 696.136497,274.732063 C696.396915,274.276332 696.696391,273.87269 697.034934,273.521126 C697.373478,273.169561 697.698995,272.889616 698.011497,272.681282 C698.558374,272.342739 699.124775,272.036752 699.710715,271.763313 C700.296656,271.489874 700.954201,271.262012 701.683372,271.07972 C701.969831,270.79326 702.288839,270.532846 702.640403,270.29847 C702.991967,270.064093 703.323995,269.920866 703.636497,269.868782 C704.079207,269.764615 704.326601,270.03805 704.378684,270.689095 C704.61306,270.663053 704.860454,270.643522 705.120872,270.630501 C705.38129,270.61748 705.654724,270.61097 705.941184,270.61097 C706.930772,270.61097 707.959408,270.767218 709.027122,271.07972 C710.094835,271.392221 711.077898,271.893518 711.97634,272.583626 C712.874782,273.273733 713.610452,274.172162 714.183372,275.278938 C714.756291,276.385715 715.042747,277.733357 715.042747,279.321907 C715.042747,281.118791 714.619574,282.77242 713.773215,284.282845 C712.926857,285.793269 711.722442,287.043256 710.159934,288.032845 C710.342227,288.501597 710.576599,289.087528 710.863059,289.790657 C711.149519,290.493786 711.435974,291.288048 711.722434,292.17347 C712.139103,293.267225 712.588317,294.28935 713.07009,295.239876 C713.551864,296.190401 714.053161,297.017216 714.573997,297.720345 C715.094833,298.423473 715.641702,298.989874 716.214622,299.419563 C716.787541,299.849253 717.360452,300.103157 717.933372,300.181282 C717.594828,300.702118 717.204207,301.066698 716.761497,301.275032 C716.318786,301.483366 715.876082,301.613573 715.433372,301.665657 C714.938578,301.743782 714.417749,301.743782 713.870872,301.665657 C713.11566,301.509406 712.464624,301.144827 711.917747,300.571907 C711.370869,299.998987 710.895613,299.30889 710.491965,298.501595 C710.088318,297.694299 709.723738,296.828422 709.398215,295.903938 C709.072693,294.979454 708.779727,294.100557 708.519309,293.26722 L708.519309,293.26722 Z M703.988059,276.626595 C703.988059,277.199514 703.975038,277.889611 703.948997,278.696907 C703.922955,279.504203 703.903424,280.37659 703.890403,281.314095 C703.877382,282.251599 703.857851,283.234662 703.831809,284.263313 C703.805767,285.291964 703.792747,286.314089 703.792747,287.32972 C704.495875,287.225552 705.270607,287.056283 706.116965,286.821907 C706.963324,286.587531 707.751076,286.19691 708.480247,285.650032 C709.209417,285.103154 709.82139,284.373995 710.316184,283.462532 C710.810978,282.551069 711.058372,281.379206 711.058372,279.946907 C711.058372,278.853152 710.869571,277.922171 710.491965,277.153938 C710.114359,276.385705 709.626083,275.760711 709.027122,275.278938 C708.42816,274.797165 707.770615,274.445606 707.054465,274.224251 C706.338316,274.002895 705.628688,273.89222 704.925559,273.89222 L704.534934,273.89222 C704.404725,273.89222 704.261497,273.90524 704.105247,273.931282 C704.027121,274.76462 703.988059,275.663048 703.988059,276.626595 L703.988059,276.626595 Z M728.475619,295.29847 C728.527702,295.480762 728.605826,295.650031 728.709994,295.806282 C728.788119,295.936491 728.898795,296.060188 729.042025,296.177376 C729.185255,296.294564 729.361034,296.366178 729.569369,296.39222 C729.387076,296.756805 729.204786,297.004198 729.022494,297.134407 C728.918326,297.212532 728.827182,297.264615 728.749056,297.290657 C728.51468,297.368782 728.163121,297.407845 727.694369,297.407845 C727.225616,297.407845 726.769892,297.264617 726.327181,296.978157 C726.17093,296.847948 726.027703,296.652637 725.897494,296.39222 C725.767285,296.183885 725.656609,295.890919 725.565462,295.513313 C725.474316,295.135707 725.402702,294.647431 725.350619,294.04847 C724.986034,294.829723 724.575881,295.448207 724.12015,295.903938 C723.664418,296.35967 723.215204,296.691698 722.772494,296.900032 C722.2777,297.186492 721.769892,297.355761 721.249056,297.407845 C720.598011,297.459928 719.979528,297.349252 719.393587,297.075813 C718.807647,296.802374 718.31286,296.385712 717.909212,295.825813 C717.505565,295.265915 717.199578,294.582328 716.991244,293.775032 C716.782909,292.967736 716.717806,292.056287 716.795931,291.040657 C716.874057,289.972943 717.082388,289.022432 717.420931,288.189095 C717.759475,287.355757 718.163116,286.613577 718.631869,285.962532 C719.100621,285.311487 719.595408,284.758107 720.116244,284.302376 C720.63708,283.846644 721.138377,283.469044 721.62015,283.169563 C722.101923,282.870083 722.518586,282.648731 722.87015,282.505501 C723.221714,282.362271 723.449576,282.277636 723.553744,282.251595 C723.840203,282.173469 724.087597,282.147428 724.295931,282.17347 C724.504266,282.199511 724.686555,282.316698 724.842806,282.525032 C724.89489,282.603157 724.959993,282.694302 725.038119,282.79847 C725.090202,282.902637 725.155306,283.039354 725.233431,283.208626 C725.311557,283.377897 725.37666,283.566698 725.428744,283.775032 C724.803741,284.061492 724.217809,284.380499 723.670931,284.732063 C723.124053,285.083628 722.622756,285.5068 722.167025,286.001595 C721.711293,286.496389 721.314162,287.095341 720.975619,287.79847 C720.637075,288.501598 720.376661,289.360964 720.194369,290.376595 C719.933951,291.652643 720.005565,292.681278 720.409212,293.462532 C720.81286,294.243786 721.36624,294.569303 722.069369,294.439095 C722.486037,294.308886 722.889679,294.061492 723.280306,293.696907 C723.61885,293.384405 723.976919,292.91566 724.354525,292.290657 C724.732131,291.665654 725.0902,290.806287 725.428744,289.712532 C725.558953,288.150024 725.669629,286.919568 725.760775,286.021126 C725.851921,285.122684 725.936556,284.439097 726.014681,283.970345 C726.118848,283.423467 726.196973,283.058887 726.249056,282.876595 C726.327182,282.746386 726.48343,282.622689 726.717806,282.505501 C726.952182,282.388313 727.212596,282.290657 727.499056,282.212532 C727.785516,282.134407 728.04593,282.088834 728.280306,282.075813 C728.514682,282.062792 728.670931,282.069303 728.749056,282.095345 C728.80114,282.121386 728.827181,282.440394 728.827181,283.052376 C728.827181,283.664358 728.80765,284.432579 728.768587,285.357063 C728.729525,286.281547 728.683952,287.284141 728.631869,288.364876 C728.579785,289.44561 728.534213,290.467736 728.49515,291.431282 C728.456087,292.394828 728.430046,293.234664 728.417025,293.950813 C728.404004,294.666963 728.423535,295.116177 728.475619,295.29847 L728.475619,295.29847 Z M749.095991,281.86097 C750.345997,281.86097 750.840784,282.655232 750.580366,284.243782 C750.476199,284.920869 750.293909,285.832318 750.033491,286.978157 C749.773073,288.123996 749.447555,289.31539 749.056928,290.552376 C748.666301,291.789361 748.217087,292.993776 747.709272,294.165657 C747.201457,295.337538 746.648077,296.30107 746.049116,297.056282 C745.502238,297.3167 745.033493,297.472948 744.642866,297.525032 C744.434531,297.577116 744.252241,297.590136 744.095991,297.564095 C743.887656,297.564095 743.692346,297.538053 743.510053,297.48597 C743.327761,297.433886 743.151981,297.32972 742.982709,297.17347 C742.813438,297.017219 742.657189,296.782846 742.513959,296.470345 C742.37073,296.157843 742.260054,295.72816 742.181928,295.181282 C742.051719,294.373986 741.862919,293.501599 741.615522,292.564095 C741.368125,291.62659 741.114221,290.767223 740.853803,289.98597 C740.619427,290.689098 740.378544,291.398726 740.131147,292.114876 C739.88375,292.831025 739.636357,293.501591 739.388959,294.126595 C739.141562,294.751598 738.900679,295.311488 738.666303,295.806282 C738.431927,296.301076 738.210575,296.678677 738.002241,296.939095 C737.142861,297.329721 736.517868,297.564094 736.127241,297.64222 C735.892865,297.720345 735.697554,297.746386 735.541303,297.720345 C735.020467,297.043258 734.564743,296.320609 734.174116,295.552376 C733.783489,294.784143 733.470992,294.061494 733.236616,293.384407 C732.950156,292.603153 732.715783,291.821911 732.533491,291.040657 C732.325156,290.051069 732.181929,289.100557 732.103803,288.189095 C732.025678,287.277632 731.954064,286.437796 731.888959,285.669563 C731.823855,284.90133 731.745731,284.230764 731.654584,283.657845 C731.563438,283.084925 731.400679,282.6292 731.166303,282.290657 C731.400679,282.108364 731.674114,281.932585 731.986616,281.763313 C732.299117,281.594042 732.624635,281.489876 732.963178,281.450813 C733.301722,281.411751 733.64677,281.437792 733.998334,281.528938 C734.349899,281.620085 734.694947,281.821905 735.033491,282.134407 C735.085574,282.811494 735.124636,283.469039 735.150678,284.107063 C735.17672,284.745087 735.202761,285.324509 735.228803,285.845345 C735.254845,286.444306 735.267866,287.004196 735.267866,287.525032 C735.293908,288.176077 735.326459,288.866174 735.365522,289.595345 C735.404585,290.324515 735.463178,291.040653 735.541303,291.743782 C735.619429,292.446911 735.743125,293.104456 735.912397,293.716438 C736.081669,294.32842 736.309531,294.842738 736.595991,295.259407 C736.88245,294.790655 737.286092,294.015923 737.806928,292.935188 C738.327764,291.854454 738.757447,290.49379 739.095991,288.853157 C739.2262,288.17607 739.310834,287.498994 739.349897,286.821907 C739.38896,286.14482 739.38896,285.526337 739.349897,284.966438 C739.310834,284.40654 739.258751,283.911753 739.193647,283.482063 C739.128542,283.052374 739.056929,282.746387 738.978803,282.564095 C739.187138,282.433886 739.40849,282.33623 739.642866,282.271126 C739.877242,282.206021 740.098594,282.147428 740.306928,282.095345 C740.541304,282.043261 740.762656,282.01722 740.970991,282.01722 C741.648077,281.965136 742.110312,282.088833 742.357709,282.388313 C742.605107,282.687794 742.6637,283.241174 742.533491,284.04847 C742.507449,284.256804 742.442345,284.575811 742.338178,285.005501 C742.234011,285.43519 742.103804,285.949508 741.947553,286.54847 C742.103804,287.069305 742.286094,287.726851 742.494428,288.521126 C742.702763,289.315401 742.911094,290.090132 743.119428,290.845345 C743.275679,291.574515 743.431927,292.316695 743.588178,293.071907 C743.744429,293.827119 743.874636,294.491175 743.978803,295.064095 C744.109012,295.038053 744.239219,294.98597 744.369428,294.907845 C744.499637,294.829719 744.616824,294.686491 744.720991,294.478157 C744.825158,294.295864 744.968386,293.996388 745.150678,293.57972 C745.332971,293.163051 745.528281,292.655243 745.736616,292.056282 C745.94495,291.457321 746.146771,290.793265 746.342084,290.064095 C746.537398,289.334924 746.713177,288.553682 746.869428,287.720345 C747.155888,286.05367 747.266564,284.842744 747.201459,284.087532 C747.136355,283.33232 746.986617,282.824512 746.752241,282.564095 C747.012659,282.381802 747.279583,282.245085 747.553022,282.153938 C747.826461,282.062792 748.080365,281.991178 748.314741,281.939095 C748.6012,281.887011 748.861615,281.86097 749.095991,281.86097 L749.095991,281.86097 Z M763.075738,285.29847 C763.075738,285.663055 762.978082,286.034145 762.782769,286.411751 C762.587456,286.789357 762.346573,287.147426 762.060113,287.48597 C761.773653,287.824513 761.454646,288.117479 761.103082,288.364876 C760.751517,288.612273 760.419489,288.762011 760.106988,288.814095 C760.315322,288.006799 760.380426,287.381805 760.3023,286.939095 C760.224175,286.496384 760.093968,286.170866 759.911675,285.962532 C759.703341,285.728156 759.442927,285.597949 759.130425,285.571907 C758.661673,285.571907 758.212459,285.838831 757.782769,286.372688 C757.353079,286.906545 756.981989,287.55758 756.669488,288.325813 C756.356986,289.094046 756.109593,289.914351 755.9273,290.786751 C755.745008,291.659151 755.653863,292.446903 755.653863,293.150032 C755.627821,293.644826 755.640842,294.126592 755.692925,294.595345 C755.718967,294.985971 755.76454,295.389613 755.829644,295.806282 C755.894748,296.222951 755.992404,296.548468 756.122613,296.782845 C755.966362,296.913053 755.712458,297.069302 755.360894,297.251595 C755.00933,297.433887 754.64475,297.551073 754.267144,297.603157 C753.889538,297.655241 753.551,297.590137 753.251519,297.407845 C752.952038,297.225552 752.78928,296.834931 752.763238,296.23597 C752.711154,295.66305 752.678602,295.018525 752.665582,294.302376 C752.652561,293.586226 752.652561,292.870088 752.665582,292.153938 C752.678602,291.437789 752.698133,290.728161 752.724175,290.025032 C752.750217,289.321903 752.789279,288.670868 752.841363,288.071907 C752.893446,286.926068 752.919488,286.04066 752.919488,285.415657 C752.919488,284.790654 752.906467,284.191702 752.880425,283.618782 C752.880425,283.514615 753.056205,283.364877 753.407769,283.169563 C753.759333,282.97425 754.149954,282.79847 754.579644,282.64222 C755.009334,282.485969 755.406465,282.394824 755.77105,282.368782 C756.135635,282.34274 756.317925,282.420864 756.317925,282.603157 C756.317925,282.889617 756.285373,283.456017 756.220269,284.302376 C756.155165,285.148734 756.07053,286.027632 755.966363,286.939095 C756.148655,286.4443 756.389538,285.910452 756.689019,285.337532 C756.9885,284.764612 757.333548,284.230764 757.724175,283.73597 C758.114802,283.241175 758.557506,282.831023 759.0523,282.505501 C759.547094,282.179978 760.093964,282.01722 760.692925,282.01722 C761.161678,282.01722 761.545788,282.160447 761.845269,282.446907 C762.14475,282.733367 762.385633,283.058884 762.567925,283.42347 C762.750218,283.788055 762.880425,284.152634 762.95855,284.51722 C763.036676,284.881805 763.075738,285.142219 763.075738,285.29847 L763.075738,285.29847 Z M765.25861,294.20472 C765.076317,292.772421 764.926579,291.45733 764.809391,290.259407 C764.692203,289.061484 764.607568,288.04587 764.555485,287.212532 C764.477359,286.222944 764.425277,285.337536 764.399235,284.556282 C764.321109,283.592736 764.256006,282.616183 764.203922,281.626595 C764.151839,280.637006 764.119287,279.686495 764.106266,278.775032 C764.093245,277.863569 764.093245,276.997692 764.106266,276.177376 C764.119287,275.357059 764.138818,274.63441 764.16486,274.009407 C764.190902,273.384404 764.431785,272.883107 764.887516,272.505501 C765.343247,272.127895 765.838034,271.85446 766.371891,271.685188 C766.905748,271.515917 767.400535,271.437792 767.856266,271.450813 C768.311997,271.463834 768.53986,271.548469 768.53986,271.70472 C768.565902,272.329723 768.572412,273.143517 768.559391,274.146126 C768.54637,275.148735 768.526839,276.131798 768.500797,277.095345 C768.474755,278.215142 768.435693,279.387005 768.38361,280.61097 C768.331526,281.887018 768.253402,283.254191 768.149235,284.712532 C768.071109,285.962538 767.979964,287.407836 767.875797,289.04847 C767.77163,290.689103 767.641423,292.433877 767.485172,294.282845 C767.381005,294.413053 767.270329,294.510709 767.153141,294.575813 C767.035953,294.640918 766.925277,294.699511 766.82111,294.751595 C766.690901,294.803678 766.560694,294.82972 766.430485,294.82972 C766.274234,294.82972 766.131006,294.803678 766.000797,294.751595 C765.714338,294.647427 765.466944,294.465137 765.25861,294.20472 L765.25861,294.20472 Z M767.524235,296.001595 C768.019029,296.001595 768.435691,296.144822 768.774235,296.431282 C769.112778,296.717742 769.282047,297.121384 769.282047,297.64222 C769.282047,297.954721 769.216944,298.286749 769.086735,298.638313 C768.956526,298.989878 768.754705,299.315395 768.481266,299.614876 C768.207827,299.914356 767.862779,300.16175 767.44611,300.357063 C767.029441,300.552377 766.521634,300.650032 765.922672,300.650032 C765.401836,300.650032 765.004705,300.493784 764.731266,300.181282 C764.457827,299.86878 764.32111,299.478159 764.32111,299.009407 C764.32111,298.228153 764.627096,297.531545 765.239079,296.919563 C765.851061,296.307581 766.612772,296.001595 767.524235,296.001595 L767.524235,296.001595 Z" id="Rawr!" fill="#333333" transform="translate(732.660444, 285.785741) rotate(-7.000000) translate(-732.660444, -285.785741) "></path>
            <path d="M634,445 L643.146729,445 L636.8125,446.443604 L643.316528,446.949707 L636.448853,448.011353 L641.015625,448.977417 L636.448853,450.185303 L642.788208,451.825439 L636.015991,453.826782 L641.015625,455.223267" id="Path-25" stroke="#333333"></path>
            <path d="M522.354004,450 L514,450.806832 L520.248047,451.690186 L514.559814,452.687661 L520.633545,453.048584 L515.326416,454.727607 L521.109131,455.96167 L515.69873,457.559082 L521.109131,458.16748 L516.3125,460.121961" id="Path-26" stroke="#333333"></path>
            <path d="M530,209.362002 C530,209.362002 534.402344,204.688174 540.694336,206.362002" id="Path-27" stroke="#333333"></path>
            <path d="M619,207.968472 C619,207.968472 625.081268,205.908502 629.850953,210.340316" id="Path-27" stroke="#333333"></path>
        </g>
    </g>
</svg>