<?xml version="1.0" encoding="UTF-8" standalone="no"?>
<svg width="403px" height="58px" viewBox="0 0 403 58" version="1.1" xmlns="http://www.w3.org/2000/svg" xmlns:xlink="http://www.w3.org/1999/xlink">
    <!-- Generator: Sketch 3.6.1 (26313) - http://www.bohemiancoding.com/sketch -->
    <title>logo-2</title>
    <desc>Created with Sketch.</desc>
    <defs></defs>
    <g id="Welcome" stroke="none" stroke-width="1" fill="none" fill-rule="evenodd">
        <g id="Desktop-HD" transform="translate(-250.000000, -1740.000000)">
            <g id="Footer" transform="translate(0.000000, 1695.000000)">
                <g id="logo-2" transform="translate(250.000000, 46.000000)">
                    <path d="M22.20612,41.8619983 C21.7637054,40.4899661 21.3323576,39.2728586 20.9120637,38.21064 C20.4917698,37.1484214 20.1267832,36.2411235 19.817093,35.4887185 C18.091676,36.0640869 16.2114421,36.4624129 14.1763348,36.6837086 C14.1763348,39.5162915 14.242696,41.9283768 14.3754204,43.9200367 C14.4196619,45.1592917 14.4749629,46.2104296 14.5413251,47.0734824 C14.6076873,47.9365349 14.6740485,48.6778638 14.7404107,49.2974915 C14.8067729,49.9171191 14.8841942,50.4814141 14.9726772,50.9903939 C15.0611601,51.4993737 15.1938825,51.9972811 15.3708483,52.4841314 C14.4860191,53.148018 13.6343837,53.6348609 12.8159167,53.9446746 C11.9974497,54.2544883 11.2785367,54.4757807 10.6591562,54.608558 C9.90705137,54.7855943 9.2434394,54.8298527 8.6683004,54.7413347 C8.44709308,54.1217071 8.24800949,53.468895 8.07104365,52.7828788 C7.89407781,52.0968627 7.7724156,51.1674353 7.7060534,49.9945688 C7.63969121,48.8217027 7.60651063,47.32798 7.60651063,45.5133567 C7.60651063,43.6987331 7.67287182,41.3751646 7.8055962,38.5425817 C7.84983766,38.232768 7.87195807,37.9229588 7.87195807,37.6131451 C7.87195807,37.3033315 7.89407846,36.9935222 7.93831994,36.6837086 C7.54014678,36.6394493 7.1309194,36.5951908 6.7106255,36.5509318 C6.29033163,36.5066728 5.88110424,36.4624141 5.48293108,36.4181551 C5.21748231,35.7100094 5.0405191,35.0793265 4.9520362,34.5260877 C4.86355326,33.9728489 4.81931246,33.5191996 4.81931246,33.165127 C4.81931246,32.7225357 4.86355326,32.3684683 4.9520362,32.1029137 C5.65989958,32.235691 6.36775236,32.3020786 7.07561574,32.3020786 L8.07104365,32.3020786 C8.15952658,30.443196 8.24800816,28.5511475 8.33649109,26.6258762 C8.42497402,24.700605 8.50239541,22.8196211 8.5687576,20.9828681 C8.63511979,19.1461151 8.69042079,17.3979065 8.73466227,15.7381899 C8.77890372,14.0784733 8.82314452,12.5626216 8.86738598,11.1905892 C7.54014211,12.0757714 6.38988137,13.2264909 5.41656922,14.6427825 C4.44325706,16.0590739 3.77964508,17.6966364 3.42571341,19.555519 C2.85057439,19.4670007 2.36392561,19.1903855 1.96575246,18.7256648 C1.5675793,18.2609442 1.23577331,17.7851659 0.970324544,17.2983157 C0.660634313,16.7229473 0.395189523,16.0811998 0.173982215,15.3730541 C-0.0472250938,14.532131 -0.0472250938,13.6801559 0.173982215,12.8171033 C0.395189523,11.9540507 0.726995511,11.1352695 1.16941013,10.3607351 C1.61182475,9.58620067 2.12059392,8.90019475 2.69573292,8.30269677 C3.27087191,7.70519883 3.8238819,7.22942052 4.35477944,6.87534767 C5.28385015,6.29997926 6.24608749,5.77994253 7.24152038,5.31522188 C8.23695328,4.85050123 9.35403344,4.46323983 10.5927944,4.15342607 C11.0794504,3.66657587 11.6214002,3.22399142 12.2186599,2.82565944 C12.8159197,2.42732746 13.3799899,2.18390602 13.9108874,2.0953878 C14.6629923,1.91835136 15.0832798,2.38306503 15.1717627,3.48954276 C15.5699359,3.44528365 15.9902235,3.41208982 16.4326381,3.38996026 C16.8750527,3.3678307 17.3395811,3.35676609 17.8262372,3.35676609 C19.5074127,3.35676609 21.2549242,3.62231676 23.0688242,4.15342607 C24.8827241,4.68453538 26.5528142,5.53651043 28.0791447,6.70937682 C29.6054752,7.88224321 30.8552775,9.40915957 31.8285899,11.2901717 C32.801902,13.1711838 33.2885507,15.4615584 33.2885507,18.161364 C33.2885507,21.2152425 32.5696377,24.0256538 31.1317902,26.5926821 C29.6939429,29.1597104 27.6478059,31.2841158 24.9933181,32.965962 C25.3030084,33.762626 25.7011756,34.758441 26.1878317,35.953437 C26.6744877,37.1484326 27.1611365,38.4983153 27.6477926,40.0031249 C28.355656,41.8620075 29.1188097,43.5991515 29.9372769,45.214609 C30.7557439,46.8300664 31.6073792,48.2352723 32.4922086,49.4302682 C33.3770376,50.6252642 34.3060944,51.5878852 35.2794065,52.3181604 C36.2527189,53.0484358 37.2260162,53.4799556 38.1993285,53.6127329 C37.6241893,54.4979152 36.9605774,55.1175334 36.2084728,55.4716063 C35.4563678,55.825679 34.7042741,56.0469714 33.9521694,56.1354897 C33.1115815,56.268267 32.2267657,56.268267 31.297695,56.1354897 C30.0146925,55.8699351 28.9086726,55.2503166 27.9796019,54.2766163 C27.0505312,53.302916 26.2431366,52.130067 25.557394,50.7580347 C24.8716513,49.3860024 24.2522801,47.9144092 23.6992619,46.3432108 C23.1462436,44.7720123 22.6485346,43.2782899 22.20612,41.8619983 L22.20612,41.8619983 L22.20612,41.8619983 Z M14.5081442,13.5805691 C14.5081442,14.5542695 14.4860237,15.7271183 14.4417823,17.0991507 C14.3975408,18.4711831 14.3643602,19.953841 14.3422395,21.5471689 C14.3201188,23.1404968 14.2869382,24.8112531 14.2426967,26.5594879 C14.1984552,28.3077227 14.1763348,30.0448667 14.1763348,31.770972 C15.3708543,31.5939356 16.687018,31.3062556 18.1248656,30.9079236 C19.5627131,30.5095916 20.9009972,29.845715 22.1397581,28.9162737 C23.3785191,27.9868324 24.4181778,26.7475959 25.2587656,25.1985271 C26.0993534,23.6494583 26.519641,21.6578283 26.519641,19.2235773 C26.519641,17.3646947 26.1988952,15.7824553 25.557394,14.4768116 C24.9158928,13.1711679 24.0863778,12.1089652 23.0688242,11.2901717 C22.0512706,10.4713782 20.9341904,9.87388917 19.7175502,9.49768675 C18.50091,9.12148433 17.2953483,8.93338593 16.1008288,8.93338593 L15.4372102,8.93338593 C15.2160029,8.93338593 14.9726785,8.95551514 14.7072297,8.99977427 C14.5745053,10.4160657 14.5081442,11.9429821 14.5081442,13.5805691 L14.5081442,13.5805691 L14.5081442,13.5805691 Z M45.8230801,49.4302682 C42.7261779,49.4302682 40.3371747,48.3901948 38.6559993,46.3100165 C36.9748237,44.2298383 36.1342484,41.507944 36.1342484,38.1442518 C36.1342484,35.7985189 36.4771148,33.5966615 37.1628574,31.5386128 C37.8486,29.4805642 38.7665965,27.6991618 39.9168746,26.1943521 C41.0671525,24.6895424 42.4054366,23.505629 43.9317672,22.6425764 C45.4580975,21.7795238 47.0618265,21.3480039 48.7430022,21.3480039 C50.3799362,21.3480039 51.7735214,21.9344283 52.9237992,23.1072947 C54.0740773,24.2801611 54.6492077,25.9509174 54.6492077,28.1196137 C54.6492077,29.5359052 54.339522,30.9411108 53.7201417,32.3352729 C53.1007611,33.7294347 52.2933666,34.968671 51.2979338,36.0530194 C50.3025008,37.1373676 49.2075409,38.0114718 48.0130214,38.6753584 C46.8185023,39.3392451 45.6682413,39.6711835 44.5622048,39.6711835 C43.8543415,39.6711835 43.2570905,39.5826664 42.7704346,39.40563 C42.2837784,39.2285937 41.8413704,38.9630429 41.4431973,38.6089702 C41.5759216,41.1317392 42.1289316,42.8910124 43.102244,43.8868425 C44.075556,44.8826723 45.3364186,45.38058 46.8848699,45.38058 C47.946665,45.38058 48.8867819,45.1592876 49.7052492,44.7166966 C50.5237162,44.2741056 51.2205088,43.7651334 51.7956477,43.1897648 C52.3707866,42.6143965 52.835315,42.027972 53.1892468,41.4304742 C53.5431783,40.8329761 53.7865028,40.3793271 53.9192272,40.0695134 C54.0519516,39.8039588 54.2842158,39.6711835 54.6160266,39.6711835 C54.9478378,39.6711835 55.1137408,39.936734 55.1137408,40.4678434 C55.1137408,40.9546937 54.9478378,41.6960226 54.6160266,42.6918524 C54.2842158,43.6876825 53.7422659,44.6834973 52.9901613,45.6793274 C52.2380563,46.6751572 51.275819,47.5492617 50.1034203,48.3016664 C48.9310215,49.0540713 47.5042558,49.4302682 45.8230801,49.4302682 L45.8230801,49.4302682 L45.8230801,49.4302682 Z M48.8757257,24.2027022 C48.6102769,24.2027022 48.112568,24.4793174 47.3825838,25.0325563 C46.6525998,25.5857952 45.8783857,26.3935118 45.0599187,27.4557304 C44.2414517,28.517949 43.4893582,29.7903793 42.8036156,31.2730595 C42.1178727,32.7557397 41.686525,34.4264958 41.5095593,36.2853784 C44.164047,35.665751 46.2654849,34.6920652 47.8139359,33.3642919 C49.3623872,32.0365186 50.136601,30.0891471 50.136601,27.5221187 C50.136601,26.2386046 49.9817583,25.3645003 49.6720681,24.8997796 C49.362378,24.435059 49.0969331,24.2027022 48.8757257,24.2027022 L48.8757257,24.2027022 L48.8757257,24.2027022 Z M67.5819081,5.68035769 C67.4934254,7.27368562 67.3385824,9.11041107 67.1173753,11.1905892 C66.8961679,13.2707673 66.6639037,15.5058188 66.4205756,17.8958107 C66.1772475,20.2858026 65.9339232,22.7864047 65.6905952,25.3976921 C65.4472671,28.0089796 65.2371232,30.642357 65.0601575,33.2979037 C64.8831917,35.95345 64.8057702,38.1110493 64.8278909,39.770766 C64.8500116,41.4304825 64.9495535,42.7914296 65.1265192,43.8536482 C65.3034853,44.9158668 65.5468095,45.7567774 65.8565,46.3764047 C66.1661901,46.9960324 66.5643574,47.5935213 67.0510132,48.1688899 C66.4758743,48.5229626 65.9449848,48.7885134 65.4583286,48.9655498 C64.9716727,49.1425861 64.5513851,49.2753617 64.1974533,49.3638797 C63.7550387,49.496657 63.3568715,49.5630446 63.0029397,49.5630446 C62.3393178,49.5630446 61.7641874,49.242171 61.2775315,48.6004138 C60.7908754,47.958657 60.4037685,47.1288112 60.116199,46.1108516 C59.8286292,45.0928919 59.6074254,43.9532372 59.4525803,42.6918524 C59.2977352,41.430468 59.2203137,40.1801669 59.2203137,38.9409116 C59.2203137,37.6131383 59.2645545,36.0751575 59.3530375,34.3269227 C59.4415203,32.578688 59.5410622,30.7198332 59.6516659,28.7503029 C59.7622696,26.7807725 59.8839318,24.7227548 60.0166562,22.5761881 C60.1493806,20.4296213 60.2599825,18.2941513 60.3484653,16.1697141 C60.4369483,14.532127 60.5254298,13.0494691 60.6139129,11.7216959 C60.7023959,10.570959 60.768757,9.51982096 60.8129984,8.5682501 C60.8572398,7.61667927 60.8351194,7.05238409 60.7466367,6.87534767 C61.0120854,6.52127478 61.3438912,6.25572412 61.7420644,6.07868769 C62.1402375,5.90165123 62.5162844,5.74674667 62.8702162,5.61396938 C63.3126307,5.48119205 63.7550387,5.37054591 64.1974533,5.28202771 L65.4583286,5.28202771 C65.8122604,5.28202771 66.1883072,5.31522153 66.5864804,5.38161019 C66.9846536,5.44799885 67.3164594,5.54758036 67.5819081,5.68035769 L67.5819081,5.68035769 L67.5819081,5.68035769 Z M71.0912245,25.1985271 C71.0912245,24.9329725 71.4451509,24.6452926 72.1530142,24.3354788 C72.8608778,24.0256651 73.646152,23.771179 74.5088603,23.572013 C75.371569,23.372847 76.1679032,23.2622009 76.8978875,23.2400714 C77.6278715,23.2179418 77.992858,23.383911 77.992858,23.7379838 C77.992858,24.4018705 77.9486172,25.3423624 77.8601345,26.5594879 C77.7716515,27.7766134 77.6610495,29.0601083 77.5283251,30.4100111 C77.3956007,31.759914 77.2628784,33.1097964 77.130154,34.4596995 C76.9974297,35.8096023 76.9089478,36.949257 76.8647065,37.8786983 C76.7762234,38.8523989 76.6877419,39.9146016 76.5992592,41.0653382 C76.5107761,42.0390388 76.444415,43.1233707 76.4001733,44.3183666 C76.355932,45.5133626 76.355932,46.7304697 76.4001733,47.9697247 C76.4001733,48.1910203 76.1789695,48.4123124 75.7365549,48.6336081 C75.2941401,48.8549037 74.8074913,49.0208729 74.2765938,49.1315205 C73.7456962,49.2421683 73.236927,49.2974915 72.7502712,49.2974915 C72.263615,49.2974915 71.9981703,49.2089746 71.9539287,49.031938 C71.865446,48.8549017 71.7769641,48.5450924 71.6884814,48.1025014 C71.5999984,47.6599104 71.5115168,47.0292275 71.4230338,46.210434 C71.3345511,45.3916406 71.2681896,44.3294379 71.2239482,43.0237941 C71.1797069,41.7181504 71.2018273,40.1359111 71.2903103,38.2770285 C71.467276,34.6035224 71.4893964,31.7599173 71.356672,29.7461278 C71.2239477,27.7323384 71.1354661,26.2164866 71.0912245,25.1985271 L71.0912245,25.1985271 L71.0912245,25.1985271 Z M75.7365549,11.9872492 C76.621384,11.9872492 77.4619593,12.2527999 78.2583056,12.7839092 C79.0546519,13.3150185 79.4528191,14.0231536 79.4528191,14.9083358 C79.4528191,15.5722224 79.2869161,16.2139699 78.955105,16.8335974 C78.6232942,17.4532249 78.2140669,18.0064555 77.7274107,18.4933057 C77.2407545,18.9801559 76.6877445,19.3674172 76.0683643,19.6551015 C75.4489837,19.9427857 74.8738534,20.0866256 74.3429558,20.0866256 C73.6350922,20.0866256 73.0599619,19.9649149 72.6175474,19.7214898 C72.1751328,19.4780647 71.8322667,19.1903848 71.5889386,18.8584415 C71.3456105,18.5264982 71.1797075,18.161366 71.0912245,17.763034 C71.0027417,17.364702 70.958501,16.9885053 70.958501,16.6344324 C70.958501,16.1918413 71.0248621,15.6939338 71.1575865,15.1406949 C71.2903109,14.5874561 71.5336351,14.0784839 71.8875669,13.6137633 C72.2414987,13.1490427 72.7281472,12.7617813 73.3475278,12.4519675 C73.9669084,12.1421538 74.7632426,11.9872492 75.7365549,11.9872492 L75.7365549,11.9872492 L75.7365549,11.9872492 Z M74.0775082,18.161364 C74.342957,18.161364 74.6415824,18.0617825 74.9733935,17.8626165 C75.3052043,17.6634505 75.61489,17.4310937 75.9024595,17.165539 C76.1900289,16.8999844 76.4333535,16.6123045 76.6324399,16.3024907 C76.8315266,15.992677 76.9310682,15.7271263 76.9310682,15.5058307 C76.9310682,15.1517579 76.7541051,14.9747241 76.4001733,14.9747241 C76.1789662,14.9747241 75.9024612,15.063241 75.5706501,15.2402774 C75.2388393,15.4173139 74.9180935,15.6275415 74.6084031,15.8709666 C74.298713,16.1143917 74.0443284,16.3799423 73.8452417,16.6676265 C73.6461552,16.9553107 73.5466133,17.231926 73.5466133,17.4974807 C73.5466133,17.9400718 73.7235767,18.161364 74.0775082,18.161364 L74.0775082,18.161364 L74.0775082,18.161364 Z M101.742542,45.3141914 C101.831025,45.6240054 101.963747,45.9116851 102.140713,46.1772398 C102.273437,46.3985354 102.461461,46.6087631 102.704789,46.8079289 C102.948117,47.007095 103.246742,47.1288059 103.600674,47.1730649 C103.290984,47.7926925 102.981298,48.2131475 102.671608,48.4344431 C102.494642,48.5672204 102.339799,48.6557373 102.207075,48.6999966 C101.808902,48.8327739 101.211651,48.8991616 100.415305,48.8991616 C99.6189583,48.8991616 98.8447445,48.6557399 98.0926396,48.1688899 C97.8271908,47.9475943 97.5838665,47.6156559 97.3626591,47.1730649 C97.1414517,46.8189919 96.9534286,46.3210845 96.7985832,45.6793274 C96.6437382,45.0375703 96.5220762,44.2077244 96.4335932,43.1897648 C95.8142126,44.5175381 95.11742,45.5686763 94.3431946,46.3432108 C93.568969,47.1177452 92.8058152,47.6820402 92.0537103,48.0361132 C91.2131226,48.5229632 90.3504269,48.8106432 89.4655976,48.8991616 C88.3595611,48.9876796 87.3088423,48.7995811 86.3134093,48.3348606 C85.3179765,47.8701398 84.4774013,47.1620048 83.7916587,46.210434 C83.105916,45.2588632 82.5860865,44.097079 82.232155,42.7250467 C81.8782232,41.3530141 81.7676213,39.8039685 81.9003457,38.0778636 C82.0330701,36.26324 82.3869962,34.6478068 82.9621355,33.2315152 C83.5372744,31.8152239 84.2230066,30.5538581 85.019353,29.4473803 C85.8156993,28.3409026 86.6562745,27.4004107 87.5411039,26.6258762 C88.4259329,25.8513418 89.2775682,25.2095944 90.0960355,24.7006147 C90.9145025,24.1916349 91.6223552,23.8154381 92.2196151,23.572013 C92.8168747,23.3285879 93.2039816,23.184748 93.3809476,23.1404889 C93.8676035,23.0077115 94.2878912,22.9634531 94.641823,23.0077122 C94.9957545,23.0519713 95.3054402,23.2511343 95.5708889,23.6052072 C95.659372,23.7379845 95.7699739,23.8928891 95.9026983,24.0699255 C95.9911813,24.2469619 96.1017832,24.4793188 96.2345076,24.767003 C96.367232,25.0546872 96.4778339,25.3755609 96.566317,25.7296338 C95.5045219,26.216484 94.5091039,26.7586499 93.5800332,27.3561479 C92.6509625,27.9536459 91.7993272,28.6728456 91.0251015,29.5137687 C90.2508759,30.3546918 89.5762037,31.372636 89.0010647,32.5676318 C88.4259258,33.7626278 87.9835178,35.2231565 87.6738274,36.9492617 C87.2314129,39.117958 87.3530751,40.8661668 88.0388177,42.19394 C88.7245604,43.5217133 89.6646772,44.0749439 90.8591967,43.8536482 C91.5670603,43.6323526 92.2527926,43.2118976 92.9164145,42.59227 C93.4915534,42.0611606 94.0998645,41.2645085 94.7413657,40.2022902 C95.382867,39.1400716 95.9911777,37.6795428 96.566317,35.8206602 C96.7875241,33.1651137 96.9755475,31.0739021 97.1303926,29.5469628 C97.2852376,28.0200236 97.4290203,26.8582394 97.5617447,26.0615755 C97.7387107,25.1321342 97.871433,24.5125159 97.9599158,24.2027022 C98.0926402,23.9814066 98.3580851,23.771179 98.7562582,23.572013 C99.1544314,23.372847 99.5968394,23.2068779 100.083495,23.0741005 C100.570151,22.9413232 101.01256,22.8638709 101.410733,22.8417414 C101.808906,22.8196118 102.07435,22.8306764 102.207075,22.8749355 C102.295558,22.9191946 102.339799,23.4613606 102.339799,24.5014496 C102.339799,25.5415387 102.306618,26.8471628 102.240256,28.4183612 C102.173894,29.9895596 102.096472,31.6935098 102.007989,33.5302626 C101.919507,35.3670157 101.842085,37.1041597 101.775723,38.7417467 C101.709361,40.3793339 101.66512,41.8066687 101.642999,43.0237941 C101.620879,44.2409196 101.654059,45.0043778 101.742542,45.3141914 L101.742542,45.3141914 L101.742542,45.3141914 Z M108.304504,7.34006598 C108.658436,6.8532158 109.045543,6.43276054 109.465836,6.07868769 C109.88613,5.7246148 110.317478,5.43693493 110.759893,5.21563937 C111.246549,4.99434382 111.755318,4.81731005 112.286216,4.68453272 C112.684389,4.59601451 113.060435,4.55175606 113.414367,4.55175606 C113.724057,4.55175606 114.022683,4.57388528 114.310252,4.61814439 C114.597822,4.6624035 114.830086,4.77304961 115.007052,4.95008605 C114.918569,7.07452326 114.841148,8.8780549 114.774785,10.3607351 C114.708423,11.8434152 114.642062,13.1379747 114.5757,14.2444524 C114.509338,15.3509302 114.454037,16.3356806 114.409795,17.1987332 C114.365554,18.0617858 114.310253,18.9358901 114.24389,19.8210723 C114.177528,20.7062545 114.100107,21.6688756 114.011624,22.7089647 C113.923141,23.7490538 113.83466,24.9993548 113.746177,26.4599054 C113.657693,27.3893467 113.591332,28.3298387 113.547091,29.2814095 C113.502849,30.2329804 113.458609,31.1956015 113.414367,32.1693019 C113.81254,31.0628242 114.310249,29.9121046 114.907509,28.7171087 C115.504769,27.5221128 116.201561,26.4377809 116.997908,25.4640805 C117.794254,24.4903801 118.70119,23.6826634 119.718744,23.0409064 C120.736297,22.3991493 121.842317,22.0782756 123.036837,22.0782756 C124.718013,22.0782756 126.067357,22.5651185 127.08491,23.5388188 C128.102464,24.5125192 128.876678,25.6964326 129.407576,27.0905946 C129.938473,28.4847565 130.281339,29.9563498 130.436185,31.5054186 C130.59103,33.0544874 130.668451,34.4264993 130.668451,35.6214953 C130.668451,36.7722319 130.524668,38.1331791 130.237099,39.7043775 C129.949529,41.2755759 129.44076,42.7803631 128.710776,44.2187842 C127.980792,45.6572053 127.018555,46.8853769 125.824035,47.9033365 C124.629516,48.9212961 123.125328,49.4302682 121.311429,49.4302682 C120.028426,49.4302682 118.944527,49.1647174 118.059697,48.6336081 C117.174868,48.1024988 116.444895,47.4828806 115.869756,46.7747349 C115.294617,46.066589 114.88539,45.358454 114.642061,44.6503083 C114.398734,43.9421624 114.277071,43.4331903 114.277071,43.1233766 C114.277071,42.8135629 114.387673,42.4484305 114.608881,42.027969 C114.830088,41.6075076 115.095533,41.2091815 115.405223,40.8329793 C115.714913,40.4567768 116.046719,40.1469676 116.400651,39.9035424 C116.754583,39.6601176 117.042148,39.560536 117.263355,39.604795 C117.174872,41.0653456 117.274414,42.1828714 117.561983,42.9574059 C117.849553,43.7319401 118.192419,44.2962354 118.590592,44.6503083 C119.077248,45.0928993 119.608138,45.3363206 120.183277,45.38058 C121.023865,45.38058 121.764898,44.9822539 122.406399,44.1855899 C123.0479,43.3889259 123.58985,42.4152401 124.032265,41.2645035 C124.474679,40.1137665 124.817546,38.8634654 125.060874,37.5135627 C125.304202,36.1636599 125.425864,34.9576172 125.425864,33.8953986 C125.425864,33.0987346 125.370563,32.2467596 125.259959,31.3394478 C125.149356,30.4321361 124.983453,29.5912256 124.762245,28.8166912 C124.541038,28.0421568 124.231353,27.411474 123.833179,26.9246237 C123.435006,26.4377736 122.948357,26.1943521 122.373218,26.1943521 C121.399906,26.1943521 120.382368,26.7475827 119.320573,27.8540604 C118.258778,28.9605381 117.28548,30.4100022 116.400651,32.2024961 C115.515822,33.9949899 114.785849,36.019814 114.21071,38.2770285 C113.63557,40.5342431 113.370126,42.8356821 113.414367,45.181415 C113.414367,45.8010423 113.447548,46.3432084 113.51391,46.8079289 C113.580272,47.2726497 113.657693,47.6820402 113.746177,48.0361132 C112.684381,48.4787042 111.843806,48.744255 111.224426,48.832773 C110.870494,48.9212914 110.582929,48.9434206 110.361722,48.8991616 C109.742341,48.8991616 109.233572,48.7221276 108.835399,48.3680549 C108.437226,48.0139819 108.193901,47.2615885 108.105418,46.1108516 C108.061177,45.7125196 108.039057,44.617123 108.039057,42.8246292 L108.039057,36.3185726 C108.039057,33.7736739 108.050117,31.0185857 108.072237,28.0532254 C108.094358,25.0878651 108.116479,22.2331954 108.138599,19.4891306 C108.16072,16.7450659 108.18284,14.2776576 108.204961,12.0868317 C108.227082,9.89600579 108.260262,8.31376637 108.304504,7.34006598 L108.304504,7.34006598 L108.304504,7.34006598 Z M143.136618,5.68035769 C143.048136,7.27368562 142.893293,9.11041107 142.672086,11.1905892 C142.450878,13.2707673 142.218614,15.5058188 141.975286,17.8958107 C141.731958,20.2858026 141.488634,22.7864047 141.245305,25.3976921 C141.001977,28.0089796 140.791834,30.642357 140.614868,33.2979037 C140.437902,35.95345 140.360481,38.1110493 140.382601,39.770766 C140.404722,41.4304825 140.504264,42.7914296 140.68123,43.8536482 C140.858196,44.9158668 141.10152,45.7567774 141.41121,46.3764047 C141.7209,46.9960324 142.119068,47.5935213 142.605724,48.1688899 C142.030585,48.5229626 141.499695,48.7885134 141.013039,48.9655498 C140.526383,49.1425861 140.106095,49.2753617 139.752164,49.3638797 C139.309749,49.496657 138.911582,49.5630446 138.55765,49.5630446 C137.894028,49.5630446 137.318898,49.242171 136.832242,48.6004138 C136.345586,47.958657 135.958479,47.1288112 135.670909,46.1108516 C135.38334,45.0928919 135.162136,43.9532372 135.007291,42.6918524 C134.852446,41.430468 134.775024,40.1801669 134.775024,38.9409116 C134.775024,37.6131383 134.819265,36.0751575 134.907748,34.3269227 C134.996231,32.578688 135.095772,30.7198332 135.206376,28.7503029 C135.31698,26.7807725 135.438642,24.7227548 135.571367,22.5761881 C135.704091,20.4296213 135.814693,18.2941513 135.903176,16.1697141 C135.991659,14.532127 136.08014,13.0494691 136.168623,11.7216959 C136.257106,10.570959 136.323467,9.51982096 136.367709,8.5682501 C136.41195,7.61667927 136.38983,7.05238409 136.301347,6.87534767 C136.566796,6.52127478 136.898602,6.25572412 137.296775,6.07868769 C137.694948,5.90165123 138.070995,5.74674667 138.424927,5.61396938 C138.867341,5.48119205 139.309749,5.37054591 139.752164,5.28202771 L141.013039,5.28202771 C141.366971,5.28202771 141.743018,5.31522153 142.141191,5.38161019 C142.539364,5.44799885 142.87117,5.54758036 143.136618,5.68035769 L143.136618,5.68035769 L143.136618,5.68035769 Z M155.140253,49.4302682 C152.043351,49.4302682 149.654348,48.3901948 147.973172,46.3100165 C146.291997,44.2298383 145.451422,41.507944 145.451422,38.1442518 C145.451422,35.7985189 145.794288,33.5966615 146.48003,31.5386128 C147.165773,29.4805642 148.083769,27.6991618 149.234047,26.1943521 C150.384326,24.6895424 151.72261,23.505629 153.24894,22.6425764 C154.775271,21.7795238 156.378999,21.3480039 158.060175,21.3480039 C159.697109,21.3480039 161.090694,21.9344283 162.240972,23.1072947 C163.39125,24.2801611 163.96638,25.9509174 163.96638,28.1196137 C163.96638,29.5359052 163.656695,30.9411108 163.037315,32.3352729 C162.417934,33.7294347 161.610539,34.968671 160.615107,36.0530194 C159.619674,37.1373676 158.524714,38.0114718 157.330195,38.6753584 C156.135675,39.3392451 154.985414,39.6711835 153.879378,39.6711835 C153.171514,39.6711835 152.574264,39.5826664 152.087607,39.40563 C151.600951,39.2285937 151.158544,38.9630429 150.76037,38.6089702 C150.893095,41.1317392 151.446105,42.8910124 152.419417,43.8868425 C153.392729,44.8826723 154.653592,45.38058 156.202043,45.38058 C157.263838,45.38058 158.203955,45.1592876 159.022422,44.7166966 C159.840889,44.2741056 160.537682,43.7651334 161.112821,43.1897648 C161.687959,42.6143965 162.152488,42.027972 162.50642,41.4304742 C162.860351,40.8329761 163.103676,40.3793271 163.2364,40.0695134 C163.369124,39.8039588 163.601389,39.6711835 163.9332,39.6711835 C164.265011,39.6711835 164.430914,39.936734 164.430914,40.4678434 C164.430914,40.9546937 164.265011,41.6960226 163.9332,42.6918524 C163.601389,43.6876825 163.059439,44.6834973 162.307334,45.6793274 C161.555229,46.6751572 160.592992,47.5492617 159.420593,48.3016664 C158.248194,49.0540713 156.821429,49.4302682 155.140253,49.4302682 L155.140253,49.4302682 L155.140253,49.4302682 Z M158.192899,24.2027022 C157.92745,24.2027022 157.429741,24.4793174 156.699757,25.0325563 C155.969773,25.5857952 155.195559,26.3935118 154.377092,27.4557304 C153.558625,28.517949 152.806531,29.7903793 152.120788,31.2730595 C151.435046,32.7557397 151.003698,34.4264958 150.826732,36.2853784 C153.48122,35.665751 155.582658,34.6920652 157.131109,33.3642919 C158.67956,32.0365186 159.453774,30.0891471 159.453774,27.5221187 C159.453774,26.2386046 159.298931,25.3645003 158.989241,24.8997796 C158.679551,24.435059 158.414106,24.2027022 158.192899,24.2027022 L158.192899,24.2027022 L158.192899,24.2027022 Z M219.760981,54.3430045 C218.433737,54.2987455 217.526801,53.889355 217.040145,53.1148205 C216.553489,52.340286 216.265923,51.2670189 216.177441,49.8949863 C216.088957,48.522954 216.133198,46.8964561 216.310164,45.015444 C216.48713,43.1344319 216.575612,41.087479 216.575612,38.8745234 C216.619853,34.4928716 216.785756,30.498547 217.073325,26.8914296 C217.360895,23.2843122 217.438316,19.7768304 217.305592,16.3688791 L217.305592,15.6386074 C217.305592,15.4173119 217.283472,15.1960196 217.23923,14.9747241 C217.018023,15.727129 216.763638,16.579104 216.476069,17.5306749 C216.188499,18.4822457 215.845633,19.5333838 215.44746,20.6841206 C214.651114,23.1626307 213.86584,25.7074913 213.091614,28.3187787 C212.317388,30.9300661 211.565295,33.463862 210.835311,35.9202427 C210.105327,38.3766231 209.419594,40.6559332 208.778093,42.7582407 C208.136592,44.8605484 207.572522,46.6198216 207.085865,48.0361132 C206.59921,49.4524045 206.123621,50.5035427 205.659086,51.1895589 C205.19455,51.875575 204.730022,52.3513535 204.265486,52.6169081 C203.800951,52.8824628 203.336423,52.9931088 202.871887,52.9488498 C202.407352,52.9045905 201.953884,52.8603321 201.511469,52.8160731 C201.334503,51.3112632 201.002697,49.5409255 200.516041,47.5050066 C200.029385,45.4690876 199.520616,43.521716 198.989719,41.6628334 C198.370338,39.4941371 197.684606,37.2812147 196.932501,35.0240001 C195.914947,31.1291986 194.853168,27.5663938 193.747131,24.3354788 C192.641095,21.1045639 191.778399,18.4490572 191.159019,16.3688791 C190.89357,18.6260936 190.694487,21.2152127 190.561762,24.1363138 C190.429038,27.057415 190.340556,29.9784724 190.296315,32.8995735 C190.252073,35.8206747 190.274194,38.575763 190.362677,41.1649207 C190.45116,43.7540787 190.583882,45.8452901 190.760848,47.438618 C190.805089,48.1025047 190.893571,48.7663816 191.026295,49.4302682 C191.114778,50.0056365 191.23644,50.592061 191.391285,51.1895589 C191.54613,51.787057 191.734154,52.3292228 191.955361,52.8160731 C191.734154,52.9931094 191.468709,53.1480139 191.159019,53.2807912 C190.849329,53.4135685 190.517523,53.5242149 190.163591,53.6127329 C189.765418,53.7455102 189.34513,53.8561563 188.902716,53.9446746 C187.177299,54.2987476 185.927496,54.2544891 185.153271,53.8118979 C184.379045,53.3693069 183.903456,52.4841379 183.72649,51.1563646 C183.638008,50.492478 183.571647,49.2532416 183.527405,47.438618 C183.483163,45.6239948 183.472103,43.5327831 183.494224,41.1649207 C183.516345,38.7970586 183.571646,36.3075209 183.660129,33.6962336 C183.748612,31.0849461 183.881334,28.6507317 184.0583,26.3935171 C184.235266,24.5788936 184.412229,22.6093928 184.589195,20.4849556 C184.766161,18.626073 184.943124,16.4795384 185.12009,14.0452875 C185.297056,11.6110365 185.496139,8.97765898 185.717346,6.14507603 C185.850071,5.87952137 186.071275,5.64716452 186.380965,5.44799853 C186.690655,5.24883254 187.022461,5.08286338 187.376393,4.95008605 C187.774566,4.77304961 188.216974,4.64027428 188.70363,4.55175606 C189.455735,4.41897873 190.119347,4.30833262 190.694486,4.2198144 C191.181142,4.13129618 191.63461,4.06490852 192.054904,4.02064941 C192.475198,3.9763903 192.641101,3.9763903 192.552618,4.02064941 C193.127757,5.21564534 193.570165,6.20039574 193.879855,6.97493014 C194.189545,7.74946458 194.510291,8.66782729 194.842102,9.73004591 C195.173913,10.7922645 195.594201,12.1864055 196.102978,13.9125108 C196.611754,15.638616 197.352788,18.0507013 198.3261,21.1488389 C199.653344,25.4419725 200.792544,29.1818111 201.743736,32.3684668 C202.694927,35.5551227 203.41384,37.9893373 203.900496,39.6711835 C204.210187,39.0958149 204.519872,38.465132 204.829562,37.7791158 C205.139252,37.0930997 205.459998,36.2632539 205.791809,35.2895536 C206.12362,34.315853 206.477547,33.1761982 206.853599,31.8705545 C207.229651,30.5649107 207.660999,29.0048005 208.147655,27.1901771 C208.767036,25.1985172 209.408527,23.0519826 210.072149,20.7505089 C210.603047,18.8031081 211.189237,16.5791213 211.830739,14.0784816 C212.47224,11.577842 213.080551,8.97765833 213.65569,6.27785268 C215.071416,5.70248427 216.221677,5.27096441 217.106506,4.98328022 C217.991336,4.69559601 218.677068,4.46323917 219.163724,4.28620273 C219.738863,4.1091663 220.159151,3.99852019 220.4246,3.95426108 C220.690048,3.99852019 220.955493,4.13129552 221.220942,4.35259107 C221.442149,4.57388661 221.707594,4.88369573 222.017284,5.28202771 C222.326974,5.6803597 222.65878,6.27784869 223.012712,7.07451265 L223.012712,10.0619876 L223.012712,14.8087533 C223.012712,16.6012472 222.990592,18.5375541 222.94635,20.6177323 C222.902109,22.6979104 222.868928,24.7891219 222.846807,26.8914296 C222.824687,28.9937373 222.802566,31.0406903 222.780446,33.0323502 C222.758325,35.0240101 222.725144,36.7943478 222.680903,38.3434167 C222.59242,40.6891496 222.58136,42.6807794 222.647722,44.3183666 C222.714084,45.9559536 222.846807,47.3169007 223.045893,48.4012489 C223.24498,49.485597 223.510424,50.3597015 223.842235,51.0235882 C224.174046,51.6874748 224.583274,52.2185761 225.06993,52.6169081 C224.937205,52.7054261 224.682821,52.8492661 224.306768,53.0484323 C223.930716,53.2475981 223.477248,53.446761 222.94635,53.6459272 C222.415453,53.845093 221.862443,54.0110622 221.287304,54.1438396 C220.712165,54.2766169 220.203395,54.3430045 219.760981,54.3430045 L219.760981,54.3430045 L219.760981,54.3430045 Z M247.492376,37.2812034 C247.403893,39.0073087 247.105268,40.6006127 246.596491,42.0611633 C246.087715,43.5217139 245.390922,44.7941442 244.506093,45.8784923 C243.621263,46.9628405 242.570545,47.8148155 241.353904,48.4344431 C240.137264,49.0540708 238.79898,49.3860089 237.339012,49.4302682 C236.056009,49.4745272 234.850448,49.164718 233.72229,48.5008313 C232.594133,47.8369447 231.609775,46.9075176 230.769187,45.7125216 C229.9286,44.5175257 229.298168,43.0901906 228.877874,41.4304742 C228.457581,39.7707577 228.335918,37.9672261 228.512884,36.0198252 C228.645609,33.7626106 229.065896,31.8263037 229.77376,30.2108462 C230.481623,28.5953887 231.233717,27.2565707 232.030063,26.1943521 C232.826409,25.1321335 233.567443,24.3465461 234.253185,23.8375663 C234.938928,23.3285866 235.370276,23.0298421 235.547241,22.9413239 C235.856932,22.8085465 236.144497,22.7753527 236.409946,22.8417414 C236.675394,22.90813 236.96296,22.9855823 237.27265,23.0741005 C237.361133,23.1183596 237.449614,23.2290057 237.538097,23.4060422 C237.715063,23.715856 237.825665,24.2912157 237.869907,25.1321388 C238.091114,24.6452886 238.378679,24.2469626 238.732611,23.9371488 C239.086542,23.6273351 239.440469,23.4060428 239.7944,23.2732655 C240.236815,23.0962291 240.679223,22.985583 241.121638,22.9413239 C241.431328,22.8970648 241.973278,23.1404862 242.747504,23.6715955 C243.521729,24.2027048 244.273823,25.0436153 245.003807,26.1943521 C245.733791,27.3450889 246.364222,28.8388114 246.89512,30.6755645 C247.426017,32.5123175 247.625101,34.7141752 247.492376,37.2812034 L247.492376,37.2812034 L247.492376,37.2812034 Z M242.97977,36.4845436 C243.024011,35.422325 242.990831,34.3490576 242.880227,33.2647094 C242.769624,32.1803613 242.59266,31.1845462 242.349332,30.2772345 C242.106004,29.3699228 241.807379,28.6396584 241.453447,28.0864196 C241.099515,27.5331807 240.745589,27.2565654 240.391657,27.2565654 C239.993484,27.3450836 239.551076,27.5442466 239.06442,27.8540604 C238.666247,28.1196151 238.223839,28.5400703 237.737183,29.1154387 C237.250527,29.6908071 236.785998,30.5095883 236.343584,31.571807 C236.299342,31.4390296 236.255102,31.1956082 236.21086,30.8415353 C236.166619,30.5317215 236.133438,30.1223309 236.111317,29.6133512 C236.089197,29.1043714 236.122377,28.4073009 236.21086,27.5221187 C235.59148,28.2745236 235.115891,29.1596925 234.78408,30.177652 C234.452269,31.1956115 234.197885,32.1692972 234.020919,33.0987385 C233.843953,34.2052164 233.71123,35.3116775 233.622748,36.4181551 C233.578506,37.613151 233.633807,38.7859998 233.788652,39.9367367 C233.943497,41.0874736 234.208942,42.1054179 234.584995,42.9905999 C234.961047,43.8757822 235.414515,44.5839172 235.945413,45.1150265 C236.47631,45.6461358 237.117802,45.8895574 237.869907,45.8452981 C238.622011,45.8010391 239.285624,45.4912298 239.860763,44.9158615 C240.435901,44.3404932 240.944671,43.6102287 241.387085,42.7250467 C241.8295,41.8398644 242.183426,40.8440494 242.448875,39.7375717 C242.714324,38.6310941 242.891287,37.5467619 242.97977,36.4845436 L242.97977,36.4845436 L242.97977,36.4845436 Z M257.969688,46.9075114 C257.925447,47.173066 257.693183,47.4496813 257.272889,47.7373658 C256.852595,48.0250499 256.365946,48.279536 255.812928,48.5008313 C255.25991,48.722127 254.74008,48.865967 254.253424,48.9323555 C253.766768,48.9987443 253.434962,48.9434212 253.257996,48.7663848 C253.08103,48.5893485 252.793465,48.25741 252.395292,47.7705597 C251.997119,47.2837097 251.753794,46.4870576 251.665311,45.38058 C251.576828,44.229843 251.532588,42.780379 251.532588,41.0321443 C251.532588,39.2839095 251.510467,37.3476023 251.466226,35.2231651 L251.466226,32.5676318 C251.466226,31.7709678 251.455166,30.8415406 251.433045,29.779322 C251.410924,28.7171034 251.377744,27.6106423 251.333502,26.4599054 C251.731675,26.2386099 252.140903,26.0283823 252.561196,25.8292163 C252.981491,25.6300503 253.368597,25.4640811 253.722529,25.3313038 C254.120702,25.1542674 254.496749,25.021492 254.850681,24.9329738 C255.779752,24.6674192 256.487604,24.5125146 256.97426,24.4682555 C257.460916,24.4239964 257.748482,24.5789009 257.836965,24.9329738 C257.881206,25.1985285 257.859086,25.8402759 257.770603,26.8582354 C257.68212,27.7434176 257.571518,29.0822356 257.438793,30.8747295 C257.306069,32.6672234 257.084865,35.1567609 256.775175,38.3434167 C257.350314,36.9271251 257.825902,35.710018 258.201955,34.6920584 C258.578007,33.6740991 258.898753,32.8553177 259.164202,32.2356904 C259.42965,31.4832854 259.672975,30.8857964 259.894182,30.4432053 C260.115389,29.8678369 260.402955,29.2260894 260.756886,28.5179437 C261.110818,27.809798 261.475805,27.1459213 261.851857,26.5262938 C262.22791,25.9066662 262.581836,25.3534357 262.913647,24.8665855 C263.245458,24.3797353 263.499842,24.0920554 263.676808,24.0035372 C263.809533,23.915019 264.2077,23.915019 264.871322,24.0035372 C265.534944,24.0920554 266.242796,24.302283 266.994901,24.6342263 C267.747006,24.9661696 268.476979,25.4308833 269.184843,26.0283813 C269.892706,26.6258792 270.357234,27.345079 270.578442,28.1860021 C270.843891,29.1597025 270.943432,30.4431973 270.87707,32.0365251 C270.810708,33.6298531 270.700106,35.2674158 270.545261,36.9492617 C270.390416,38.631108 270.268753,40.224412 270.18027,41.7292216 C270.091788,43.2340312 270.180269,44.384751 270.445718,45.181415 C270.534201,45.624006 270.666923,46.0223321 270.843889,46.3764047 C270.932372,46.7304777 271.054034,47.0513514 271.208879,47.3390356 C271.363725,47.6267197 271.529628,47.8369474 271.706593,47.9697247 C270.644798,48.456575 269.782103,48.8106426 269.118481,49.031938 C268.454859,49.2532336 267.94609,49.4081381 267.592158,49.4966564 C267.149743,49.6294338 266.840058,49.6736922 266.663092,49.6294332 C266.264919,49.4966558 265.922053,49.1647174 265.634483,48.6336081 C265.346914,48.1024988 265.092529,47.2615885 264.871322,46.1108516 C264.782839,45.7567786 264.749658,45.1703544 264.771779,44.3515606 C264.7939,43.5327671 264.849201,42.60334 264.937684,41.5632509 C265.026166,40.5231618 265.125708,39.4388299 265.236312,38.3102225 C265.346916,37.1816153 265.435397,36.1194127 265.50176,35.1235826 C265.568122,34.1277528 265.623423,33.264713 265.667664,32.5344378 C265.711905,31.8041624 265.711905,31.306255 265.667664,31.0407003 C265.446457,30.2440363 265.136771,29.6797412 264.738598,29.3477978 C264.340425,29.0158545 264.030739,28.9826607 263.809532,29.2482154 C263.234393,29.912102 262.626082,30.9853693 261.984581,32.4680493 C261.34308,33.9507294 260.734769,35.5661629 260.15963,37.3143977 C259.584491,39.0626325 259.097842,40.7997765 258.699669,42.5258817 C258.301496,44.251987 258.058171,45.7125154 257.969688,46.9075114 L257.969688,46.9075114 L257.969688,46.9075114 Z M286.032893,36.0862134 C287.006205,36.4402864 287.935262,36.7722248 288.820091,37.0820385 C289.704921,37.3918522 290.479134,37.768049 291.142756,38.21064 C291.806378,38.6532313 292.337268,39.1732679 292.735441,39.770766 C293.133614,40.3682638 293.332698,41.1095928 293.332698,41.9947751 C293.332698,43.0569937 293.100434,44.0528087 292.635898,44.98225 C292.171363,45.9116913 291.496691,46.7304724 290.611861,47.438618 C289.727032,48.146764 288.654193,48.711059 287.393311,49.1315205 C286.13243,49.5519823 284.727784,49.7622099 283.179333,49.7622099 C281.453916,49.7622099 280.060331,49.5962407 278.998536,49.2642972 C277.936741,48.932354 277.118286,48.5450924 276.543147,48.1025014 C275.968008,47.6599104 275.591961,47.2173259 275.414995,46.7747349 C275.238029,46.3321437 275.149548,45.9780763 275.149548,45.7125216 C275.149548,45.1814123 275.26015,44.5949878 275.481357,43.9532307 C275.702564,43.3114736 276.122852,42.6144033 276.742233,41.8619983 C277.007681,41.5521847 277.295246,41.2645047 277.604937,40.99895 C278.224317,40.4678407 278.843688,40.1359022 279.463069,40.0031249 C279.374586,41.0210845 279.496248,41.8509303 279.828059,42.4926875 C280.15987,43.1344446 280.602278,43.632352 281.155296,43.986425 C281.708314,44.3404979 282.327686,44.5839192 283.013428,44.7166966 C283.699171,44.8494739 284.351723,44.9158615 284.971103,44.9158615 C285.590484,44.9158615 286.220915,44.8273447 286.862416,44.6503083 C287.503917,44.4732717 288.090108,44.2409149 288.621006,43.9532307 C289.151903,43.6655465 289.583251,43.3336081 289.915062,42.9574059 C290.246873,42.5812034 290.412776,42.1718126 290.412776,41.7292216 C290.412776,41.2423716 290.213692,40.8440455 289.815519,40.5342316 C289.417346,40.2244179 288.919637,39.9699318 288.322377,39.770766 C287.725117,39.5715999 287.083626,39.4166954 286.397883,39.3060476 C285.712141,39.1953997 285.059589,39.0736889 284.440208,38.9409116 C283.820828,38.8081343 282.991313,38.6200362 281.951639,38.376611 C280.911964,38.1331859 279.894426,37.7459245 278.898993,37.2148152 C277.90356,36.6837059 277.040864,35.9755706 276.31088,35.0903886 C275.580896,34.2052063 275.21591,33.0323576 275.21591,31.571807 C275.21591,29.8899608 275.647257,28.4183675 276.509966,27.1569829 C277.372674,25.8955983 278.434454,24.8333956 279.695335,23.970343 C280.956217,23.1072904 282.294501,22.4544783 283.710228,22.0118872 C285.125955,21.5692961 286.386817,21.3480039 287.492854,21.3480039 C288.067993,21.3480039 288.687364,21.4254562 289.350986,21.5803631 C290.014608,21.73527 290.633979,22.0008206 291.209118,22.377023 C291.784257,22.7532255 292.259846,23.251133 292.635898,23.8707605 C293.011951,24.490388 293.199974,25.28704 293.199974,26.2607404 C293.199974,27.2344408 293.122553,28.0200282 292.967707,28.6175262 C292.812862,29.2150242 292.591658,29.6797379 292.304089,30.0116812 C292.016519,30.3436245 291.673653,30.5538521 291.27548,30.6423703 C290.877307,30.7308885 290.412778,30.775147 289.881881,30.775147 C289.527949,30.775147 289.196143,30.7308885 288.886453,30.6423703 C288.621004,30.5538521 288.333439,30.4653352 288.023749,30.376817 C287.714059,30.2882988 287.426494,30.1333942 287.161045,29.9120987 C287.603459,29.3809894 287.946325,28.8720172 288.189654,28.385167 C288.432982,27.8983168 288.554644,27.3008278 288.554644,26.5926821 C288.554644,25.9730546 288.388741,25.419824 288.05693,24.9329738 C287.725119,24.4461236 287.183169,24.2027022 286.431064,24.2027022 C285.634718,24.2027022 284.871564,24.3576067 284.14158,24.6674205 C283.411596,24.9772342 282.770104,25.3976895 282.217086,25.9287988 C281.664068,26.4599081 281.22166,27.0684617 280.889849,27.7544779 C280.558038,28.4404941 280.392135,29.181823 280.392135,29.978487 C280.392135,31.1734829 280.845603,32.3020733 281.752553,33.3642919 C282.659503,34.4265105 284.086269,35.3338087 286.032893,36.0862134 L286.032893,36.0862134 L286.032893,36.0862134 Z M322.125883,19.157189 C321.639228,19.0686708 320.986675,18.9801539 320.168207,18.8916357 C319.349742,18.8031174 318.520227,18.7367298 317.679638,18.6924706 C316.706325,18.6482115 315.666668,18.6260823 314.560631,18.6260823 C313.454594,18.5375641 312.07207,18.5264995 310.413013,18.5928882 C308.753959,18.6592768 307.017508,18.6924706 305.203609,18.6924706 C305.159367,19.8432075 305.081947,21.0160563 304.971343,22.2110522 C304.86074,23.4060482 304.761195,24.5788969 304.672712,25.7296338 C304.451506,27.854071 304.263484,30.0227348 304.108637,32.2356904 C303.953792,34.4486457 303.876371,36.5509218 303.876371,38.5425817 C303.876371,40.5342416 303.998033,42.3377733 304.241361,43.9532307 C304.484688,45.5686881 304.938158,46.8411184 305.601781,47.7705597 C305.070882,48.1688917 304.495753,48.4676362 303.876371,48.6668023 C303.256992,48.8659682 302.703981,49.0098082 302.217326,49.0983265 C301.642185,49.2311038 301.067056,49.2974915 300.491915,49.2974915 C299.961019,49.2974915 299.518611,49.1204578 299.16468,48.7663848 C298.810747,48.4123118 298.611663,47.7926937 298.567422,46.9075114 C298.478939,45.4027018 298.46788,43.8868502 298.534242,42.3599107 C298.600605,40.8329716 298.689084,39.2286029 298.799688,37.5467569 C298.910294,35.8649107 299.031953,34.061379 299.16468,32.1361076 C299.297405,30.2108365 299.430126,28.0974958 299.56285,25.7960221 C299.695574,23.4060302 299.761936,21.0824619 299.761936,18.8252473 C298.080761,18.8695064 296.665055,18.8916357 295.514777,18.8916357 C294.364499,18.8916357 293.723007,18.8695064 293.590283,18.8252473 C293.457558,18.7367291 293.302716,18.5375661 293.12575,18.2277523 C292.948784,17.9621977 292.71652,17.5638717 292.42895,17.0327624 C292.141381,16.5016531 291.776394,15.7492595 291.333979,14.7755591 L294.087997,14.7755591 C295.08343,14.7755591 296.001426,14.7534299 296.842015,14.7091708 C297.815325,14.6649117 298.788623,14.6206532 299.761936,14.5763941 C299.717695,13.8682484 299.695574,13.1158548 299.695574,12.3191908 C299.651332,11.6995633 299.629212,11.0024928 299.629212,10.2279584 C299.629212,9.45342399 299.607091,8.73422426 299.56285,8.07033762 C299.56285,7.80478296 299.883595,7.48390924 300.525098,7.10770682 C301.166598,6.7315044 301.863392,6.38850144 302.615495,6.07868769 C303.367601,5.76887393 304.064392,5.56971093 304.705895,5.4811927 C305.347395,5.39267447 305.66814,5.54757903 305.66814,5.94591101 C305.66814,6.344243 305.657081,7.30686418 305.634961,8.83380342 C305.61284,10.3607427 305.55754,12.2085328 305.469057,14.3772291 C305.911471,14.3772291 306.243278,14.3550999 306.464485,14.3108408 C308.80928,14.2223226 310.700576,14.1227411 312.138423,14.0120933 C313.576271,13.9014455 314.759711,13.8903809 315.688782,13.9788991 C316.617854,14.0674173 317.436307,14.2887096 318.144172,14.6427825 C318.852034,14.9968553 319.64837,15.5722151 320.533197,16.3688791 C320.84289,16.6344337 321.108335,16.9221136 321.329542,17.2319274 C321.550748,17.497482 321.738773,17.7962265 321.893617,18.1281698 C322.048462,18.4601131 322.125883,18.8031161 322.125883,19.157189 L322.125883,19.157189 L322.125883,19.157189 Z M319.861717,49.4302682 C316.764816,49.4302682 314.375812,48.3901948 312.694637,46.3100165 C311.01346,44.2298383 310.172885,41.507944 310.172885,38.1442518 C310.172885,35.7985189 310.515752,33.5966615 311.201496,31.5386128 C311.887237,29.4805642 312.805235,27.6991618 313.955513,26.1943521 C315.105789,24.6895424 316.444074,23.505629 317.970404,22.6425764 C319.496734,21.7795238 321.100464,21.3480039 322.781639,21.3480039 C324.418572,21.3480039 325.812157,21.9344283 326.962436,23.1072947 C328.112714,24.2801611 328.687846,25.9509174 328.687846,28.1196137 C328.687846,29.5359052 328.378159,30.9411108 327.75878,32.3352729 C327.139398,33.7294347 326.332004,34.968671 325.33657,36.0530194 C324.341139,37.1373676 323.246179,38.0114718 322.051659,38.6753584 C320.857139,39.3392451 319.706879,39.6711835 318.600842,39.6711835 C317.89298,39.6711835 317.295727,39.5826664 316.809072,39.40563 C316.322417,39.2285937 315.880007,38.9630429 315.481834,38.6089702 C315.614558,41.1317392 316.16757,42.8910124 317.140882,43.8868425 C318.114192,44.8826723 319.375057,45.38058 320.923507,45.38058 C321.985303,45.38058 322.925419,45.1592876 323.743887,44.7166966 C324.562352,44.2741056 325.259146,43.7651334 325.834284,43.1897648 C326.409425,42.6143965 326.873953,42.027972 327.227884,41.4304742 C327.581815,40.8329761 327.825139,40.3793271 327.957863,40.0695134 C328.090588,39.8039588 328.322853,39.6711835 328.654663,39.6711835 C328.986474,39.6711835 329.152377,39.936734 329.152377,40.4678434 C329.152377,40.9546937 328.986474,41.6960226 328.654663,42.6918524 C328.322853,43.6876825 327.780904,44.6834973 327.028798,45.6793274 C326.276695,46.6751572 325.314455,47.5492617 324.142056,48.3016664 C322.96966,49.0540713 321.542892,49.4302682 319.861717,49.4302682 L319.861717,49.4302682 L319.861717,49.4302682 Z M322.914363,24.2027022 C322.648915,24.2027022 322.151207,24.4793174 321.421221,25.0325563 C320.691236,25.5857952 319.917024,26.3935118 319.098555,27.4557304 C318.28009,28.517949 317.527996,29.7903793 316.842252,31.2730595 C316.156511,32.7557397 315.725162,34.4264958 315.548196,36.2853784 C318.202684,35.665751 320.304122,34.6920652 321.852573,33.3642919 C323.401024,32.0365186 324.175239,30.0891471 324.175239,27.5221187 C324.175239,26.2386046 324.020397,25.3645003 323.710704,24.8997796 C323.401015,24.435059 323.13557,24.2027022 322.914363,24.2027022 L322.914363,24.2027022 L322.914363,24.2027022 Z M350.977569,28.3187787 C350.977569,28.9384062 350.811665,29.5690891 350.479855,30.2108462 C350.148042,30.8526032 349.738817,31.4611569 349.252159,32.0365251 C348.765504,32.6118938 348.223555,33.1098011 347.626293,33.5302626 C347.029035,33.9507241 346.464965,34.2052102 345.934065,34.2937285 C346.287999,32.9216962 346.3986,31.8594935 346.265876,31.1070886 C346.133152,30.3546838 345.911948,29.8014532 345.602258,29.4473803 C345.248324,29.0490484 344.805917,28.8277561 344.27502,28.783497 C343.478673,28.783497 342.71552,29.2371461 341.985537,30.1444578 C341.255552,31.0517695 340.62512,32.1582306 340.094223,33.4638744 C339.563324,34.7695182 339.143037,36.163659 338.833347,37.6463394 C338.523658,39.1290195 338.368813,40.4678374 338.368813,41.6628334 C338.324572,42.5037564 338.346692,43.3225377 338.435175,44.1192017 C338.479416,44.7830883 338.55684,45.4690941 338.667444,46.1772398 C338.778047,46.8853857 338.943951,47.4386163 339.165158,47.8369482 C338.899709,48.0582436 338.46836,48.3237944 337.871099,48.6336081 C337.273841,48.9434217 336.65447,49.1425849 336.012968,49.2311032 C335.371468,49.3196213 334.796336,49.2089752 334.28756,48.8991616 C333.778782,48.5893476 333.502278,47.925471 333.458036,46.9075114 C333.369554,45.9338111 333.314253,44.8384145 333.292133,43.621289 C333.270012,42.4041635 333.270012,41.1870564 333.292133,39.969931 C333.314253,38.7528055 333.347433,37.5467628 333.391674,36.3517669 C333.435916,35.1567709 333.502278,34.0503098 333.59076,33.0323502 C333.679243,31.0849494 333.723485,29.5801623 333.723485,28.5179437 C333.723485,27.4557251 333.701364,26.4377809 333.657123,25.4640805 C333.657123,25.287044 333.955747,25.032558 334.553009,24.7006147 C335.150267,24.3686713 335.813879,24.0699268 336.543864,23.8043722 C337.273847,23.5388175 337.94852,23.383913 338.567899,23.3396539 C339.187281,23.2953947 339.496965,23.4281701 339.496965,23.7379838 C339.496965,24.224834 339.441665,25.1874552 339.331061,26.6258762 C339.220458,28.0642973 339.076675,29.5580198 338.899709,31.1070886 C339.209399,30.2661655 339.618627,29.3588674 340.127403,28.385167 C340.636181,27.4114667 341.222372,26.5041685 341.885993,25.6632455 C342.549616,24.8223224 343.301707,24.1252519 344.142296,23.572013 C344.982885,23.0187741 345.911942,22.7421589 346.929493,22.7421589 C347.725841,22.7421589 348.378393,22.9855803 348.887169,23.4724305 C349.395945,23.9592807 349.805173,24.5125113 350.114863,25.1321388 C350.424555,25.7517663 350.645759,26.3713846 350.778483,26.9910121 C350.911207,27.6106396 350.977569,28.0532241 350.977569,28.3187787 L350.977569,28.3187787 L350.977569,28.3187787 Z" id="Reliable-Monster" fill="#FFFFFF"></path>
                    <path d="M359.726818,18.0408821 C362.150846,25.2011414 370.4318,28.1287459 380.315824,26.6097518 C392.111017,24.7970455 399.049809,22.8954216 401.62327,13.414167 C404.19673,3.93291234 391.751929,1.4531883 380.315824,0.218582189 C368.879719,-1.01602433 359.008379,2.9256016 359.008379,13.414167 C359.008379,15.1136243 359.258109,16.6563782 359.726818,18.0408821 L359.726818,18.0408821 Z" id="Oval-3" stroke="#333333" stroke-width="2" fill="#FFFFFF"></path>
                    <path d="M370.463643,16.9342196 C370.324304,16.6336551 370.191828,16.3681184 370.066211,16.1376017 C369.940595,15.9070851 369.831933,15.710356 369.740221,15.5474092 C369.362775,15.7269714 368.945057,15.8704871 368.487055,15.9779603 C368.566386,16.6240609 368.649077,17.1723888 368.735131,17.6229612 C368.77993,17.9043911 368.821983,18.1426028 368.861291,18.337603 C368.900599,18.5326032 368.936498,18.6998385 368.968988,18.8393147 C369.001479,18.9787906 369.034942,19.1053358 369.06938,19.2189536 C369.103817,19.3325718 369.148035,19.4424255 369.202036,19.5485178 C369.018803,19.7247284 368.838183,19.8596269 368.660171,19.9532169 C368.482159,20.0468065 368.324375,20.1174167 368.186816,20.1650496 C368.020222,20.2264948 367.870095,20.2551753 367.736429,20.2510927 C367.668618,20.1159531 367.604925,19.9726253 367.545347,19.8211039 C367.485769,19.6695826 367.431988,19.4609912 367.384003,19.195324 C367.336018,18.9296564 367.286615,18.5898739 367.235794,18.1759655 C367.184972,17.7620572 367.135034,17.2302025 367.085977,16.5803847 C367.087391,16.5084783 367.08376,16.4371925 367.075083,16.3665255 C367.066406,16.2958581 367.062775,16.2245723 367.064189,16.1526662 C366.972128,16.1537223 366.877545,16.155088 366.780438,16.156764 C366.683332,16.1584397 366.588749,16.1598053 366.496688,16.1608618 C366.416307,16.0067709 366.35828,15.8678709 366.322602,15.7441573 C366.286926,15.620444 366.264129,15.5182073 366.254213,15.4374449 C366.241817,15.3364917 366.241992,15.2544914 366.254737,15.1914413 C366.419917,15.2019022 366.583234,15.1972207 366.744695,15.1773958 L366.971748,15.1495172 C366.93987,14.7230354 366.907062,14.2889888 366.873324,13.8473642 C366.839586,13.4057397 366.804566,12.9745265 366.768261,12.5537119 C366.731957,12.1328977 366.69561,11.7325895 366.659218,11.352776 C366.622826,10.9729622 366.590463,10.6259636 366.562129,10.3117698 C366.284181,10.5508476 366.054039,10.8455371 365.871696,11.1958468 C365.689353,11.5461562 365.583848,11.938263 365.555179,12.3721792 C365.421513,12.3680961 365.302763,12.3186306 365.198926,12.2237812 C365.095089,12.1289318 365.006081,12.0297015 364.931898,11.9260876 C364.845145,11.8035215 364.766625,11.6645759 364.696335,11.509246 C364.622327,11.3236302 364.598466,11.1292982 364.624752,10.9262441 C364.651037,10.7231901 364.703789,10.5271367 364.78301,10.3380777 C364.862231,10.1490192 364.959067,9.97829509 365.073519,9.82590064 C365.187972,9.67350576 365.300787,9.54949479 365.411966,9.45386367 C365.607769,9.2966045 365.812687,9.15103699 366.026726,9.01715733 C366.240765,8.88327763 366.48472,8.76365935 366.7586,8.65829873 C366.855969,8.53362053 366.96719,8.41749061 367.092267,8.30990554 C367.217343,8.20232009 367.339188,8.13099921 367.457804,8.09593972 C367.624398,8.03449459 367.733279,8.12872309 367.78445,8.37862809 C367.874032,8.3573812 367.968969,8.33803896 368.069262,8.3206007 C368.169555,8.30316245 368.275202,8.28762894 368.386207,8.27399932 C368.769676,8.22691523 369.175713,8.2385441 369.604331,8.30888685 C370.032949,8.37922925 370.43775,8.52678762 370.818748,8.75156639 C371.199746,8.97634477 371.527585,9.28962553 371.802274,9.69141733 C372.076964,10.0932096 372.252112,10.6020049 372.327725,11.2178197 C372.413254,11.9143969 372.327983,12.5755745 372.071909,13.2013728 C371.815836,13.8271706 371.408618,14.3690441 370.850243,14.8270099 C370.943194,15.0000522 371.061904,15.216042 371.206376,15.4749862 C371.350848,15.7339305 371.499656,16.0282035 371.652805,16.3578151 C371.866327,16.7619936 372.089051,17.1368556 372.320983,17.4824125 C372.552916,17.8279689 372.786526,18.1246393 373.02182,18.372432 C373.257113,18.6202244 373.495987,18.8137748 373.738448,18.9530881 C373.980909,19.0924019 374.215,19.1635711 374.440727,19.1665976 C374.334331,19.3846119 374.200317,19.5445299 374.038682,19.6463563 C373.877046,19.7481827 373.711694,19.8197221 373.542622,19.8609768 C373.354606,19.9148047 373.152782,19.9395855 372.937147,19.9353198 C372.637062,19.9106804 372.36743,19.8003242 372.128243,19.6042471 C371.889055,19.40817 371.672044,19.1632605 371.477203,18.8695112 C371.282362,18.5757614 371.099871,18.2574434 370.929726,17.9145476 C370.759581,17.5716518 370.604221,17.2448792 370.463643,16.9342196 L370.463643,16.9342196 L370.463643,16.9342196 Z M367.915698,10.6989357 C367.942968,10.9210326 367.97077,11.189174 367.999105,11.5033682 C368.027439,11.8175623 368.061395,12.1566798 368.100973,12.520731 C368.140551,12.8847819 368.179775,13.2668038 368.218646,13.6668081 C368.257517,14.0668124 368.301123,14.4636672 368.349466,14.8573851 C368.616972,14.783549 368.909127,14.6810691 369.225938,14.549942 C369.54275,14.4188149 369.829414,14.2299065 370.08594,13.9832111 C370.342465,13.7365157 370.5449,13.4247337 370.693251,13.0478553 C370.841601,12.670977 370.881688,12.2049235 370.813513,11.6496807 C370.761452,11.2256774 370.643978,10.8737578 370.461087,10.5939121 C370.278197,10.3140664 370.059239,10.0950142 369.804208,9.93674908 C369.549176,9.77848402 369.277641,9.67348487 368.989594,9.62174879 C368.701547,9.57001228 368.421296,9.56087192 368.14883,9.59432644 L367.997462,9.61291218 C367.947005,9.61910746 367.892124,9.63096949 367.832816,9.64849918 C367.842207,9.97526687 367.869834,10.3254086 367.915698,10.6989357 L367.915698,10.6989357 L367.915698,10.6989357 Z M378.293474,16.7721397 C378.322333,16.8403287 378.360664,16.9022301 378.408467,16.9578459 C378.444938,17.0046053 378.493713,17.0472916 378.554793,17.0859057 C378.615873,17.1245198 378.687397,17.1439181 378.769367,17.144101 C378.716082,17.2941089 378.657219,17.3986861 378.592778,17.4578361 C378.556131,17.4930782 378.523292,17.5176052 378.494257,17.5314178 C378.407154,17.5728551 378.272783,17.6047252 378.09114,17.6270282 C377.909496,17.6493312 377.726084,17.6154908 377.540897,17.5255061 C377.474151,17.4824638 377.409354,17.4135645 377.346502,17.318807 C377.286129,17.2442394 377.229297,17.1359346 377.176003,16.9938892 C377.12271,16.8518437 377.071719,16.6659668 377.023027,16.4362526 C376.918935,16.7564587 376.789438,17.0157341 376.634533,17.2140855 C376.479627,17.4124373 376.321359,17.5625241 376.159723,17.6643505 C375.981624,17.7989412 375.792903,17.888721 375.593556,17.9336929 C375.343753,17.9848597 375.09882,17.9713823 374.858751,17.8932601 C374.618681,17.8151379 374.407117,17.6771571 374.224051,17.4793129 C374.040986,17.2814691 373.889878,17.0310295 373.770721,16.7279868 C373.651565,16.4249442 373.582953,16.0747109 373.564885,15.6772762 C373.544337,15.2596507 373.579823,14.8812648 373.671345,14.542107 C373.762866,14.2029488 373.883952,13.8960314 374.034607,13.6213453 C374.185261,13.3466593 374.350653,13.1085951 374.530787,12.907146 C374.710921,12.7056966 374.887202,12.5354653 375.059636,12.3964465 C375.23207,12.257428 375.382993,12.1517944 375.512408,12.0795429 C375.641823,12.0072913 375.726091,11.9636403 375.765217,11.948589 C375.872503,11.9046732 375.967129,11.8828074 376.049099,11.8829903 C376.131069,11.8831729 376.207285,11.9199282 376.277749,11.9932563 C376.30165,12.0210639 376.331216,12.0532995 376.366449,12.0899639 C376.391589,12.127867 376.423325,12.1777689 376.461656,12.2396715 C376.499987,12.3015736 376.534201,12.3716664 376.5643,12.4499507 C376.335744,12.5907366 376.123878,12.7422807 375.928694,12.9045876 C375.733511,13.0668949 375.559399,13.2547926 375.406353,13.4682875 C375.253306,13.681782 375.127926,13.9328661 375.030207,14.2215477 C374.932487,14.510229 374.872481,14.8557598 374.850184,15.2581511 C374.810009,15.7652124 374.886721,16.160564 375.080323,16.4442184 C375.273924,16.7278727 375.503855,16.8277326 375.770123,16.7438019 C375.925385,16.6735004 376.070023,16.5583909 376.204038,16.3984707 C376.320351,16.2612189 376.436793,16.0624692 376.553367,15.8022152 C376.669942,15.5419612 376.76779,15.1917836 376.846916,14.7516725 C376.823,14.1397579 376.807319,13.6574953 376.799874,13.3048701 C376.792429,12.9522448 376.792688,12.6832196 376.80065,12.4977868 C376.814984,12.2808287 376.827905,12.1357791 376.83941,12.062634 C376.863487,12.0084402 376.918146,11.9530538 377.003389,11.8964734 C377.088633,11.839893 377.184896,11.7896454 377.292182,11.74573 C377.399467,11.7018145 377.49821,11.6717574 377.588411,11.6555582 C377.678613,11.639359 377.73947,11.6344488 377.770984,11.6408271 C377.792406,11.648444 377.817681,11.7708711 377.846811,12.0081111 C377.87594,12.2453511 377.904938,12.5440877 377.933805,12.9043303 C377.962672,13.2645728 377.992734,13.6554052 378.023993,14.0768393 C378.055252,14.4982731 378.086244,14.8966771 378.11697,15.2720624 C378.147697,15.6474477 378.17758,15.9742563 378.206622,16.252497 C378.235664,16.5307381 378.264615,16.7039504 378.293474,16.7721397 L378.293474,16.7721397 L378.293474,16.7721397 Z M385.644343,10.5818728 C386.128726,10.5223982 386.358263,10.8067588 386.332963,11.4349642 C386.324826,11.7023989 386.297571,12.064403 386.251199,12.5209877 C386.204826,12.9775724 386.135395,13.4549143 386.042904,13.9530282 C385.950413,14.4511417 385.833669,14.9394167 385.692669,15.4178678 C385.551668,15.8963189 385.383094,16.2961697 385.186941,16.6174323 C384.987419,16.7444057 384.813216,16.8272792 384.664326,16.8660558 C384.586074,16.8961591 384.516056,16.9098797 384.454269,16.907219 C384.373538,16.9171315 384.296615,16.9163288 384.223497,16.9048118 C384.150379,16.8932944 384.077305,16.8612771 384.004275,16.8087593 C383.931244,16.7562411 383.859541,16.6728187 383.789165,16.5584899 C383.718788,16.4441606 383.655448,16.2828563 383.599144,16.0745716 C383.510261,15.7678118 383.395576,15.4386066 383.255085,15.0869463 C383.114594,14.7352856 382.975301,14.4142254 382.837201,14.1237566 C382.779848,14.4074816 382.720282,14.694036 382.658502,14.9834286 C382.596722,15.2728208 382.532775,15.5445422 382.466656,15.7986013 C382.400538,16.05266 382.333845,16.2811672 382.266575,16.4841298 C382.199304,16.6870923 382.131503,16.8440043 382.063168,16.95487 C381.748748,17.1471883 381.517717,17.2677818 381.370066,17.3166539 C381.282963,17.3580912 381.208519,17.377479 381.146732,17.3748183 C380.912677,17.1371209 380.701685,16.8786631 380.513749,16.5994369 C380.325813,16.3202108 380.170322,16.0549382 380.047272,15.8036112 C379.899082,15.5143812 379.771075,15.2226775 379.66325,14.9284911 C379.535416,14.5547815 379.434672,14.1931222 379.361014,13.8435035 C379.287356,13.4938843 379.219631,13.1717222 379.157835,12.8770078 C379.096041,12.5822934 379.033849,12.32606 378.971259,12.1082998 C378.90867,11.8905393 378.823908,11.7216176 378.716973,11.6015301 C378.799117,11.5197111 378.896708,11.438559 379.009746,11.3580706 C379.122785,11.2775827 379.243966,11.2217139 379.373293,11.1904631 C379.502621,11.1592126 379.637568,11.1528904 379.778139,11.1714967 C379.91871,11.1901033 380.062024,11.2519233 380.208086,11.3569596 C380.260496,11.61696 380.306931,11.8700043 380.347391,12.1161006 C380.387852,12.3621969 380.425522,12.5855757 380.460405,12.7862431 C380.499006,13.0171963 380.530701,13.2336229 380.555492,13.4355293 C380.596572,13.6866733 380.642034,13.9526465 380.691878,14.2334572 C380.741723,14.5142675 380.798515,14.7890966 380.862256,15.0579533 C380.925998,15.32681 381.005229,15.5758275 381.099952,15.8050136 C381.194675,16.0341997 381.307453,16.2227378 381.43829,16.3706334 C381.526982,16.1752882 381.646519,15.8557517 381.796904,15.4120146 C381.947288,14.9682779 382.049027,14.4203609 382.102122,13.7682479 C382.12035,13.4995742 382.120919,13.2330731 382.103827,12.9687361 C382.086736,12.704399 382.057297,12.4646388 382.01551,12.2494479 C381.973723,12.0342573 381.929989,11.844927 381.884308,11.6814517 C381.838628,11.5179768 381.796313,11.4027657 381.757362,11.3358158 C381.831895,11.2754267 381.913021,11.2270378 382.000744,11.1906481 C382.088467,11.1542582 382.171452,11.1210123 382.249704,11.0909094 C382.338046,11.0595671 382.422581,11.0389403 382.503312,11.0290278 C382.763206,10.9766216 382.948212,11.0025809 383.058334,11.1069058 C383.168456,11.2112311 383.217501,11.4229657 383.205471,11.7421161 C383.205296,11.8241176 383.195252,11.9508809 383.17534,12.1224101 C383.155427,12.2939388 383.129452,12.4995137 383.097414,12.7391407 C383.182753,12.9336125 383.284689,13.1798425 383.403226,13.4778374 C383.521762,13.7758323 383.639368,14.0662511 383.756045,14.3491033 C383.8513,14.6243379 383.947173,14.904616 384.043668,15.1899459 C384.140163,15.4752759 384.222227,15.7265076 384.289862,15.9436487 C384.339079,15.927358 384.387055,15.9009724 384.433793,15.8644913 C384.480531,15.8280098 384.519124,15.7669106 384.549573,15.6811919 C384.581261,15.6055683 384.622508,15.4826592 384.673314,15.312461 C384.72412,15.1422623 384.775633,14.9361135 384.827854,14.6940088 C384.880075,14.4519041 384.926673,14.1848746 384.96765,13.8929128 C385.008628,13.6009506 385.039557,13.2897321 385.060439,12.9592477 C385.092112,12.2995174 385.077361,11.8248259 385.016186,11.5351592 C384.955011,11.2454926 384.872816,11.055761 384.769599,10.9659596 C384.861835,10.8829016 384.958762,10.817202 385.060382,10.768858 C385.162002,10.7205144 385.256982,10.680672 385.345325,10.6493301 C385.45385,10.6155098 385.553522,10.5930243 385.644343,10.5818728 L385.644343,10.5818728 L385.644343,10.5818728 Z M391.225169,11.2492994 C391.242523,11.3906339 391.222344,11.5391365 391.164633,11.6948115 C391.106922,11.8504865 391.030622,12.0007561 390.935732,12.1456252 C390.840842,12.2904938 390.73117,12.4192428 390.606713,12.5318755 C390.482256,12.6445083 390.360722,12.7183533 390.242105,12.7534127 C390.284409,12.4305452 390.279889,12.1851634 390.228542,12.0172603 C390.177196,11.8493568 390.111246,11.7293622 390.030691,11.6572732 C389.938805,11.5763278 389.831695,11.5382423 389.70936,11.5430156 C389.527717,11.5653186 389.36635,11.6901673 389.225254,11.9175659 C389.084158,12.1449645 388.971348,12.4149999 388.886819,12.7276806 C388.80229,13.0403612 388.74547,13.3701302 388.716355,13.7169968 C388.687242,14.0638634 388.689418,14.3735787 388.722886,14.6461526 C388.736346,14.8392027 388.764323,15.0253439 388.806818,15.2045818 C388.835502,15.3547722 388.872375,15.5090791 388.917435,15.6675067 C388.962496,15.8259344 389.015832,15.9474773 389.077445,16.0321403 C389.023095,16.0900509 388.932143,16.1627027 388.804588,16.2500974 C388.677032,16.3374916 388.541334,16.4002663 388.397489,16.4384234 C388.253644,16.4765805 388.119361,16.4674499 387.994634,16.411032 C387.869907,16.3546137 387.788245,16.2109301 387.749644,15.9799769 C387.702191,15.7603578 387.658898,15.5120511 387.619766,15.2350494 C387.580632,14.9580473 387.546545,14.6804304 387.517503,14.4021893 C387.488461,14.1239486 387.462252,13.847926 387.438876,13.5741131 C387.415499,13.3003002 387.399647,13.0460624 387.391321,12.811392 C387.356963,12.3647198 387.32491,12.0202448 387.295161,11.7779572 C387.265412,11.5356695 387.231857,11.3041002 387.194495,11.083242 C387.189537,11.0428608 387.250525,10.9764501 387.377461,10.8840077 C387.504397,10.7915658 387.647397,10.7048376 387.806466,10.6238216 C387.965536,10.5428051 388.115087,10.4885767 388.255126,10.4611345 C388.395164,10.4336924 388.469521,10.4553045 388.478198,10.5259719 C388.491833,10.6370206 388.506178,10.8581391 388.521236,11.1893349 C388.536293,11.5205304 388.545331,11.8652695 388.54835,12.223562 C388.595437,12.0230772 388.66337,11.8046654 388.75215,11.568319 C388.84093,11.3319726 388.949227,11.1086047 389.077045,10.8982078 C389.204863,10.6878105 389.35689,10.507748 389.53313,10.3580146 C389.70937,10.2082808 389.913538,10.1191665 390.145637,10.0906683 C390.327281,10.0683652 390.482942,10.1056126 390.612627,10.2024121 C390.742313,10.2992116 390.85115,10.4139399 390.939142,10.5466014 C391.027135,10.6792624 391.094944,10.8143994 391.142572,10.952017 C391.1902,11.0896343 391.217732,11.1887274 391.225169,11.2492994 L391.225169,11.2492994 L391.225169,11.2492994 Z M392.494964,14.5980223 C392.35615,14.051453 392.235529,13.5487713 392.133099,13.0899621 C392.030669,12.6311529 391.949531,12.2414685 391.889683,11.9208961 C391.812306,11.5409912 391.74998,11.2002333 391.702702,10.8986127 C391.626565,10.5288032 391.554855,10.1533317 391.487569,9.77218774 C391.420284,9.39104331 391.362427,9.02411853 391.313997,8.67140175 C391.265567,8.31868497 391.224353,7.98302046 391.190352,7.66439852 C391.156352,7.34577619 391.129524,7.06470595 391.109866,6.8211792 C391.090208,6.57765246 391.15969,6.37185936 391.318314,6.20379377 C391.476938,6.03572817 391.655655,5.90618708 391.85447,5.81516672 C392.053284,5.72414675 392.241297,5.67031922 392.418515,5.65368347 C392.595732,5.63704772 392.688058,5.65901559 392.695496,5.7195876 C392.735336,5.96063621 392.776594,6.27580057 392.819271,6.66508993 C392.861948,7.05437928 392.901172,7.43640121 392.936944,7.81116739 C392.980153,8.24650519 393.020796,8.70264631 393.058872,9.17960473 C393.099427,9.67675362 393.134229,10.2104668 393.163279,10.7807612 C393.192503,11.2690538 393.225978,11.8336724 393.263705,12.4746342 C393.301431,13.1155956 393.334024,13.7981671 393.361484,14.5223695 C393.327317,14.5778019 393.289078,14.620925 393.246766,14.6517388 C393.204454,14.6825531 393.164355,14.7105331 393.126469,14.7356801 C393.078492,14.7620658 393.029276,14.7783564 392.978819,14.7845516 C392.918271,14.791986 392.86153,14.7887053 392.808595,14.7747102 C392.692633,14.7479581 392.58809,14.6890627 392.494964,14.5980223 L392.494964,14.5980223 L392.494964,14.5980223 Z M393.458431,15.1867988 C393.650166,15.1632567 393.818441,15.1989553 393.963263,15.2938962 C394.108085,15.3888371 394.19289,15.5372586 394.217681,15.7391651 C394.232556,15.8603087 394.223132,15.9921197 394.18941,16.1346018 C394.155687,16.2770842 394.092975,16.4128761 394.001271,16.5419825 C393.909567,16.6710886 393.787635,16.7834102 393.635471,16.8789498 C393.483307,16.9744898 393.291178,17.0365078 393.059078,17.0650061 C392.857252,17.0897872 392.695925,17.0481116 392.575092,16.9399777 C392.454258,16.8318437 392.382687,16.6869212 392.360375,16.5052055 C392.323189,16.2023458 392.408602,15.9177412 392.616618,15.6513834 C392.824634,15.3850256 393.105236,15.2301657 393.458431,15.1867988 L393.458431,15.1867988 L393.458431,15.1867988 Z" id="Rawr!" fill="#333333"></path>
                </g>
            </g>
        </g>
    </g>
</svg>