<?xml version="1.0" encoding="UTF-8" standalone="no"?>
<svg width="510px" height="236px" viewBox="0 0 510 236" version="1.1" xmlns="http://www.w3.org/2000/svg" xmlns:xlink="http://www.w3.org/1999/xlink">
    <!-- Generator: Sketch 3.6.1 (26313) - http://www.bohemiancoding.com/sketch -->
    <title>logo</title>
    <desc>Created with Sketch.</desc>
    <defs></defs>
    <g id="Welcome" stroke="none" stroke-width="1" fill="none" fill-rule="evenodd">
        <g id="Desktop-HD" transform="translate(-475.000000, -143.000000)">
            <g id="header" transform="translate(475.000000, 28.000000)">
                <g id="logo" transform="translate(0.000000, 115.000000)">
                    <g id="Page-1">
                        <g id="logo">
                            <path d="M32.2653026,57.9047976 C31.6224779,55.9117402 30.9957333,54.1437315 30.3850499,52.6007192 C29.7743664,51.0577069 29.244044,49.7397373 28.7940668,48.6467701 C26.2870506,49.4825683 23.5550868,50.0611893 20.5980934,50.3826503 C20.5980934,54.4973497 20.6945156,58.0012211 20.887363,60.8943691 C20.9516455,62.69455 21.0319974,64.2214662 21.1284211,65.4751639 C21.2248448,66.7288612 21.321267,67.805739 21.4176907,68.7058297 C21.5141144,69.6059204 21.626607,70.4256331 21.755172,71.1649932 C21.8837369,71.9043534 22.0765814,72.6276294 22.3337113,73.3348435 C21.0480619,74.2992262 19.8106431,75.0064296 18.6214174,75.4564747 C17.4321918,75.9065198 16.3876174,76.2279761 15.4876629,76.4208526 C14.394861,76.6780212 13.4306384,76.7423124 12.5949664,76.6137283 C12.2735541,75.7136377 11.9842873,74.7653421 11.7271574,73.7688134 C11.4700276,72.7722847 11.2932534,71.4221691 11.1968297,69.7184263 C11.100406,68.0146839 11.0521949,65.8448551 11.0521949,63.208876 C11.0521949,60.5728965 11.1486172,57.1976075 11.3414646,53.0829082 C11.405747,52.632863 11.4378878,52.1828244 11.4378878,51.7327793 C11.4378878,51.2827341 11.4700285,50.8326955 11.534311,50.3826503 C10.9557688,50.3183579 10.3611649,50.2540667 9.75048149,50.1897747 C9.13979809,50.1254826 8.5451942,50.061191 7.966652,49.996899 C7.5809572,48.9682242 7.32383117,48.0520743 7.19526627,47.2484221 C7.06670132,46.44477 7.00241982,45.7857847 7.00241982,45.2714476 C7.00241982,44.6285255 7.06670132,44.1141961 7.19526627,43.728443 C8.22378572,43.9213195 9.25228975,44.0177563 10.2808092,44.0177563 L11.7271574,44.0177563 C11.8557224,41.3174848 11.9842854,38.5690353 12.1128503,35.7723255 C12.2414152,32.9756157 12.3539079,30.2432391 12.4503316,27.5751137 C12.5467553,24.9069882 12.6271071,22.3674852 12.6913896,19.9565285 C12.7556721,17.5455718 12.8199536,15.3435976 12.884236,13.3505401 C10.955762,14.6363837 9.28444302,16.3079553 7.87022878,18.365305 C6.45601453,20.4226548 5.491792,22.8014297 4.9775323,25.5017012 C4.14186023,25.3731169 3.43476371,24.9712968 2.85622152,24.2962289 C2.27767933,23.621161 1.79556806,22.9300304 1.40987327,22.2228165 C0.959896011,21.3870181 0.574206999,20.4547955 0.252794671,19.4261207 C-0.0686176577,18.2045693 -0.0686176577,16.9669634 0.252794671,15.7132659 C0.574206999,14.4595684 1.05631826,13.2701809 1.69914292,12.1450678 C2.34196758,11.0199547 3.08120484,10.0234408 3.9168769,9.15549637 C4.75254893,8.28755198 5.55606771,7.59642139 6.32745731,7.08208398 C7.6773891,6.24628566 9.07551173,5.49086388 10.5218672,4.815796 C11.9682227,4.1407281 13.5913306,3.57817997 15.3912397,3.12813471 C16.0983468,2.42092074 16.8857952,1.77800859 17.7536085,1.19937898 C18.6214217,0.620749365 19.4410109,0.267147685 20.2124005,0.138563327 C21.3052024,-0.11860539 21.9158767,0.556452365 22.0444416,2.16375685 C22.6229838,2.09946467 23.2336581,2.05124626 23.8764827,2.01910017 C24.5193074,1.98695408 25.1942632,1.97088127 25.9013703,1.97088127 C28.3441039,1.97088127 30.8832233,2.35662856 33.5188044,3.12813471 C36.1543855,3.89964087 38.5810122,5.13724673 40.7987572,6.84098948 C43.0165025,8.54473224 44.8324545,10.7627792 46.2466691,13.4951968 C47.6608832,16.2276144 48.3679797,19.5546848 48.3679797,23.4765077 C48.3679797,27.9126681 47.3234053,31.9951602 45.2342251,35.7241066 C43.1450453,39.453053 40.1720256,42.5390313 36.3150776,44.9821343 C36.7650549,46.1393935 37.3435884,47.5859459 38.0506956,49.3218347 C38.7578027,51.0577232 39.4648992,53.0186054 40.1720063,55.2045394 C41.2005258,57.9048109 42.3093817,60.4282411 43.4986075,62.7749056 C44.687833,65.1215701 45.9252519,67.1628165 47.2109013,68.8987054 C48.4965504,70.6345942 49.846462,72.032928 51.2606761,73.0937488 C52.6748907,74.1545699 54.0890833,74.7814091 55.5032979,74.9742857 C54.6676255,76.2601294 53.7034031,77.1602063 52.6106015,77.6745439 C51.5177994,78.1888811 50.4250136,78.5103374 49.332212,78.6389219 C48.1108448,78.8317984 46.8252151,78.8317984 45.4752833,78.6389219 C43.6110917,78.2531688 42.0040542,77.3530915 40.6541224,75.9386637 C39.3041906,74.5242358 38.1310532,72.8205183 37.134675,70.8274609 C36.1382968,68.8344035 35.2383558,66.6967207 34.4348249,64.4143483 C33.6312941,62.1319758 32.9081272,59.9621475 32.2653026,57.9047976 L32.2653026,57.9047976 L32.2653026,57.9047976 Z M21.0802095,16.8223004 C21.0802095,18.2367284 21.0480687,19.9404455 20.9837862,21.9335031 C20.9195038,23.9265607 20.8712926,26.0803164 20.8391514,28.3948348 C20.8070102,30.7093533 20.758799,33.1363467 20.6945166,35.6758877 C20.6302341,38.2154288 20.5980934,40.738859 20.5980934,43.246254 C22.3337199,42.9890854 24.2460946,42.5711924 26.3352747,41.9925627 C28.4244549,41.4139331 30.3689703,40.4495649 32.1688793,39.0994292 C33.9687884,37.7492934 35.4794037,35.9491394 36.7007705,33.6989131 C37.9221374,31.4486868 38.5328117,28.5555822 38.5328117,25.0195123 C38.5328117,22.3192408 38.0667707,20.0208298 37.134675,18.1242105 C36.2025792,16.2275912 34.9973011,14.6846021 33.5188044,13.4951968 C32.0403077,12.3057915 30.4171997,11.4378601 28.6494319,10.8913765 C26.8816641,10.344893 25.1299932,10.0716554 23.3943666,10.0716554 L22.4301345,10.0716554 C22.1087222,10.0716554 21.7551739,10.1038009 21.3694791,10.1680932 C21.1766317,12.2254429 21.0802095,14.4434898 21.0802095,16.8223004 L21.0802095,16.8223004 L21.0802095,16.8223004 Z M66.5805438,68.8987054 C62.0807713,68.8987054 58.6095701,67.3878618 56.1668366,64.3661293 C53.7241028,61.3443967 52.5027541,57.3904871 52.5027541,52.5042815 C52.5027541,49.0967959 53.0009361,45.8983083 53.9973142,42.9087217 C54.9936924,39.9191354 56.3275334,37.331414 57.9988777,35.1454799 C59.6702215,32.9595458 61.6147369,31.2397558 63.8324822,29.9860583 C66.0502271,28.7323608 68.3804317,28.1055215 70.8231655,28.1055215 C73.2016166,28.1055215 75.2264841,28.9573801 76.8978279,30.6611228 C78.5691722,32.3648656 79.4048316,34.7918589 79.4048316,37.9421757 C79.4048316,39.9995254 78.954861,42.0407715 78.0549067,44.0659753 C77.154952,46.0911788 75.9818147,47.8913326 74.5354594,49.4664914 C73.0891037,51.0416497 71.4981364,52.3114011 69.7625098,53.2757838 C68.0268836,54.2401665 66.3555642,54.7223508 64.7485027,54.7223508 C63.7199834,54.7223508 62.8521828,54.593768 62.1450759,54.3365994 C61.4379687,54.0794309 60.7951536,53.6936834 60.2166114,53.1793462 C60.4094588,56.844 61.2129775,59.3995759 62.6271921,60.8461501 C64.0414062,62.292724 65.8734288,63.0160003 68.1233153,63.0160003 C69.6660944,63.0160003 71.0320762,62.694544 72.2213022,62.0516224 C73.4105278,61.4087007 74.4229615,60.6693517 75.2586334,59.8335531 C76.0943053,58.9977549 76.7692611,58.1458962 77.283521,57.277952 C77.7977804,56.4100073 78.1513289,55.7510225 78.3441763,55.3009774 C78.5370237,54.9152243 78.8745016,54.7223508 79.3566199,54.7223508 C79.8387386,54.7223508 80.0797943,55.1080979 80.0797943,55.879604 C80.0797943,56.5868181 79.8387386,57.663696 79.3566199,59.1102699 C78.8745016,60.5568441 78.087053,62.003396 76.9942514,63.4499703 C75.9014493,64.8965441 74.5033268,66.166296 72.7998414,67.2592627 C71.096356,68.3522299 69.0232777,68.8987054 66.5805438,68.8987054 L66.5805438,68.8987054 L66.5805438,68.8987054 Z M71.0160116,32.2523463 C70.6303168,32.2523463 69.9071502,32.6541664 68.8464892,33.4578186 C67.7858288,34.2614709 66.6609023,35.4347856 65.4716767,36.9777978 C64.2824512,38.5208101 63.1896658,40.3691826 62.1932877,42.5229706 C61.1969091,44.6767587 60.5701646,47.1037518 60.3130349,49.8040233 C64.1699829,48.9039331 67.2233541,47.4895263 69.4732402,45.5607609 C71.7231266,43.6319955 72.8480527,40.803182 72.8480527,37.0742356 C72.8480527,35.2097624 72.6230676,33.9400109 72.1730905,33.2649431 C71.7231133,32.5898752 71.3374241,32.2523463 71.0160116,32.2523463 L71.0160116,32.2523463 L71.0160116,32.2523463 Z M98.1959349,5.3462038 C98.0673703,7.66072227 97.8423847,10.3288077 97.5209727,13.3505401 C97.1995602,16.3722725 96.8620823,19.6189789 96.5085286,23.0907565 C96.154975,26.5625343 95.8014269,30.1949879 95.4478733,33.9882265 C95.0943197,37.781465 94.7889825,41.6067923 94.5318528,45.4643233 C94.2747231,49.3218536 94.1622303,52.4560505 94.1943714,54.8670075 C94.2265126,57.277964 94.3711461,59.2549188 94.6282758,60.7979311 C94.885406,62.3409434 95.238954,63.5624766 95.6889316,64.4625669 C96.1389087,65.3626575 96.7174423,66.2305889 97.4245492,67.0663875 C96.5888772,67.5807246 95.8174992,67.9664721 95.110392,68.2236407 C94.4032851,68.4808093 93.7926108,68.6736833 93.2783509,68.8022673 C92.6355264,68.9951439 92.0569928,69.0915806 91.5427329,69.0915806 C90.5784959,69.0915806 89.7428364,68.6254694 89.0357296,67.6932327 C88.3286223,66.7609965 87.7661593,65.5555362 87.3483233,64.0768159 C86.9304869,62.5980957 86.6090796,60.9425972 86.3840911,59.1102699 C86.1591025,57.2779429 86.0466097,55.4617161 86.0466097,53.6615348 C86.0466097,51.7327694 86.1108912,49.4986499 86.2394563,46.9591088 C86.3680209,44.4195678 86.5126544,41.7193367 86.6733607,38.8583347 C86.8340669,35.9973327 87.0108411,33.0077912 87.2036885,29.8896205 C87.3965359,26.7714498 87.5572396,23.6693987 87.6858042,20.5833741 C87.8143693,18.2045635 87.9429322,16.0508078 88.0714973,14.1220424 C88.2000624,12.4504457 88.2964846,10.9235294 88.3607669,9.54124751 C88.4250492,8.15896567 88.3929085,7.33925268 88.2643439,7.08208398 C88.6500387,6.56774653 89.1321496,6.18199924 89.7106918,5.92483054 C90.289234,5.66766179 90.8356269,5.44264254 91.3498868,5.24976604 C91.9927113,5.0568895 92.6355264,4.89616143 93.2783509,4.7675771 L95.110392,4.7675771 C95.6246518,4.7675771 96.1710447,4.81579548 96.7495869,4.91223375 C97.3281291,5.00867202 97.8102401,5.15332726 98.1959349,5.3462038 L98.1959349,5.3462038 L98.1959349,5.3462038 Z M103.294942,33.6989131 C103.294942,33.31316 103.809194,32.8952671 104.837713,32.4452219 C105.866233,31.9951766 107.007229,31.6255021 108.260737,31.3361873 C109.514246,31.0468725 110.671312,30.8861445 111.731973,30.8539984 C112.792634,30.8218523 113.322956,31.0629444 113.322956,31.5772818 C113.322956,32.5416645 113.258675,33.9078528 113.13011,35.6758877 C113.001545,37.4439227 112.840841,39.3083679 112.647994,41.2692793 C112.455146,43.2301909 112.262302,45.1910727 112.069455,47.1519845 C111.876607,49.1128959 111.748044,50.7683944 111.683762,52.1185302 C111.555196,53.5329584 111.426634,55.0759476 111.298069,56.7475439 C111.169504,58.1619722 111.073082,59.7371069 111.008799,61.4729958 C110.944517,63.2088846 110.944517,64.9768929 111.008799,66.7770738 C111.008799,67.0985348 110.687392,67.4199907 110.044567,67.7414517 C109.401742,68.0629128 108.694646,68.3040049 107.923256,68.464735 C107.151866,68.6254655 106.412629,68.7058297 105.705522,68.7058297 C104.998415,68.7058297 104.612726,68.5772474 104.548443,68.3200783 C104.419879,68.0629098 104.291315,67.6128711 104.162751,66.9699494 C104.034186,66.3270278 103.905623,65.4108779 103.777058,64.2214726 C103.648493,63.0320673 103.55207,61.4890782 103.487788,59.5924588 C103.423506,57.6958395 103.455646,55.3974288 103.584212,52.6971572 C103.841341,47.3609062 103.873482,43.2301956 103.680635,40.3049015 C103.487787,37.3796073 103.359224,35.1776332 103.294942,33.6989131 L103.294942,33.6989131 L103.294942,33.6989131 Z M110.044567,14.5077936 C111.330216,14.5077936 112.551565,14.8935408 113.708649,15.665047 C114.865734,16.4365531 115.444267,17.4652126 115.444267,18.7510562 C115.444267,19.7154388 115.203211,20.6476615 114.721093,21.547752 C114.238974,22.4478425 113.644371,23.2514827 112.937263,23.9586966 C112.230156,24.6659106 111.426637,25.2284587 110.526683,25.6463579 C109.626728,26.0642571 108.791069,26.2732035 108.019679,26.2732035 C106.99116,26.2732035 106.1555,26.0964027 105.512676,25.7427957 C104.869851,25.3891887 104.37167,24.9712958 104.018116,24.4891045 C103.664562,24.0069131 103.423507,23.4765106 103.294942,22.897881 C103.166377,22.3192514 103.102095,21.7727761 103.102095,21.2584386 C103.102095,20.6155168 103.198518,19.8922406 103.391365,19.0885884 C103.584212,18.2849362 103.93776,17.5455872 104.45202,16.8705193 C104.96628,16.1954515 105.673376,15.6329033 106.573331,15.1828581 C107.473286,14.7328128 108.630352,14.5077936 110.044567,14.5077936 L110.044567,14.5077936 L110.044567,14.5077936 Z M107.633986,23.4765077 C108.019681,23.4765077 108.453581,23.3318525 108.9357,23.0425376 C109.417818,22.7532228 109.867789,22.415694 110.285625,22.0299409 C110.703461,21.6441878 111.057009,21.226295 111.34628,20.7762497 C111.635551,20.3262044 111.780185,19.9404571 111.780185,19.6189962 C111.780185,19.1046588 111.523059,18.8474939 111.008799,18.8474939 C110.687387,18.8474939 110.285627,18.9760764 109.803509,19.2332451 C109.32139,19.4904138 108.85535,19.7957971 108.405372,20.1494041 C107.955395,20.503011 107.585776,20.8887583 107.296505,21.3066575 C107.007234,21.7245567 106.862601,22.1263768 106.862601,22.5121298 C106.862601,23.1550516 107.119727,23.4765077 107.633986,23.4765077 L107.633986,23.4765077 L107.633986,23.4765077 Z M147.831044,62.9195623 C147.959609,63.3696078 148.152453,63.7875005 148.409583,64.1732536 C148.602431,64.4947146 148.875627,64.8000979 149.229181,65.0894125 C149.582734,65.3787275 150.016634,65.5555285 150.530894,65.6198205 C150.080917,66.5199112 149.630946,67.1306774 149.180969,67.4521384 C148.923839,67.645015 148.698854,67.7735973 148.506006,67.8378898 C147.927464,68.0307663 147.059664,68.1272031 145.902579,68.1272031 C144.745495,68.1272031 143.620569,67.7736012 142.527767,67.0663875 C142.142072,66.7449265 141.788524,66.2627422 141.467112,65.6198205 C141.145699,65.105483 140.872503,64.382207 140.647514,63.4499703 C140.422526,62.5177336 140.245752,61.3122734 140.117187,59.8335531 C139.217232,61.7623185 138.204798,63.2892351 137.079855,64.4143483 C135.954912,65.5394615 134.846056,66.3591742 133.753254,66.8735118 C132.531888,67.5807255 131.278398,67.9986186 129.992749,68.1272031 C128.385687,68.2557872 126.859002,67.9825494 125.412646,67.3074818 C123.966291,66.6324137 122.744942,65.6037544 121.748564,64.2214726 C120.752186,62.8391908 119.996878,61.1515463 119.482618,59.1584889 C118.968359,57.165431 118.807655,54.9152385 119.000502,52.4078439 C119.19335,49.7718644 119.707601,47.4252351 120.543274,45.3678852 C121.378946,43.3105358 122.375309,41.4782359 123.532393,39.8709315 C124.689478,38.263627 125.910826,36.8974387 127.196476,35.7723255 C128.482125,34.6472124 129.719544,33.7149898 130.90877,32.9756297 C132.097995,32.2362696 133.126499,31.6897943 133.994313,31.3361873 C134.862126,30.9825804 135.424589,30.7736339 135.681719,30.7093417 C136.388826,30.5164652 136.9995,30.452174 137.51376,30.5164661 C138.028019,30.5807583 138.47799,30.8700688 138.863685,31.3844062 C138.99225,31.5772828 139.152954,31.802302 139.345801,32.0594707 C139.474366,32.3166394 139.63507,32.6541683 139.827917,33.0720675 C140.020764,33.4899666 140.181468,33.9560779 140.310033,34.4704154 C138.767254,35.1776293 137.32092,35.9651968 135.970988,36.8331412 C134.621057,37.7010856 133.383638,38.7458178 132.258695,39.9673693 C131.133751,41.1889207 130.153458,42.6676186 129.317786,44.4035072 C128.482114,46.1393961 127.839299,48.2610063 127.389322,50.7684013 C126.746497,53.9187179 126.923272,56.4582212 127.91965,58.3869866 C128.916028,60.315752 130.28201,61.1193921 132.017636,60.7979311 C133.046156,60.4764701 134.042519,59.8657039 135.006756,58.9656132 C135.842428,58.194107 136.726299,57.036865 137.658395,55.4938531 C138.59049,53.9508408 139.474361,51.8292306 140.310033,49.1289591 C140.631445,45.2714283 140.904642,42.2336683 141.12963,40.0155881 C141.354619,37.7975079 141.563534,36.1098635 141.756381,34.9526043 C142.013511,33.6024686 142.206356,32.7023916 142.33492,32.2523463 C142.527768,31.9308854 142.913457,31.6255021 143.491999,31.3361873 C144.070541,31.0468725 144.713356,30.8057805 145.420463,30.6129039 C146.127571,30.4200274 146.770386,30.3075177 147.348928,30.2753717 C147.92747,30.2432256 148.313159,30.2592984 148.506006,30.3235906 C148.634571,30.3878827 148.698853,31.1754501 148.698853,32.6863163 C148.698853,34.1971825 148.650642,36.0937734 148.554218,38.3761458 C148.457794,40.6585181 148.345302,43.1337301 148.216737,45.8018552 C148.088172,48.4699807 147.975679,50.993411 147.879256,53.3722215 C147.782832,55.7510324 147.71855,57.824424 147.686409,59.5924588 C147.654268,61.3604937 147.702479,62.4695172 147.831044,62.9195623 L147.831044,62.9195623 L147.831044,62.9195623 Z M157.365518,7.75714847 C157.879778,7.04993453 158.442241,6.43916795 159.052925,5.92483054 C159.663608,5.41049309 160.290353,4.99260021 160.933177,4.6711393 C161.640285,4.34967839 162.379522,4.09251355 163.150912,3.89963701 C163.729454,3.77105265 164.275846,3.70676143 164.790106,3.70676143 C165.240083,3.70676143 165.673983,3.73890704 166.09182,3.80319922 C166.509656,3.8674914 166.847134,4.02821944 167.104263,4.28538815 C166.975698,7.37141274 166.863206,9.99127975 166.766782,12.1450678 C166.670359,14.2988558 166.573936,16.1793738 166.477512,17.7866783 C166.381089,19.3939828 166.300737,20.8244623 166.236455,22.0781598 C166.172172,23.3318573 166.09182,24.6016088 165.995396,25.8874524 C165.898973,27.1732959 165.78648,28.5716299 165.657915,30.0824961 C165.52935,31.5933623 165.400787,33.4095891 165.272222,35.531231 C165.143657,36.8813668 165.047235,38.2475551 164.982953,39.629837 C164.91867,41.0121188 164.854388,42.4104527 164.790106,43.8248806 C165.368648,42.2175762 166.091815,40.5460046 166.959629,38.8101158 C167.827442,37.074227 168.839875,35.4990922 169.99696,34.0846643 C171.154044,32.6702363 172.471815,31.4969216 173.950312,30.564685 C175.428808,29.6324484 177.035846,29.1663371 178.771472,29.1663371 C181.214206,29.1663371 183.174792,29.8735405 184.653289,31.2879684 C186.131786,32.7023964 187.256712,34.4221864 188.028101,36.44739 C188.799491,38.4725937 189.297673,40.6102766 189.522661,42.8605028 C189.74765,45.1107291 189.860143,47.1037569 189.860143,48.8396458 C189.860143,50.5112421 189.651228,52.4881969 189.233392,54.7705694 C188.815555,57.0529419 188.076318,59.2388432 187.015658,61.3283391 C185.954997,63.417835 184.556874,65.2019159 182.821248,66.6806361 C181.085621,68.1593564 178.90005,68.8987054 176.264469,68.8987054 C174.400277,68.8987054 172.825381,68.5129579 171.539731,67.7414517 C170.254082,66.9699456 169.193437,66.0698687 168.357765,65.0411939 C167.522093,64.0125188 166.927489,62.9838595 166.573935,61.9551847 C166.220382,60.9265096 166.043608,60.1871606 166.043608,59.7371155 C166.043608,59.2870704 166.204312,58.7566675 166.525724,58.1458919 C166.847136,57.5351162 167.232825,56.9564952 167.682803,56.410012 C168.13278,55.8635284 168.614891,55.4134898 169.129151,55.0598827 C169.643411,54.7062761 170.06124,54.5616207 170.382653,54.6259127 C170.254088,56.7475547 170.398721,58.370908 170.816557,59.4960212 C171.234393,60.621134 171.732575,61.4408472 172.311117,61.9551847 C173.018224,62.5981064 173.789602,62.9517079 174.625274,63.0160003 C175.846641,63.0160003 176.923356,62.4373793 177.855452,61.2801201 C178.787548,60.1228608 179.574996,58.7084541 180.217821,57.0368577 C180.860645,55.3652609 181.358827,53.549034 181.712381,51.5881226 C182.065934,49.6272112 182.242708,47.8752755 182.242708,46.3322632 C182.242708,45.175004 182.162356,43.9373981 182.00165,42.6194084 C181.840944,41.3014187 181.599889,40.0798856 181.278476,38.9547725 C180.957064,37.8296593 180.507093,36.9135095 179.928551,36.2062955 C179.350009,35.4990816 178.642912,35.1454799 177.807241,35.1454799 C176.393026,35.1454799 174.914551,35.9491201 173.371772,37.5564246 C171.828993,39.1637291 170.4148,41.2692663 169.129151,43.8730997 C167.843501,46.4769327 166.782857,49.4182561 165.947185,52.6971572 C165.111513,55.9760584 164.725824,59.3192014 164.790106,62.726687 C164.790106,63.6267773 164.838317,64.4143448 164.934741,65.0894125 C165.031165,65.7644806 165.143657,66.3591742 165.272222,66.8735118 C163.729443,67.5164335 162.508094,67.902181 161.60814,68.030765 C161.09388,68.1593495 160.67605,68.1914951 160.354638,68.1272031 C159.454684,68.1272031 158.715446,67.870038 158.136904,67.3557008 C157.558362,66.8413632 157.204814,65.7484128 157.076249,64.0768159 C157.011967,63.4981863 156.979826,61.9069786 156.979826,59.3031455 L156.979826,49.8522423 C156.979826,46.1554421 156.995896,42.1533139 157.028037,37.8457379 C157.060179,33.5381619 157.092319,29.3913785 157.124461,25.4052634 C157.156602,21.4191483 157.188742,17.8349131 157.220884,14.6524502 C157.253025,11.4699874 157.301236,9.17157642 157.365518,7.75714847 L157.365518,7.75714847 L157.365518,7.75714847 Z M207.976283,5.3462038 C207.847719,7.66072227 207.622733,10.3288077 207.301321,13.3505401 C206.979909,16.3722725 206.642431,19.6189789 206.288877,23.0907565 C205.935323,26.5625343 205.581775,30.1949879 205.228222,33.9882265 C204.874668,37.781465 204.569331,41.6067923 204.312201,45.4643233 C204.055071,49.3218536 203.942579,52.4560505 203.97472,54.8670075 C204.006861,57.277964 204.151494,59.2549188 204.408624,60.7979311 C204.665754,62.3409434 205.019302,63.5624766 205.46928,64.4625669 C205.919257,65.3626575 206.497791,66.2305889 207.204898,67.0663875 C206.369226,67.5807246 205.597848,67.9664721 204.89074,68.2236407 C204.183633,68.4808093 203.572959,68.6736833 203.058699,68.8022673 C202.415875,68.9951439 201.837341,69.0915806 201.323081,69.0915806 C200.358844,69.0915806 199.523185,68.6254694 198.816078,67.6932327 C198.108971,66.7609965 197.546508,65.5555362 197.128672,64.0768159 C196.710835,62.5980957 196.389428,60.9425972 196.164439,59.1102699 C195.939451,57.2779429 195.826958,55.4617161 195.826958,53.6615348 C195.826958,51.7327694 195.89124,49.4986499 196.019805,46.9591088 C196.148369,44.4195678 196.293003,41.7193367 196.453709,38.8583347 C196.614415,35.9973327 196.791189,33.0077912 196.984037,29.8896205 C197.176884,26.7714498 197.337588,23.6693987 197.466153,20.5833741 C197.594718,18.2045635 197.723281,16.0508078 197.851846,14.1220424 C197.980411,12.4504457 198.076833,10.9235294 198.141115,9.54124751 C198.205398,8.15896567 198.173257,7.33925268 198.044692,7.08208398 C198.430387,6.56774653 198.912498,6.18199924 199.49104,5.92483054 C200.069582,5.66766179 200.615975,5.44264254 201.130235,5.24976604 C201.77306,5.0568895 202.415875,4.89616143 203.058699,4.7675771 L204.89074,4.7675771 C205.405,4.7675771 205.951393,4.81579548 206.529935,4.91223375 C207.108477,5.00867202 207.590588,5.15332726 207.976283,5.3462038 L207.976283,5.3462038 L207.976283,5.3462038 Z M225.417462,68.8987054 C220.917689,68.8987054 217.446488,67.3878618 215.003754,64.3661293 C212.561021,61.3443967 211.339672,57.3904871 211.339672,52.5042815 C211.339672,49.0967959 211.837854,45.8983083 212.834232,42.9087217 C213.83061,39.9191354 215.164451,37.331414 216.835795,35.1454799 C218.50714,32.9595458 220.451655,31.2397558 222.6694,29.9860583 C224.887145,28.7323608 227.217349,28.1055215 229.660083,28.1055215 C232.038534,28.1055215 234.063402,28.9573801 235.734746,30.6611228 C237.40609,32.3648656 238.241749,34.7918589 238.241749,37.9421757 C238.241749,39.9995254 237.791779,42.0407715 236.891825,44.0659753 C235.99187,46.0911788 234.818732,47.8913326 233.372377,49.4664914 C231.926021,51.0416497 230.335055,52.3114011 228.599428,53.2757838 C226.863801,54.2401665 225.192482,54.7223508 223.585421,54.7223508 C222.556901,54.7223508 221.689101,54.593768 220.981994,54.3365994 C220.274886,54.0794309 219.632072,53.6936834 219.05353,53.1793462 C219.246377,56.844 220.049896,59.3995759 221.46411,60.8461501 C222.878324,62.292724 224.710347,63.0160003 226.960233,63.0160003 C228.503012,63.0160003 229.868994,62.694544 231.05822,62.0516224 C232.247446,61.4087007 233.259879,60.6693517 234.095551,59.8335531 C234.931223,58.9977549 235.606179,58.1458962 236.120439,57.277952 C236.634699,56.4100073 236.988247,55.7510225 237.181094,55.3009774 C237.373942,54.9152243 237.711419,54.7223508 238.193538,54.7223508 C238.675656,54.7223508 238.916712,55.1080979 238.916712,55.879604 C238.916712,56.5868181 238.675656,57.663696 238.193538,59.1102699 C237.711419,60.5568441 236.923971,62.003396 235.831169,63.4499703 C234.738367,64.8965441 233.340245,66.166296 231.636759,67.2592627 C229.933274,68.3522299 227.860195,68.8987054 225.417462,68.8987054 L225.417462,68.8987054 L225.417462,68.8987054 Z M229.85293,32.2523463 C229.467235,32.2523463 228.744068,32.6541664 227.683407,33.4578186 C226.622747,34.2614709 225.497821,35.4347856 224.308595,36.9777978 C223.119369,38.5208101 222.026584,40.3691826 221.030205,42.5229706 C220.033827,44.6767587 219.407082,47.1037518 219.149953,49.8040233 C223.006901,48.9039331 226.060272,47.4895263 228.310158,45.5607609 C230.560044,43.6319955 231.684971,40.803182 231.684971,37.0742356 C231.684971,35.2097624 231.459985,33.9400109 231.010008,33.2649431 C230.560031,32.5898752 230.174342,32.2523463 229.85293,32.2523463 L229.85293,32.2523463 L229.85293,32.2523463 Z M319.310827,76.0351013 C317.382353,75.9708092 316.064582,75.3761156 315.357475,74.2510024 C314.650368,73.1258892 314.232538,71.5668275 314.103973,69.5737696 C313.975408,67.5807122 314.03969,65.2180099 314.29682,62.4855923 C314.55395,59.7531748 314.682513,56.7797063 314.682513,53.5650971 C314.746795,47.2001713 314.987851,41.3978893 315.405687,36.1580766 C315.823523,30.9182641 315.936015,25.8231853 315.743168,20.8726875 L315.743168,19.8118718 C315.743168,19.4904109 315.711027,19.1689548 315.646745,18.8474939 C315.325332,19.940461 314.955714,21.1780669 314.537878,22.5603487 C314.120042,23.9426306 313.62186,25.4695469 313.043318,27.1411436 C311.886234,30.7415057 310.745237,34.4382505 309.620294,38.2314891 C308.495351,42.0247277 307.402565,45.7053995 306.341904,49.2736157 C305.281244,52.8418315 304.28488,56.1528293 303.352784,59.2067075 C302.420689,62.2605861 301.6011,64.8161619 300.893992,66.8735118 C300.186886,68.9308613 299.495859,70.4577778 298.820894,71.4543066 C298.145927,72.4508353 297.470972,73.1419661 296.796006,73.5277192 C296.12104,73.9134722 295.446084,74.0742002 294.771118,74.0099081 C294.096153,73.9456157 293.437267,73.8813245 292.794442,73.8170325 C292.537313,71.6310981 292.055201,69.0594497 291.348094,66.1020095 C290.640987,63.1445694 289.90175,60.3157558 289.13036,57.6154843 C288.230406,54.4651676 287.234043,51.2506066 286.141241,47.9717054 C284.662744,42.3139938 283.119988,37.1385509 281.512926,32.4452219 C279.905865,27.7518928 278.652375,23.8944199 277.752421,20.8726875 C277.366726,24.1515886 277.077459,27.9126247 276.884612,32.1559085 C276.691764,36.3991923 276.563201,40.6424125 276.498919,44.8856962 C276.434636,49.1289801 276.466777,53.1311083 276.595342,56.8922006 C276.723907,60.6532933 276.916752,63.691053 277.173881,66.0055715 C277.238164,66.9699542 277.366727,67.9343227 277.559574,68.8987054 C277.688139,69.7345036 277.864913,70.5863623 278.089902,71.4543066 C278.31489,72.3222512 278.588087,73.1098183 278.909499,73.8170325 C278.588087,74.074201 278.202398,74.2992202 277.752421,74.4920967 C277.302443,74.6849732 276.820332,74.8457016 276.306073,74.9742857 C275.72753,75.1671622 275.116856,75.3278902 274.474031,75.4564747 C271.967015,75.9708123 270.151063,75.9065211 269.02612,75.263599 C267.901176,74.6206773 267.21015,73.3348529 266.95302,71.4060875 C266.824456,70.4417048 266.728033,68.641551 266.663751,66.0055715 C266.599468,63.3695924 266.583398,60.3318323 266.615539,56.8922006 C266.647681,53.4525693 266.728032,49.8361882 266.856597,46.0429499 C266.985162,42.2497112 267.178007,38.7136944 267.435136,35.4347932 C267.692267,32.7988139 267.949392,29.9378549 268.206522,26.8518303 C268.463652,24.1515587 268.720778,21.0334348 268.977908,17.4973649 C269.235038,13.9612951 269.524305,10.1359678 269.845717,6.02126834 C270.038564,5.63551526 270.359972,5.29798636 270.809949,5.00867155 C271.259926,4.71935674 271.742037,4.47826469 272.256297,4.28538815 C272.83484,4.02821944 273.477655,3.83534579 274.184762,3.70676143 C275.277564,3.5138849 276.241786,3.35315686 277.077458,3.2245725 C277.784565,3.09598814 278.443451,2.99955132 279.054134,2.93525914 C279.664817,2.87096696 279.905873,2.87096696 279.777308,2.93525914 C280.61298,4.67114797 281.255795,6.1016275 281.705773,7.22674063 C282.15575,8.35185381 282.621791,9.68589648 283.103909,11.2289088 C283.586028,12.7719211 284.196702,14.7970944 284.93595,17.3044893 C285.675199,19.8118844 286.751914,23.3157556 288.166128,27.8162081 C290.094602,34.0525495 291.749851,39.4851572 293.131924,44.1141939 C294.513997,48.7432309 295.558571,52.2792478 296.265678,54.7223508 C296.715656,53.8865522 297.165626,52.9704022 297.615603,51.9738735 C298.065581,50.9773448 298.531621,49.7718846 299.01374,48.3574568 C299.495858,46.9430285 300.010111,45.2875301 300.556512,43.3909107 C301.102912,41.4942914 301.729657,39.228026 302.436764,36.5920467 C303.336719,33.6988986 304.2688,30.5807747 305.233037,27.2375814 C306.004427,24.4087255 306.856157,21.1780919 307.788253,17.5455838 C308.720349,13.9130757 309.604219,10.1359668 310.439891,6.21414389 C312.49693,5.37834556 314.168249,4.75150619 315.453898,4.33360705 C316.739548,3.91570788 317.735911,3.578179 318.443018,3.32101029 C319.27869,3.06384157 319.889364,2.90311353 320.275059,2.83882136 C320.660754,2.90311353 321.046443,3.09598718 321.432138,3.41744808 C321.75355,3.73890897 322.139239,4.18894747 322.589216,4.7675771 C323.039194,5.34620672 323.521305,6.21413809 324.035564,7.37139733 L324.035564,11.7110977 L324.035564,18.6063995 C324.035564,21.2102327 324.003424,24.0229734 323.939141,27.0447058 C323.874859,30.0664382 323.826648,33.1041982 323.794507,36.1580766 C323.762365,39.2119552 323.730225,42.1854239 323.698084,45.0785719 C323.665942,47.97172 323.617731,50.5433684 323.553449,52.7935949 C323.424884,56.2010805 323.408813,59.0941848 323.505237,61.4729958 C323.60166,63.8518063 323.794505,65.8287611 324.083776,67.4039194 C324.373047,68.9790777 324.758736,70.2488296 325.240855,71.2132123 C325.722973,72.177595 326.317577,72.9490895 327.024684,73.5277192 C326.831837,73.6563032 326.462218,73.8652498 325.915817,74.1545648 C325.369416,74.4438794 324.710531,74.7331897 323.939141,75.0225047 C323.167752,75.3118193 322.364233,75.5529114 321.528561,75.745788 C320.692889,75.9386645 319.953652,76.0351013 319.310827,76.0351013 L319.310827,76.0351013 L319.310827,76.0351013 Z M359.604308,51.2505903 C359.475743,53.7579853 359.041843,56.072469 358.302594,58.1941109 C357.563346,60.3157528 356.550912,62.1641253 355.265263,63.7392836 C353.979613,65.3144419 352.452928,66.5520478 350.68516,67.4521384 C348.917392,68.3522291 346.972877,68.8344129 344.851556,68.8987054 C342.987364,68.9629974 341.235693,68.5129588 339.59649,67.5485761 C337.957287,66.5841934 336.527024,65.2340782 335.305657,63.4981893 C334.08429,61.7623005 333.168279,59.6889085 332.557595,57.277952 C331.946912,54.8669954 331.770138,52.2471284 332.027268,49.4182724 C332.220115,46.1393712 332.83079,43.3266307 333.859309,40.979966 C334.887828,38.6333015 335.980614,36.6884922 337.137698,35.1454799 C338.294783,33.6024676 339.371498,32.4612985 340.367876,31.7219385 C341.364254,30.9825784 341.990999,30.5486127 342.248129,30.4200283 C342.698106,30.2271518 343.115936,30.1789334 343.50163,30.2753717 C343.887325,30.37181 344.305155,30.4843196 344.755132,30.6129039 C344.883697,30.6771961 345.01226,30.8379241 345.140825,31.0950929 C345.397955,31.5451381 345.558659,32.3809239 345.622941,33.6024753 C345.944354,32.8952614 346.362183,32.3166404 346.876443,31.8665952 C347.390703,31.4165499 347.904955,31.0950938 348.419214,30.9022173 C349.062039,30.6450486 349.704854,30.4843205 350.347679,30.4200283 C350.797656,30.3557362 351.585105,30.7093379 352.710048,31.480844 C353.834991,32.2523501 354.927776,33.4738832 355.988437,35.1454799 C357.049098,36.8170765 357.965109,38.986905 358.736499,41.6550305 C359.507889,44.3231559 359.797155,47.521644 359.604308,51.2505903 L359.604308,51.2505903 L359.604308,51.2505903 Z M353.047529,50.093337 C353.111812,48.5503247 353.0636,46.9912626 352.902894,45.4161042 C352.742188,43.8409459 352.485062,42.3943935 352.131508,41.0764038 C351.777955,39.7584141 351.344055,38.697609 350.829795,37.8939568 C350.315535,37.0903046 349.801283,36.6884845 349.287024,36.6884845 C348.708481,36.8170689 348.065666,37.1063793 347.358559,37.5564246 C346.780017,37.9421777 346.137202,38.5529442 345.430095,39.3887425 C344.722988,40.2245408 344.048032,41.4139283 343.405207,42.9569407 C343.340925,42.7640641 343.276644,42.4104624 343.212361,41.896125 C343.148078,41.4460797 343.099867,40.851386 343.067726,40.1120259 C343.035585,39.3726659 343.083796,38.3600792 343.212361,37.0742356 C342.312407,38.1672027 341.62138,39.453027 341.139262,40.9317471 C340.657143,42.4104672 340.287525,43.8248738 340.030395,45.1750095 C339.773265,46.7823143 339.58042,48.3895946 339.451856,49.996899 C339.387573,51.7327878 339.467925,53.4365049 339.692913,55.1081017 C339.917902,56.7796986 340.303591,58.2583965 340.849992,59.5442398 C341.396393,60.8300836 342.055279,61.8587428 342.826668,62.630249 C343.598058,63.4017551 344.530139,63.7553571 345.622941,63.6910646 C346.715743,63.6267726 347.679966,63.1767339 348.515638,62.3409357 C349.35131,61.5051375 350.090547,60.4443322 350.733372,59.1584889 C351.376197,57.8726451 351.890448,56.4260928 352.276143,54.8187884 C352.661838,53.2114841 352.918964,51.6363489 353.047529,50.093337 L353.047529,50.093337 L353.047529,50.093337 Z M374.827752,65.2340692 C374.76347,65.6198223 374.425992,66.0216423 373.815308,66.4395419 C373.204625,66.857441 372.497528,67.2271154 371.693998,67.5485761 C370.890467,67.8700371 370.135159,68.0789836 369.428052,68.1754217 C368.720945,68.2718602 368.238834,68.191496 367.981704,67.9343274 C367.724574,67.6771588 367.306744,67.1949746 366.728202,66.4877605 C366.14966,65.7805468 365.796111,64.6233047 365.667547,63.0160003 C365.538982,61.3444035 365.4747,59.2388664 365.4747,56.6993253 C365.4747,54.1597843 365.442559,51.3470433 365.378277,48.2610187 L365.378277,44.4035072 C365.378277,43.246248 365.362206,41.8961327 365.330065,40.3531204 C365.297924,38.8101081 365.249713,37.2028277 365.18543,35.531231 C365.763973,35.2097701 366.358576,34.9043869 366.96926,34.6150721 C367.579944,34.3257572 368.142407,34.0846652 368.656666,33.8917887 C369.235208,33.63462 369.781601,33.4417463 370.295861,33.313162 C371.645793,32.9274089 372.674297,32.7023896 373.381404,32.6380975 C374.088511,32.5738053 374.506341,32.7988245 374.634906,33.313162 C374.699188,33.698915 374.667047,34.6311376 374.538482,36.1098578 C374.409918,37.3957014 374.249214,39.3405106 374.056366,41.9443438 C373.863519,44.5481772 373.542111,48.1645579 373.092134,52.7935949 C373.927806,50.736245 374.618832,48.9682367 375.165233,47.4895164 C375.711634,46.0107966 376.177675,44.8214089 376.56337,43.9213187 C376.949065,42.8283514 377.302613,41.96042 377.624025,41.3174982 C377.945438,40.4816999 378.363268,39.5494773 378.877527,38.5208024 C379.391787,37.4921276 379.922109,36.5277593 380.46851,35.6276688 C381.014911,34.7275783 381.529163,33.9239382 382.011282,33.2167242 C382.4934,32.5095102 382.863019,32.0916173 383.120149,31.9630329 C383.312996,31.8344486 383.891529,31.8344486 384.855766,31.9630329 C385.820003,32.0916173 386.848508,32.3970006 387.941309,32.8791919 C389.034111,33.3613833 390.094756,34.036441 391.123276,34.9043854 C392.151795,35.7723298 392.826751,36.8170621 393.148163,38.0386135 C393.533858,39.4530415 393.678491,41.3174867 393.582068,43.632005 C393.485644,45.9465234 393.32494,48.3252987 393.099952,50.7684013 C392.874963,53.2115043 392.698189,55.5259879 392.569624,57.7119219 C392.441059,59.8978559 392.569622,61.5694278 392.955317,62.726687 C393.083882,63.3696087 393.276726,63.9482297 393.533856,64.4625669 C393.662421,64.9769045 393.839195,65.4430157 394.064184,65.8609148 C394.289172,66.2788139 394.530228,66.5841972 394.787358,66.7770738 C393.244579,67.4842879 391.991089,67.9986177 391.026852,68.3200783 C390.062615,68.6415394 389.323378,68.8665585 388.809119,68.995143 C388.166294,69.1880196 387.716323,69.2523107 387.459194,69.1880187 C386.880651,68.9951422 386.382469,68.5129579 385.964633,67.7414517 C385.546798,66.9699456 385.177179,65.7484128 384.855766,64.0768159 C384.727202,63.5624784 384.67899,62.71062 384.711132,61.5212144 C384.743273,60.3318091 384.823625,58.9816939 384.95219,57.4708276 C385.080755,55.9599613 385.225388,54.3848266 385.386094,52.7453758 C385.546801,51.1059255 385.675363,49.5629363 385.771787,48.1163621 C385.868211,46.6697882 385.948563,45.4161094 386.012845,44.3552886 C386.077128,43.2944675 386.077128,42.5711914 386.012845,42.1854383 C385.691433,41.0281791 385.241462,40.2084661 384.66292,39.7262748 C384.084378,39.2440834 383.634407,39.195865 383.312995,39.5816181 C382.477323,40.5460008 381.593452,42.1050627 380.661357,44.2588506 C379.729261,46.4126385 378.84539,48.7592683 378.009718,51.2988093 C377.174046,53.8383503 376.46695,56.3617806 375.888408,58.8691756 C375.309865,61.3765706 374.956317,63.4981803 374.827752,65.2340692 L374.827752,65.2340692 L374.827752,65.2340692 Z M415.603349,49.51471 C417.017563,50.0290476 418.367474,50.5112318 419.653124,50.961277 C420.938773,51.4113221 422.063699,51.9577975 423.027936,52.6007192 C423.992173,53.2436413 424.763551,53.9990628 425.342094,54.8670075 C425.920636,55.7349517 426.209903,56.8118295 426.209903,58.0976733 C426.209903,59.6406856 425.872425,61.087238 425.197459,62.4373737 C424.522493,63.7875095 423.5422,64.9768967 422.256551,66.0055715 C420.970902,67.0342466 419.412075,67.8539594 417.580025,68.464735 C415.747975,69.0755111 413.707037,69.3808944 411.45715,69.3808944 C408.950134,69.3808944 406.925267,69.1398022 405.382488,68.6576107 C403.839709,68.1754195 402.650501,67.6128711 401.814829,66.9699494 C400.979157,66.3270278 400.432764,65.6841156 400.175634,65.0411939 C399.918504,64.3982718 399.789941,63.8839424 399.789941,63.4981893 C399.789941,62.7266832 399.950645,61.8748244 400.272058,60.9425877 C400.59347,60.0103511 401.204144,58.9977648 402.104099,57.9047976 C402.489793,57.4547525 402.907623,57.0368594 403.357601,56.6511063 C404.257555,55.8796002 405.157496,55.3974159 406.05745,55.2045394 C405.928885,56.6832596 406.10566,57.8887199 406.587778,58.8209565 C407.069897,59.7531932 407.712712,60.4764692 408.516242,60.9908068 C409.319773,61.5051444 410.219714,61.8587458 411.216093,62.0516224 C412.212471,62.2444989 413.160623,62.3409357 414.060577,62.3409357 C414.960532,62.3409357 415.876543,62.2123533 416.808639,61.9551847 C417.740735,61.6980157 418.592465,61.3604868 419.363854,60.9425877 C420.135244,60.5246886 420.761988,60.0425044 421.244107,59.4960212 C421.726225,58.9495376 421.967281,58.3548436 421.967281,57.7119219 C421.967281,57.0047082 421.678015,56.4260872 421.099472,55.9760417 C420.52093,55.5259965 419.797763,55.156322 418.92995,54.8670075 C418.062136,54.5776924 417.130055,54.3526733 416.133677,54.1919428 C415.137298,54.0312123 414.189146,53.8544113 413.289192,53.6615348 C412.389237,53.4686582 411.183959,53.1954209 409.673321,52.8418139 C408.162683,52.4882068 406.684209,51.9256588 405.237853,51.1541526 C403.791498,50.3826465 402.538008,49.3539868 401.477348,48.0681435 C400.416687,46.7822997 399.886364,45.0785826 399.886364,42.9569407 C399.886364,40.5138378 400.513109,38.3761549 401.766617,36.5438278 C403.020125,34.7115007 404.562882,33.1685115 406.394932,31.914814 C408.226982,30.6611166 410.171498,29.7128211 412.228536,29.0698993 C414.285575,28.4269776 416.117598,28.1055215 417.72466,28.1055215 C418.560332,28.1055215 419.460273,28.2180311 420.42451,28.4430537 C421.388747,28.6680763 422.288688,29.0538236 423.12436,29.6003071 C423.960032,30.1467907 424.651058,30.8700668 425.197459,31.7701574 C425.74386,32.6702479 426.017056,33.8274898 426.017056,35.2419177 C426.017056,36.6563456 425.904564,37.7975147 425.679575,38.6654591 C425.454586,39.5334035 425.133179,40.2084613 424.715343,40.6906526 C424.297507,41.172844 423.799325,41.4782273 423.220783,41.6068116 C422.642241,41.735396 421.967285,41.7996872 421.195895,41.7996872 C420.681636,41.7996872 420.199525,41.735396 419.749547,41.6068116 C419.363852,41.4782273 418.946023,41.3496448 418.496046,41.2210604 C418.046068,41.0924761 417.628238,40.8674569 417.242544,40.545996 C417.885368,39.7744898 418.38355,39.0351408 418.737103,38.3279269 C419.090657,37.6207129 419.267431,36.7527815 419.267431,35.7241066 C419.267431,34.8240161 419.026376,34.0203759 418.544257,33.313162 C418.062139,32.605948 417.27469,32.2523463 416.181888,32.2523463 C415.024804,32.2523463 413.915948,32.4773656 412.855287,32.9274108 C411.794627,33.3774561 410.862545,33.9882226 410.059014,34.7597287 C409.255483,35.5312349 408.612668,36.4152391 408.13055,37.4117679 C407.648431,38.4082967 407.407375,39.4851745 407.407375,40.6424337 C407.407375,42.3783226 408.066261,44.0177486 409.384052,45.5607609 C410.701842,47.1037732 412.774921,48.4217432 415.603349,49.51471 L415.603349,49.51471 L415.603349,49.51471 Z M468.046155,24.9230745 C467.339049,24.7944902 466.390896,24.6659077 465.201669,24.5373234 C464.012446,24.408739 462.807167,24.3123022 461.585799,24.24801 C460.171583,24.1837178 458.66097,24.1515722 457.053908,24.1515722 C455.446845,24.0229879 453.438051,24.0069151 451.027455,24.1033533 C448.616864,24.1997916 446.093815,24.24801 443.458235,24.24801 C443.393953,25.9196067 443.281461,27.6233238 443.120755,29.3592127 C442.960049,31.0951015 442.815412,32.7988187 442.686847,34.4704154 C442.365436,37.55644 442.092242,40.7067095 441.86725,43.9213187 C441.642262,47.1359274 441.52977,50.1897601 441.52977,53.0829082 C441.52977,55.9760562 441.706544,58.5959233 442.060097,60.9425877 C442.413649,63.2892522 443.072537,65.1376247 444.036776,66.4877605 C443.265384,67.0663901 442.429727,67.5003557 441.52977,67.7896708 C440.629817,68.0789854 439.826297,68.2879319 439.119191,68.4165164 C438.283517,68.6093929 437.447859,68.7058297 436.612185,68.7058297 C435.840797,68.7058297 435.197982,68.448665 434.683724,67.9343274 C434.169461,67.4199898 433.880195,66.5199129 433.815912,65.2340692 C433.687348,63.0481352 433.671279,60.8461613 433.767703,58.6280809 C433.864126,56.4100009 433.992687,54.0794442 434.153392,51.6363416 C434.314103,49.1932386 434.490872,46.5733716 434.683724,43.7766616 C434.876571,40.979952 435.069413,37.9100465 435.26226,34.5668532 C435.455107,31.0950755 435.551531,27.7197867 435.551531,24.4408856 C433.108798,24.5051777 431.05179,24.5373234 429.380445,24.5373234 C427.709101,24.5373234 426.777019,24.5051777 426.584172,24.4408856 C426.391324,24.3123012 426.166339,24.0229907 425.909209,23.5729455 C425.652079,23.1871924 425.314601,22.6085715 424.896765,21.8370654 C424.478929,21.0655592 423.948607,19.9726085 423.305782,18.5581806 L427.307346,18.5581806 C428.753701,18.5581806 430.087542,18.526035 431.30891,18.4617428 C432.723121,18.3974506 434.137315,18.3331594 435.551531,18.2688672 C435.487248,17.2401924 435.455107,16.1472417 435.455107,14.9899825 C435.390825,14.089892 435.358684,13.0773053 435.358684,11.9521922 C435.358684,10.8270791 435.326543,9.78234681 435.26226,8.81796412 C435.26226,8.43221104 435.728301,7.96609974 436.660399,7.41961623 C437.592492,6.87313271 438.604928,6.37487578 439.697728,5.92483054 C440.790532,5.47478529 441.802963,5.18547482 442.735061,5.05689045 C443.667155,4.92830607 444.133195,5.15332532 444.133195,5.73195494 C444.133195,6.31058456 444.117127,7.7089185 444.084986,9.92699866 C444.052844,12.1450789 443.972494,14.8292371 443.843929,17.9795539 C444.486752,17.9795539 444.968865,17.9474083 445.290277,17.8831161 C448.697244,17.7545317 451.445282,17.6098765 453.534461,17.449146 C455.623641,17.2884156 457.34317,17.2723428 458.693103,17.4009271 C460.043036,17.5295115 461.232242,17.8509676 462.260763,18.365305 C463.28928,18.8796424 464.446349,19.7154282 465.731996,20.8726875 C466.181976,21.2584405 466.567666,21.6763335 466.889078,22.1263787 C467.210489,22.5121318 467.483687,22.9460975 467.708675,23.4282888 C467.933663,23.9104801 468.046155,24.4087371 468.046155,24.9230745 L468.046155,24.9230745 L468.046155,24.9230745 Z M464.756342,68.8987054 C460.25657,68.8987054 456.785368,67.3878618 454.342635,64.3661293 C451.899898,61.3443967 450.678552,57.3904871 450.678552,52.5042815 C450.678552,49.0967959 451.176733,45.8983083 452.173113,42.9087217 C453.169489,39.9191354 454.503333,37.331414 456.174677,35.1454799 C457.846018,32.9595458 459.790534,31.2397558 462.008279,29.9860583 C464.226023,28.7323608 466.55623,28.1055215 468.998962,28.1055215 C471.377412,28.1055215 473.40228,28.9573801 475.073624,30.6611228 C476.744969,32.3648656 477.580631,34.7918589 477.580631,37.9421757 C477.580631,39.9995254 477.130659,42.0407715 476.230706,44.0659753 C475.330749,46.0911788 474.157612,47.8913326 472.711256,49.4664914 C471.264903,51.0416497 469.673935,52.3114011 467.938308,53.2757838 C466.202681,54.2401665 464.531362,54.7223508 462.9243,54.7223508 C461.895783,54.7223508 461.02798,54.593768 460.320874,54.3365994 C459.613769,54.0794309 458.97095,53.6936834 458.392409,53.1793462 C458.585256,56.844 459.388776,59.3995759 460.802992,60.8461501 C462.217203,62.292724 464.049228,63.0160003 466.299113,63.0160003 C467.841893,63.0160003 469.207873,62.694544 470.397101,62.0516224 C471.586323,61.4087007 472.598759,60.6693517 473.43443,59.8335531 C474.270104,58.9977549 474.94506,58.1458962 475.459318,57.277952 C475.973577,56.4100073 476.327126,55.7510225 476.519972,55.3009774 C476.712819,54.9152243 477.050299,54.7223508 477.532417,54.7223508 C478.014534,54.7223508 478.255591,55.1080979 478.255591,55.879604 C478.255591,56.5868181 478.014534,57.663696 477.532417,59.1102699 C477.050299,60.5568441 476.262852,62.003396 475.170048,63.4499703 C474.077248,64.8965441 472.679123,66.166296 470.975637,67.2592627 C469.272156,68.3522299 467.199074,68.8987054 464.756342,68.8987054 L464.756342,68.8987054 L464.756342,68.8987054 Z M469.191809,32.2523463 C468.806115,32.2523463 468.08295,32.6541664 467.022287,33.4578186 C465.961624,34.2614709 464.836701,35.4347856 463.647474,36.9777978 C462.458251,38.5208101 461.365464,40.3691826 460.369084,42.5229706 C459.372708,44.6767587 458.745962,47.1037518 458.488832,49.8040233 C462.34578,48.9039331 465.399152,47.4895263 467.649038,45.5607609 C469.898923,43.6319955 471.023851,40.803182 471.023851,37.0742356 C471.023851,35.2097624 470.798867,33.9400109 470.348887,33.2649431 C469.89891,32.5898752 469.513221,32.2523463 469.191809,32.2523463 L469.191809,32.2523463 L469.191809,32.2523463 Z M509.967408,38.2314891 C509.967408,39.1315796 509.726352,40.0477294 509.244234,40.979966 C508.762112,41.9122026 508.167512,42.7962068 507.460402,43.632005 C506.753296,44.4678036 505.965848,45.1910795 505.098033,45.8018552 C504.230221,46.4126308 503.410633,46.7823053 502.63924,46.9108898 C503.153503,44.9178324 503.314205,43.3748432 503.121358,42.2818761 C502.928511,41.1889091 502.607104,40.3852689 502.157127,39.8709315 C501.642864,39.2923018 501.00005,38.9708458 500.228662,38.9065536 C499.071576,38.9065536 497.962721,39.5655385 496.902062,40.8835282 C495.8414,42.2015179 494.925387,43.8087982 494.153999,45.7054176 C493.382607,47.6020369 492.771934,49.6272099 492.321958,51.7809983 C491.871981,53.9347862 491.646993,55.8795954 491.646993,57.6154843 C491.582711,58.8370356 491.614852,60.0264232 491.743417,61.1836825 C491.807699,62.1480652 491.920195,63.1445788 492.080901,64.1732536 C492.241607,65.2019287 492.482663,66.0055689 492.804075,66.5841985 C492.418381,66.9056591 491.791635,67.2914066 490.923819,67.7414517 C490.056008,68.1914969 489.156068,68.4808076 488.22397,68.6093921 C487.291877,68.7379762 486.456215,68.5772482 485.716968,68.1272031 C484.977717,67.6771576 484.575959,66.7127895 484.511677,65.2340692 C484.383112,63.8196414 484.302761,62.2284336 484.27062,60.4603988 C484.238479,58.6923639 484.238479,56.9243556 484.27062,55.1563208 C484.302761,53.3882859 484.350971,51.6363502 484.415253,49.9004614 C484.479536,48.1645725 484.575959,46.5572922 484.704524,45.0785719 C484.833088,42.249716 484.897371,40.0638147 484.897371,38.5208024 C484.897371,36.9777901 484.86523,35.4990922 484.800947,34.0846643 C484.800947,33.8274955 485.234846,33.4578211 486.102662,32.9756297 C486.970473,32.4934384 487.934695,32.0594727 488.995358,31.6737196 C490.056016,31.2879665 491.036311,31.0629472 491.936264,30.9986551 C492.83622,30.9343629 493.286188,31.1272365 493.286188,31.5772818 C493.286188,32.2844958 493.205837,33.6828297 493.045132,35.7723255 C492.884426,37.8618213 492.67551,40.0316498 492.418381,42.2818761 C492.868357,41.0603247 493.462962,39.7423548 494.202209,38.3279269 C494.94146,36.9134989 495.79319,35.595529 496.757425,34.3739776 C497.721664,33.1524262 498.814446,32.1398395 500.035815,31.3361873 C501.257183,30.5325351 502.607095,30.130715 504.085588,30.130715 C505.242674,30.130715 506.190828,30.4843167 506.930075,31.1915306 C507.669321,31.8987446 508.263927,32.7023848 508.713903,33.6024753 C509.163883,34.5025658 509.485291,35.4026428 509.678138,36.3027333 C509.870985,37.2028239 509.967408,37.845736 509.967408,38.2314891 L509.967408,38.2314891 L509.967408,38.2314891 Z" id="Reliable-Monster" fill="#333333"></path>
                            <path d="M248.385248,54.5284404 C266.360183,54.5284404 291.741623,59.5704212 289.651462,93.970261 C287.561301,128.370101 284.887971,224.542259 284.887971,224.542259 L279.63831,225.236941 C279.63831,225.236941 283.730482,193.78412 279.638309,192.034993 C266.241572,186.308792 226.867903,185.332155 217.74586,195.526104 C209.919783,204.271801 214.584546,232.583634 214.584546,232.583634 L208.73879,234 C208.73879,234 204.410548,126.078657 209.104933,94.1696045 C213.799318,62.2605513 230.410313,54.5284404 248.385248,54.5284404 Z" id="Path-1" fill="#00AFF3"></path>
                            <path d="M232.247475,108.431293 C236.540404,107.33945 236.509381,106.14594 237.79726,100.013015 C239.085138,93.880089 234.618394,91.453211 232.247475,91.453211 C229.876556,91.453211 227.954545,93.4353679 227.954545,98.7707427 C227.954545,104.106117 227.954545,109.523137 232.247475,108.431293 L232.247475,108.431293 Z" id="Oval-1" fill="#333333"></path>
                            <path d="M263.979489,107.747526 C260.364844,106.117656 260.577679,105.070368 260.395518,99.4638146 C260.213358,93.8572609 264.528083,92.4123049 266.618113,92.7808892 C268.708142,93.1494736 270.094391,95.1955949 269.265202,99.8988713 C268.436013,104.602148 267.594135,109.377397 263.979489,107.747526 L263.979489,107.747526 Z" id="Oval-1" fill="#333333"></path>
                            <path d="M230.145029,95.0409626 C230.728704,93.4384666 231.476927,92.3119266 231.476927,92.3119266 C231.476927,92.3119266 228.813131,93.2679184 228.813131,97.2482833 C228.813131,99.1805131 229.561355,96.6434585 230.145029,95.0409626 L230.145029,95.0409626 Z" id="Path-2" fill="#FFFFFF"></path>
                            <path d="M231.785175,93.2488527 C232.090089,92.6756901 232.224949,92.0029187 232.224949,92.0029187 C232.224949,92.0029187 231.197071,93.1042764 230.986225,94.6047475 C230.883872,95.3331367 231.480262,93.8220153 231.785175,93.2488527 L231.785175,93.2488527 Z" id="Path-2" fill="#FFFFFF"></path>
                            <path d="M262.69271,95.8755358 C263.483206,94.5070252 264.347292,93.5993577 264.347292,93.5993577 C264.347292,93.5993577 261.762482,94.0430869 261.122069,97.6755939 C260.811187,99.4389595 261.902215,97.2440468 262.69271,95.8755358 L262.69271,95.8755358 Z" id="Path-2" fill="#FFFFFF"></path>
                            <path d="M260.047447,133.042179 C264.37643,134.387276 252.990945,160.720662 245.460711,155.616168 C237.952414,150.526545 237.308465,135.922516 240.505396,134.445978 C243.734316,133.042179 255.718464,131.697081 260.047447,133.042179 L260.047447,133.042179 Z" id="Path-7" stroke="#333333" stroke-width="3" fill="#7F7F7F"></path>
                            <path d="M255.654106,149.45163 L253.97194,148.834428 L252.066953,148.431905 L250.64492,148.217226 L249.383872,148.029382 L248.647806,148.12844 L248.138021,148.611468 L247.823178,148.638303 L247.294737,148.396789 L246.677629,148.047936 L245.443411,147.752752 L244.449518,147.699083 L243.427747,147.886927 L242.470013,148.03976 L241.450442,148.361778 L240.40404,148.872794 L240.699179,150.376699 C240.699179,150.376699 241.539109,151.906286 241.665088,152.09413 C241.791067,152.281974 243.105777,154.160414 243.105777,154.160414 L244.447317,155.770506 L245.978874,156.506578 L247.734511,156.38058 C247.734511,156.38058 248.960553,156.165901 249.067876,156.165901 C249.175199,156.165901 250.677725,155.226681 250.677725,155.226681 L251.85,154.214084 L253.352526,152.550322 L254.471245,150.975242 L255.654106,149.45163 L255.654106,149.45163 Z" id="Path-22" fill="#ACF000"></path>
                            <path d="M239.545455,135.675911 C239.545455,135.675911 245.314078,141.178211 245.314078,133.530275" id="Path-8" stroke="#333333" stroke-width="2" fill="#F2F2F2"></path>
                            <path d="M247.70202,133.128906 C247.70202,133.128906 248.186128,137.743349 250.590419,137.269651 C252.994711,136.795952 253.558158,132.966743 253.343512,132.67156" id="Path-9" stroke="#333333" stroke-width="2" fill="#F2F2F2"></path>
                            <path d="M256.23348,132.67156 C255.407021,133.120661 255.994099,136.915871 257.531735,137.051093 C259.069371,137.186316 260.741056,135.797192 261.009364,135.161332 C261.277672,134.525471 260.059805,132.886239 260.059805,132.886239" id="Path-10" stroke="#333333" stroke-width="2" fill="#F2F2F2"></path>
                            <path d="M276.080631,190.521653 C276.080631,190.521653 277.582317,210.411317 275.847538,213.789994 L270.883838,214.995047 C270.883838,214.995047 274.795267,208.283816 271.957071,189.346789" id="Path-23" stroke="#333333" stroke-width="2" fill="#00AFF3"></path>
                            <path d="M241.691919,151.451664 C241.691919,151.451664 242.837469,150.651126 243.481408,151.591499 C244.125348,152.531872 243.06029,153.421825 243.06029,153.421825" id="Path-11" stroke="#333333" stroke-width="2" fill="#F2F2F2"></path>
                            <path d="M245.984848,156.000549 C245.984848,156.000549 246.283656,154.801156 247.299558,155.026318 C248.31546,155.251479 248.617726,156.176548 248.617726,156.176548" id="Path-12" stroke="#333333" stroke-width="2" fill="#F2F2F2"></path>
                            <path d="M251.792504,153.922849 C251.792504,153.922849 251.185771,152.596096 251.956843,152.129421 C252.727914,151.662746 253.123249,152.54012 253.123249,152.54012" id="Path-13" stroke="#333333" stroke-width="2" fill="#F2F2F2"></path>
                            <path d="M247.954296,150.275159 C247.954296,150.275159 247.386675,149.16336 247.954296,148.421353 C248.573192,147.612318 249.861638,147.098724 255.975765,149.04128" id="Path-16" stroke="#333333" stroke-width="2"></path>
                            <path d="M248.104482,148.516308 C248.104482,148.516308 245.681535,146.589753 240.40404,148.652684" id="Path-17" stroke="#333333" stroke-width="2"></path>
                            <path d="M294.825583,128.134837 C297.389591,135.706701 306.148743,138.802598 316.603535,137.196285 C329.079861,135.279376 336.419345,133.268438 339.141414,123.242157 C341.863483,113.215875 328.700037,110.593605 316.603535,109.288028 C304.507033,107.982451 294.065657,112.15066 294.065657,123.242157 C294.065657,125.039307 294.329808,126.670745 294.825583,128.134837 L294.825583,128.134837 Z" id="Oval-3" stroke="#333333" stroke-width="2" fill="#FFFFFF"></path>
                            <path d="M260.047447,133.042179 C264.37643,134.387276 252.990945,160.720662 245.460711,155.616168 C237.952414,150.526545 237.308465,135.922516 240.505396,134.445978 C243.734316,133.042179 255.718464,131.697081 260.047447,133.042179 L260.047447,133.042179 Z" id="Path-7-Copy" stroke="#333333" stroke-width="2"></path>
                            <path d="M294.185557,125.801835 C294.185557,125.801835 295.815871,133.502182 293.399841,135.238272 C292.658884,135.770703 292.348485,136.277914 292.348485,136.277914 C292.348485,136.277914 304.466291,136.68712 307.834997,137.458647" id="Path-19" stroke="#333333" stroke-width="2" fill="#FFFFFF"></path>
                            <path d="M220.744609,193.440683 C220.744609,193.440683 219.651049,214.150792 220.643785,219.801004 L225.995896,219.728471 C225.995896,219.728471 223.14566,213.150004 224.570778,191.06422" id="Path-24" stroke="#333333" stroke-width="2" fill="#00AFF3"></path>
                            <path d="M286.076146,190.603198 C286.442667,190.603198 286.117062,190.477928 286.076146,190.281179 C286.010008,189.963145 286.037877,189.425999 286.076146,188.68744 C286.233023,185.659869 286.271606,179.022599 286.595825,172.488199 C286.957589,165.197121 287.079158,156.219564 287.079158,156.219564 C287.079158,156.219564 287.155278,155.452953 287.079158,154.481168 C287.047288,154.074304 287.473527,152.777007 287.079158,152.854724 C277.716295,154.69983 272.170115,155.069648 273.717037,171.53053 C275.263959,187.991412 278.963388,190.603198 286.076146,190.603198 L286.076146,190.603198 Z" id="Oval-4" fill="#FF2E8B"></path>
                            <path d="M271.773028,73.4807951 C277.438783,75.8800258 282.771012,74.9774191 284.651816,69.8184654 C284.821992,69.35168 284.376343,69.3675778 284.317898,69.1670909 C284.181444,68.6989995 284.057146,68.4454577 283.767028,68.1079524 C283.197758,67.4456989 282.640172,65.987851 278.438178,62.6873102 C273.541075,58.840783 273.499494,59.7563889 272.691983,59.0771827 C272.302242,58.7493671 268.359646,57.2777794 265.851595,56.6643511 C259.091369,55.010911 258.863636,55.4362389 258.863636,55.4362389 C258.863636,55.4362389 262.049166,69.3631112 271.773028,73.4807951 L271.773028,73.4807951 Z" id="Oval-4" fill="#FF2E8B"></path>
                            <path d="M211.080217,156.911297 C216.181801,150.629632 226.034577,153.739332 223.959005,138.234233 C221.883433,122.729133 217.543549,118.323813 211.080217,119.557168 C209.34043,119.889161 208.043802,119.406338 207.47227,120.793669 C206.895816,122.192945 207.280038,127.819148 207.231631,129.998235 C207.149736,133.684888 207.00336,135.932153 207.00336,140.670126 C207.00336,150.985184 205.978633,163.192962 211.080217,156.911297 L211.080217,156.911297 Z" id="Oval-4" fill="#FF2E8B"></path>
                            <path d="M222.444029,143.302777 C224.340764,143.302777 224.852094,131.097947 225.127109,127.73688 C225.402125,124.375814 218.862668,122.79633 216.965932,122.79633 C215.069197,122.79633 218.258422,124.891347 218.258422,127.73688 C218.258422,130.582413 220.547293,143.302777 222.444029,143.302777 L222.444029,143.302777 Z" id="Oval-4" fill="#FF2E8B"></path>
                            <path d="M270.441904,185.657629 C272.435493,186.702197 273.455194,184.739192 273.455194,182.036914 C273.455194,179.334636 272.419143,177.012505 270.441904,175.871814 C268.464664,174.731123 267.878788,177.486804 267.878788,180.189082 C267.878788,182.89136 268.448314,184.613061 270.441904,185.657629 L270.441904,185.657629 Z" id="Oval-4" fill="#FF2E8B"></path>
                            <path d="M209.104933,94.1696045 C213.799318,62.2605513 230.410313,54.5284404 248.385248,54.5284404 C266.360183,54.5284404 291.741623,59.5704212 289.651462,93.970261 C287.561301,128.370101 284.887971,224.542259 284.887971,224.542259 L279.63831,225.236941 C279.63831,225.236941 283.730482,193.78412 279.638309,192.034993 C266.241572,186.308792 226.867903,185.332155 217.74586,195.526104 C209.919783,204.271801 214.584546,232.583634 214.584546,232.583634 L208.73879,234 C208.73879,234 204.410548,126.078657 209.104933,94.1696045 L209.104933,94.1696045 Z" id="Path-1" stroke="#333333" stroke-width="3"></path>
                            <path d="M304.163267,125.931898 C304.051471,125.585279 303.942472,125.277799 303.836266,125.009449 C303.730061,124.741099 303.637831,124.511887 303.559574,124.321806 C303.123571,124.467162 302.648447,124.567792 302.134187,124.623698 C302.134187,125.339298 302.150956,125.948667 302.184495,126.451823 C302.195675,126.764898 302.209649,127.030449 302.226418,127.248483 C302.243187,127.466517 302.259957,127.6538 302.276726,127.810338 C302.293495,127.966875 302.313059,128.109434 302.335418,128.238018 C302.357777,128.366603 302.391315,128.49239 302.436034,128.615384 C302.212443,128.783102 301.99724,128.906094 301.790417,128.984363 C301.583596,129.062632 301.40193,129.118537 301.245417,129.152081 C301.055364,129.196806 300.887674,129.207987 300.742339,129.185625 C300.686441,129.029087 300.636134,128.864166 300.591416,128.690857 C300.546697,128.517547 300.515954,128.282745 300.499185,127.986442 C300.482415,127.690138 300.474031,127.312777 300.474031,126.854346 C300.474031,126.395914 300.4908,125.808908 300.524339,125.093308 C300.535518,125.015039 300.541108,124.936772 300.541108,124.858503 C300.541108,124.780234 300.546698,124.701967 300.557877,124.623698 C300.457261,124.612517 300.353852,124.601335 300.247646,124.590155 C300.14144,124.578973 300.038031,124.567792 299.937415,124.556611 C299.870337,124.377711 299.82562,124.21838 299.803261,124.078615 C299.780902,123.938849 299.769722,123.824243 299.769722,123.734793 C299.769722,123.622981 299.780902,123.533532 299.803261,123.466444 C299.982134,123.499988 300.161004,123.51676 300.339877,123.51676 L300.591416,123.51676 C300.613775,123.047147 300.636134,122.569156 300.658493,122.082772 C300.680852,121.596388 300.700416,121.121192 300.717185,120.65717 C300.733955,120.193148 300.747929,119.751495 300.759108,119.332199 C300.770288,118.912901 300.781467,118.52995 300.792647,118.183331 C300.45726,118.406956 300.166596,118.697664 299.920646,119.055464 C299.674695,119.413264 299.507004,119.826964 299.417568,120.296577 C299.272234,120.274214 299.14926,120.204332 299.048644,120.086929 C298.948028,119.969526 298.864183,119.849329 298.797105,119.726336 C298.718849,119.580979 298.651772,119.418854 298.595874,119.239954 C298.539977,119.02751 298.539977,118.812274 298.595874,118.59424 C298.651772,118.376206 298.735618,118.169356 298.847413,117.973683 C298.959209,117.778012 299.087772,117.604705 299.233106,117.453758 C299.378441,117.302811 299.518183,117.182614 299.652338,117.093165 C299.887108,116.947809 300.13026,116.816431 300.3818,116.699027 C300.63334,116.581624 300.91562,116.48379 301.228648,116.405521 C301.351622,116.282528 301.48857,116.170717 301.639494,116.070086 C301.790418,115.969454 301.932955,115.907958 302.06711,115.885596 C302.257163,115.840871 302.363367,115.958272 302.385726,116.237804 C302.486342,116.226622 302.592546,116.218236 302.704342,116.212646 C302.816138,116.207055 302.933521,116.20426 303.056496,116.20426 C303.481319,116.20426 303.922906,116.271346 304.381268,116.405521 C304.839629,116.539696 305.261651,116.754932 305.647346,117.051235 C306.033041,117.347538 306.348859,117.733286 306.594809,118.208488 C306.840759,118.683692 306.963733,119.262312 306.963733,119.944369 C306.963733,120.715875 306.782068,121.425873 306.418732,122.074386 C306.055396,122.722898 305.538349,123.25959 304.867576,123.684478 C304.945833,123.88574 305.046447,124.137314 305.169422,124.439208 C305.292398,124.741102 305.415371,125.082125 305.538346,125.462288 C305.717219,125.9319 305.910063,126.370757 306.116885,126.778873 C306.323707,127.186988 306.538911,127.541988 306.762502,127.843882 C306.986093,128.145775 307.22086,128.388964 307.466811,128.573454 C307.712761,128.757945 307.958707,128.86696 308.204658,128.900504 C308.059323,129.124129 307.891632,129.280664 307.70158,129.370114 C307.511527,129.459564 307.321478,129.515469 307.131425,129.537832 C306.919014,129.571376 306.695426,129.571376 306.460655,129.537832 C306.136448,129.470744 305.856963,129.31421 305.622192,129.068222 C305.387422,128.822234 305.183398,128.525936 305.010114,128.179317 C304.836832,127.832699 304.68032,127.460927 304.540575,127.063993 C304.400831,126.667059 304.275063,126.289697 304.163267,125.931898 L304.163267,125.931898 L304.163267,125.931898 Z M302.218033,118.787116 C302.218033,119.033103 302.212444,119.329401 302.201264,119.67602 C302.190085,120.022639 302.1817,120.397205 302.17611,120.79973 C302.170521,121.202255 302.162136,121.624341 302.150956,122.066 C302.139777,122.507659 302.134187,122.946517 302.134187,123.382586 C302.436035,123.33786 302.768622,123.265183 303.131958,123.164552 C303.495294,123.063921 303.83347,122.896205 304.146498,122.661399 C304.459526,122.426592 304.722241,122.113522 304.934653,121.722178 C305.147064,121.330835 305.253269,120.827686 305.253269,120.212717 C305.253269,119.743105 305.172218,119.343381 305.010114,119.013534 C304.848011,118.683688 304.638397,118.415341 304.381268,118.208488 C304.124137,118.001635 303.841858,117.850691 303.53442,117.75565 C303.226982,117.660609 302.922344,117.61309 302.620496,117.61309 L302.452803,117.61309 C302.396905,117.61309 302.335418,117.618681 302.268341,117.629862 C302.234803,117.987662 302.218033,118.373409 302.218033,118.787116 L302.218033,118.787116 L302.218033,118.787116 Z M312.73037,126.804031 C312.752729,126.882299 312.786267,126.954976 312.830985,127.022064 C312.864524,127.07797 312.912036,127.13108 312.973524,127.181396 C313.035012,127.231711 313.110472,127.262459 313.199909,127.273641 C313.121652,127.430178 313.043396,127.536398 312.965139,127.592305 C312.920421,127.625848 312.881293,127.64821 312.847754,127.659392 C312.747138,127.692935 312.596217,127.709707 312.394985,127.709707 C312.193752,127.709707 311.998113,127.648211 311.808061,127.525217 C311.740983,127.469311 311.679497,127.385453 311.623599,127.273641 C311.567701,127.184191 311.520189,127.058403 311.48106,126.896275 C311.441932,126.734147 311.411188,126.524502 311.388829,126.267333 C311.232316,126.60277 311.05624,126.868321 310.860598,127.063993 C310.664955,127.259665 310.472111,127.402224 310.282059,127.491674 C310.069647,127.614668 309.851649,127.687345 309.628057,127.709707 C309.348568,127.73207 309.083058,127.68455 308.831518,127.567147 C308.579978,127.449744 308.367569,127.270846 308.194286,127.030449 C308.021003,126.790053 307.889645,126.49655 307.800209,126.149931 C307.710772,125.803312 307.682824,125.411974 307.716362,124.975905 C307.749901,124.517474 307.839336,124.109365 307.98467,123.751565 C308.130005,123.393765 308.303285,123.075104 308.504518,122.795573 C308.705749,122.516042 308.918158,122.278444 309.141749,122.082772 C309.36534,121.8871 309.580544,121.724974 309.787365,121.59639 C309.994187,121.467806 310.173058,121.372767 310.323982,121.31127 C310.474906,121.249773 310.572725,121.213434 310.617444,121.202253 C310.740419,121.168709 310.846623,121.157528 310.936059,121.16871 C311.025496,121.17989 311.103751,121.230206 311.170829,121.319655 C311.193188,121.353199 311.221136,121.392333 311.254675,121.437058 C311.277034,121.481783 311.304983,121.540484 311.338521,121.613162 C311.37206,121.68584 311.400009,121.766903 311.422368,121.856353 C311.154059,121.979347 310.902522,122.116315 310.667751,122.267261 C310.43298,122.418209 310.217777,122.599901 310.022135,122.812345 C309.826493,123.024789 309.656007,123.281953 309.510673,123.583847 C309.365338,123.885741 309.253544,124.254716 309.175288,124.690785 C309.063492,125.238666 309.094236,125.680319 309.267518,126.015756 C309.440802,126.351194 309.678364,126.490957 309.980212,126.435051 C310.159085,126.379145 310.332365,126.272925 310.500059,126.116387 C310.645393,125.982212 310.79911,125.780953 310.961213,125.512603 C311.123317,125.244253 311.277033,124.875277 311.422368,124.405665 C311.478266,123.73479 311.525778,123.206484 311.564907,122.820731 C311.604035,122.434978 311.640368,122.141474 311.673907,121.940212 C311.718625,121.705406 311.752163,121.54887 311.774522,121.470602 C311.808061,121.414696 311.875137,121.361585 311.975753,121.31127 C312.076369,121.260954 312.188163,121.219025 312.311138,121.185481 C312.434113,121.151938 312.545907,121.13237 312.646523,121.12678 C312.747139,121.121189 312.814216,121.123985 312.847754,121.135166 C312.870114,121.146347 312.881293,121.283315 312.881293,121.546075 C312.881293,121.808834 312.872908,122.138676 312.856139,122.53561 C312.83937,122.932544 312.819806,123.363016 312.797447,123.827038 C312.775088,124.29106 312.755524,124.729917 312.738754,125.143623 C312.721985,125.557329 312.710806,125.917919 312.705216,126.225404 C312.699626,126.532888 312.708011,126.725762 312.73037,126.804031 L312.73037,126.804031 L312.73037,126.804031 Z M321.58255,121.034535 C322.119168,121.034535 322.331577,121.375558 322.219781,122.057614 C322.175063,122.348327 322.096807,122.739664 321.985012,123.231639 C321.873216,123.723614 321.733474,124.235149 321.56578,124.766258 C321.398087,125.297367 321.205242,125.814492 320.987241,126.317649 C320.76924,126.820805 320.531678,127.234505 320.274548,127.558761 C320.039777,127.670573 319.838548,127.73766 319.670855,127.760022 C319.581418,127.782385 319.503162,127.787975 319.436085,127.776794 C319.346648,127.776794 319.262803,127.765613 319.184546,127.743251 C319.106289,127.720888 319.030828,127.676164 318.958161,127.609077 C318.885494,127.541989 318.818418,127.441359 318.75693,127.307184 C318.695443,127.173009 318.64793,126.988521 318.614391,126.753715 C318.558494,126.407096 318.477443,126.03253 318.371237,125.630005 C318.265032,125.22748 318.156032,124.858504 318.044237,124.523067 C317.943621,124.824961 317.840211,125.129645 317.734006,125.43713 C317.6278,125.744614 317.521596,126.032527 317.41539,126.300877 C317.309184,126.569227 317.205774,126.80962 317.105158,127.022064 C317.004542,127.234507 316.909518,127.396633 316.820081,127.508446 C316.451156,127.676164 316.18285,127.776794 316.015157,127.810338 C315.914541,127.843882 315.830695,127.855062 315.763618,127.843882 C315.540027,127.553169 315.344388,127.242894 315.176694,126.913047 C315.009001,126.5832 314.874848,126.272925 314.774232,125.982213 C314.651257,125.646775 314.550642,125.311343 314.472386,124.975905 C314.382949,124.551018 314.321463,124.142908 314.287924,123.751565 C314.254385,123.360221 314.223642,122.999631 314.195693,122.669784 C314.167744,122.339938 314.134206,122.052025 314.095077,121.806038 C314.055949,121.56005 313.986077,121.364381 313.885461,121.219025 C313.986077,121.140756 314.103461,121.065284 314.237616,120.992605 C314.37177,120.919928 314.511513,120.875203 314.656847,120.858431 C314.802182,120.84166 314.950308,120.85284 315.101232,120.891975 C315.252157,120.931109 315.400283,121.017762 315.545618,121.151938 C315.567977,121.44265 315.584746,121.724972 315.595925,121.998913 C315.607105,122.272853 315.618284,122.521633 315.629464,122.745258 C315.640644,123.002426 315.646233,123.242819 315.646233,123.466444 C315.657413,123.745976 315.671387,124.042274 315.688156,124.355349 C315.704926,124.668424 315.73008,124.975904 315.763618,125.277798 C315.797157,125.579692 315.850259,125.862014 315.922926,126.124773 C315.995593,126.387532 316.093413,126.608359 316.216388,126.787259 C316.339363,126.585996 316.512644,126.253359 316.736235,125.789337 C316.959826,125.325316 317.144286,124.741104 317.28962,124.036685 C317.345518,123.745973 317.381851,123.455265 317.39862,123.164552 C317.41539,122.87384 317.41539,122.608289 317.39862,122.367892 C317.381851,122.127496 317.359492,121.915055 317.331543,121.730564 C317.303594,121.546074 317.272851,121.414696 317.239312,121.336427 C317.328749,121.280521 317.423774,121.238592 317.52439,121.210639 C317.625006,121.182686 317.720031,121.157528 317.809467,121.135166 C317.910083,121.112803 318.005108,121.101622 318.094545,121.101622 C318.385213,121.07926 318.583647,121.13237 318.689853,121.260954 C318.796059,121.389539 318.821213,121.627137 318.765315,121.973755 C318.754135,122.063205 318.726187,122.200173 318.681468,122.384664 C318.63675,122.569154 318.580853,122.789981 318.513776,123.04715 C318.580853,123.270775 318.659109,123.553097 318.748545,123.894125 C318.837982,124.235153 318.927417,124.56779 319.016853,124.892047 C319.083931,125.205122 319.151007,125.523782 319.218085,125.848038 C319.285162,126.172295 319.341059,126.457412 319.385777,126.7034 C319.441675,126.692219 319.497572,126.669856 319.55347,126.636313 C319.609367,126.602769 319.659675,126.541273 319.704393,126.451823 C319.749111,126.373554 319.810598,126.244972 319.888855,126.066072 C319.967112,125.887172 320.050957,125.669141 320.140394,125.411972 C320.22983,125.154803 320.31647,124.869686 320.400317,124.556611 C320.484164,124.243536 320.559625,123.908103 320.626702,123.550304 C320.749677,122.834704 320.79719,122.314783 320.769241,121.990527 C320.741292,121.666271 320.67701,121.44824 320.576394,121.336427 C320.68819,121.258159 320.802779,121.199458 320.920164,121.160323 C321.037549,121.121189 321.146549,121.090441 321.247165,121.068079 C321.370139,121.045716 321.481934,121.034535 321.58255,121.034535 L321.58255,121.034535 L321.58255,121.034535 Z M327.583956,122.510453 C327.583956,122.66699 327.542033,122.82632 327.458187,122.988449 C327.37434,123.150577 327.270931,123.304316 327.147956,123.449673 C327.02498,123.595029 326.888033,123.720816 326.737109,123.827038 C326.586185,123.93326 326.443647,123.997551 326.309493,124.019914 C326.398929,123.673295 326.426878,123.404949 326.393339,123.214868 C326.3598,123.024786 326.303903,122.885023 326.225646,122.795573 C326.13621,122.694942 326.024416,122.639036 325.890261,122.627855 C325.689029,122.627855 325.496185,122.742461 325.311722,122.971677 C325.127259,123.200892 324.967953,123.480419 324.833798,123.810266 C324.699644,124.140113 324.593439,124.492317 324.515182,124.866889 C324.436926,125.241461 324.397798,125.579688 324.397798,125.881582 C324.386618,126.094026 324.392208,126.300876 324.414567,126.502138 C324.425747,126.669857 324.445311,126.843164 324.473259,127.022064 C324.501208,127.200964 324.543131,127.340727 324.599029,127.441359 C324.531951,127.497264 324.422952,127.564351 324.272028,127.64262 C324.121104,127.720889 323.964593,127.771203 323.802489,127.793566 C323.640386,127.815929 323.495054,127.787976 323.366489,127.709707 C323.237923,127.631438 323.168053,127.463722 323.156873,127.206554 C323.134514,126.960566 323.120539,126.683834 323.11495,126.37635 C323.10936,126.068865 323.10936,125.761386 323.11495,125.453901 C323.120539,125.146417 323.128924,124.841733 323.140103,124.539839 C323.151283,124.237945 323.168052,123.958418 323.190411,123.701249 C323.21277,123.209275 323.22395,122.829118 323.22395,122.560768 C323.22395,122.292418 323.21836,122.035253 323.20718,121.789266 C323.20718,121.744541 323.282642,121.680249 323.433566,121.59639 C323.584489,121.512531 323.75218,121.437058 323.936643,121.369971 C324.121106,121.302883 324.291592,121.26375 324.448105,121.252568 C324.604619,121.241387 324.682875,121.27493 324.682875,121.353199 C324.682875,121.476193 324.668901,121.719381 324.640952,122.082772 C324.613003,122.446162 324.57667,122.823524 324.531952,123.214868 C324.610209,123.002424 324.713618,122.773212 324.842183,122.527224 C324.970748,122.281237 325.118875,122.052025 325.286568,121.839581 C325.454262,121.627137 325.644311,121.451035 325.856723,121.31127 C326.069134,121.171504 326.303902,121.101622 326.561032,121.101622 C326.762264,121.101622 326.92716,121.163118 327.055725,121.286112 C327.18429,121.409106 327.287699,121.548869 327.365956,121.705407 C327.444213,121.861944 327.50011,122.018479 327.533648,122.175017 C327.567187,122.331554 327.583956,122.443365 327.583956,122.510453 L327.583956,122.510453 L327.583956,122.510453 Z M328.521048,126.334421 C328.442791,125.719452 328.378509,125.154807 328.328201,124.64047 C328.277893,124.126132 328.24156,123.69007 328.219201,123.33227 C328.185662,122.907383 328.163304,122.527226 328.152124,122.191788 C328.118585,121.778082 328.090637,121.358792 328.068278,120.933905 C328.045919,120.509017 328.031944,120.100907 328.026355,119.709564 C328.020765,119.31822 328.020765,118.946449 328.026355,118.59424 C328.031944,118.24203 328.040329,117.931755 328.051509,117.663405 C328.062688,117.395056 328.166098,117.17982 328.36174,117.017692 C328.557382,116.855564 328.76979,116.738162 328.998971,116.665484 C329.228152,116.592806 329.440561,116.559262 329.636203,116.564853 C329.831845,116.570444 329.929665,116.606783 329.929665,116.67387 C329.940845,116.94222 329.94364,117.291629 329.93805,117.722107 C329.93246,118.152585 329.924075,118.574671 329.912896,118.988377 C329.901716,119.469171 329.884947,119.972319 329.862588,120.497838 C329.840229,121.045719 329.806691,121.632726 329.761973,122.258876 C329.728434,122.795575 329.689306,123.416125 329.644588,124.120544 C329.59987,124.824963 329.543973,125.574095 329.476895,126.367964 C329.432177,126.42387 329.384665,126.465799 329.334357,126.493752 C329.284049,126.521706 329.236536,126.546863 329.191818,126.569226 C329.13592,126.591588 329.080023,126.602769 329.024125,126.602769 C328.957048,126.602769 328.895561,126.591588 328.839663,126.569226 C328.716689,126.5245 328.610484,126.446233 328.521048,126.334421 L328.521048,126.334421 L328.521048,126.334421 Z M329.493665,127.105923 C329.706076,127.105923 329.884946,127.167418 330.030281,127.290412 C330.175615,127.413406 330.248281,127.586713 330.248281,127.810338 C330.248281,127.944513 330.220333,128.087072 330.164435,128.238018 C330.108537,128.388965 330.021897,128.528729 329.904511,128.657313 C329.787126,128.785897 329.638999,128.892118 329.460126,128.975977 C329.281253,129.059837 329.063255,129.101766 328.806125,129.101766 C328.582534,129.101766 328.412048,129.034679 328.294663,128.900504 C328.177277,128.766329 328.118586,128.598613 328.118586,128.39735 C328.118586,128.061913 328.249943,127.762819 328.512663,127.50006 C328.775383,127.2373 329.10238,127.105923 329.493665,127.105923 L329.493665,127.105923 L329.493665,127.105923 Z" id="Rawr!" fill="#333333" transform="translate(314.401116, 122.719666) rotate(-7.000000) translate(-314.401116, -122.719666) "></path>
                            <path d="M272.171717,191.06422 L276.098343,191.06422 L273.379104,192.022878 L276.171237,192.358967 L273.222992,193.063977 L275.183475,193.705514 L273.222992,194.507637 L275.944433,195.596807 L273.037168,196.925844 L275.183475,197.853211" id="Path-25" stroke="#333333" stroke-width="0.5"></path>
                            <path d="M224.242881,193.211009 L220.656566,193.752167 L223.338808,194.344649 L220.89689,195.013674 L223.5043,195.255752 L221.225987,196.381905 L223.708465,197.209614 L221.385818,198.281029 L223.708465,198.689093 L221.649306,200" id="Path-26" stroke="#333333" stroke-width="0.5"></path>
                            <path d="M227.525253,89.8912082 C227.525253,89.8912082 229.415148,87.8844637 232.116255,88.6031348" id="Path-27" stroke="#333333"></path>
                            <path d="M265.732323,89.2928852 C265.732323,89.2928852 268.342969,88.408421 270.390561,90.3112549" id="Path-27" stroke="#333333"></path>
                        </g>
                    </g>
                </g>
            </g>
        </g>
    </g>
</svg>